<mxfile host="app.diagrams.net" modified="2022-10-06T18:45:58.344Z" agent="5.0 (Windows NT 10.0; Win64; x64) AppleWebKit/537.36 (KHTML, like Gecko) Chrome/106.0.0.0 Safari/537.36" etag="r0WwYMdrO6dMa5m9f4B8" version="20.4.0" type="github">
  <diagram id="ZYfP8K3Ki-mCiMZ2xrNF" name="Page-1">
    <mxGraphModel dx="2031" dy="2133" grid="1" gridSize="10" guides="1" tooltips="1" connect="1" arrows="1" fold="1" page="1" pageScale="1" pageWidth="1169" pageHeight="827" math="0" shadow="0">
      <root>
        <mxCell id="0" />
        <mxCell id="1" parent="0" />
        <mxCell id="pFgveg-31IJwDg-pSHKU-1" value="Processor App" style="swimlane;horizontal=0;" vertex="1" parent="1">
          <mxGeometry x="267" y="-40" width="640" height="850" as="geometry" />
        </mxCell>
        <mxCell id="pFgveg-31IJwDg-pSHKU-20" value="" style="group;sketch=1;" vertex="1" connectable="0" parent="pFgveg-31IJwDg-pSHKU-1">
          <mxGeometry x="210" y="200" width="260" height="40" as="geometry" />
        </mxCell>
        <mxCell id="pFgveg-31IJwDg-pSHKU-3" value="" style="rounded=0;whiteSpace=wrap;html=1;sketch=1;" vertex="1" parent="pFgveg-31IJwDg-pSHKU-20">
          <mxGeometry width="20" height="40" as="geometry" />
        </mxCell>
        <mxCell id="pFgveg-31IJwDg-pSHKU-15" value="" style="rounded=0;whiteSpace=wrap;html=1;sketch=1;" vertex="1" parent="pFgveg-31IJwDg-pSHKU-20">
          <mxGeometry x="240" width="20" height="40" as="geometry" />
        </mxCell>
        <mxCell id="pFgveg-31IJwDg-pSHKU-14" value="" style="rounded=0;whiteSpace=wrap;html=1;sketch=1;" vertex="1" parent="pFgveg-31IJwDg-pSHKU-20">
          <mxGeometry x="220" width="20" height="40" as="geometry" />
        </mxCell>
        <mxCell id="pFgveg-31IJwDg-pSHKU-13" value="" style="rounded=0;whiteSpace=wrap;html=1;sketch=1;" vertex="1" parent="pFgveg-31IJwDg-pSHKU-20">
          <mxGeometry x="200" width="20" height="40" as="geometry" />
        </mxCell>
        <mxCell id="pFgveg-31IJwDg-pSHKU-12" value="" style="rounded=0;whiteSpace=wrap;html=1;sketch=1;" vertex="1" parent="pFgveg-31IJwDg-pSHKU-20">
          <mxGeometry x="180" width="20" height="40" as="geometry" />
        </mxCell>
        <mxCell id="pFgveg-31IJwDg-pSHKU-11" value="" style="rounded=0;whiteSpace=wrap;html=1;sketch=1;" vertex="1" parent="pFgveg-31IJwDg-pSHKU-20">
          <mxGeometry x="160" width="20" height="40" as="geometry" />
        </mxCell>
        <mxCell id="pFgveg-31IJwDg-pSHKU-10" value="" style="rounded=0;whiteSpace=wrap;html=1;sketch=1;" vertex="1" parent="pFgveg-31IJwDg-pSHKU-20">
          <mxGeometry x="140" width="20" height="40" as="geometry" />
        </mxCell>
        <mxCell id="pFgveg-31IJwDg-pSHKU-9" value="" style="rounded=0;whiteSpace=wrap;html=1;sketch=1;" vertex="1" parent="pFgveg-31IJwDg-pSHKU-20">
          <mxGeometry x="120" width="20" height="40" as="geometry" />
        </mxCell>
        <mxCell id="pFgveg-31IJwDg-pSHKU-8" value="" style="rounded=0;whiteSpace=wrap;html=1;sketch=1;" vertex="1" parent="pFgveg-31IJwDg-pSHKU-20">
          <mxGeometry x="100" width="20" height="40" as="geometry" />
        </mxCell>
        <mxCell id="pFgveg-31IJwDg-pSHKU-7" value="" style="rounded=0;whiteSpace=wrap;html=1;sketch=1;" vertex="1" parent="pFgveg-31IJwDg-pSHKU-20">
          <mxGeometry x="80" width="20" height="40" as="geometry" />
        </mxCell>
        <mxCell id="pFgveg-31IJwDg-pSHKU-6" value="" style="rounded=0;whiteSpace=wrap;html=1;sketch=1;" vertex="1" parent="pFgveg-31IJwDg-pSHKU-20">
          <mxGeometry x="60" width="20" height="40" as="geometry" />
        </mxCell>
        <mxCell id="pFgveg-31IJwDg-pSHKU-5" value="" style="rounded=0;whiteSpace=wrap;html=1;sketch=1;" vertex="1" parent="pFgveg-31IJwDg-pSHKU-20">
          <mxGeometry x="40" width="20" height="40" as="geometry" />
        </mxCell>
        <mxCell id="pFgveg-31IJwDg-pSHKU-4" value="" style="rounded=0;whiteSpace=wrap;html=1;sketch=1;" vertex="1" parent="pFgveg-31IJwDg-pSHKU-20">
          <mxGeometry x="20" width="20" height="40" as="geometry" />
        </mxCell>
        <mxCell id="pFgveg-31IJwDg-pSHKU-22" value="" style="group;sketch=1;" vertex="1" connectable="0" parent="pFgveg-31IJwDg-pSHKU-1">
          <mxGeometry x="210" y="410" width="260" height="40" as="geometry" />
        </mxCell>
        <mxCell id="pFgveg-31IJwDg-pSHKU-23" value="" style="rounded=0;whiteSpace=wrap;html=1;sketch=1;" vertex="1" parent="pFgveg-31IJwDg-pSHKU-22">
          <mxGeometry width="20" height="40" as="geometry" />
        </mxCell>
        <mxCell id="pFgveg-31IJwDg-pSHKU-24" value="" style="rounded=0;whiteSpace=wrap;html=1;sketch=1;" vertex="1" parent="pFgveg-31IJwDg-pSHKU-22">
          <mxGeometry x="240" width="20" height="40" as="geometry" />
        </mxCell>
        <mxCell id="pFgveg-31IJwDg-pSHKU-25" value="" style="rounded=0;whiteSpace=wrap;html=1;sketch=1;" vertex="1" parent="pFgveg-31IJwDg-pSHKU-22">
          <mxGeometry x="220" width="20" height="40" as="geometry" />
        </mxCell>
        <mxCell id="pFgveg-31IJwDg-pSHKU-26" value="" style="rounded=0;whiteSpace=wrap;html=1;sketch=1;" vertex="1" parent="pFgveg-31IJwDg-pSHKU-22">
          <mxGeometry x="200" width="20" height="40" as="geometry" />
        </mxCell>
        <mxCell id="pFgveg-31IJwDg-pSHKU-27" value="" style="rounded=0;whiteSpace=wrap;html=1;sketch=1;" vertex="1" parent="pFgveg-31IJwDg-pSHKU-22">
          <mxGeometry x="180" width="20" height="40" as="geometry" />
        </mxCell>
        <mxCell id="pFgveg-31IJwDg-pSHKU-28" value="" style="rounded=0;whiteSpace=wrap;html=1;sketch=1;" vertex="1" parent="pFgveg-31IJwDg-pSHKU-22">
          <mxGeometry x="160" width="20" height="40" as="geometry" />
        </mxCell>
        <mxCell id="pFgveg-31IJwDg-pSHKU-29" value="" style="rounded=0;whiteSpace=wrap;html=1;sketch=1;" vertex="1" parent="pFgveg-31IJwDg-pSHKU-22">
          <mxGeometry x="140" width="20" height="40" as="geometry" />
        </mxCell>
        <mxCell id="pFgveg-31IJwDg-pSHKU-30" value="" style="rounded=0;whiteSpace=wrap;html=1;sketch=1;" vertex="1" parent="pFgveg-31IJwDg-pSHKU-22">
          <mxGeometry x="120" width="20" height="40" as="geometry" />
        </mxCell>
        <mxCell id="pFgveg-31IJwDg-pSHKU-31" value="" style="rounded=0;whiteSpace=wrap;html=1;sketch=1;" vertex="1" parent="pFgveg-31IJwDg-pSHKU-22">
          <mxGeometry x="100" width="20" height="40" as="geometry" />
        </mxCell>
        <mxCell id="pFgveg-31IJwDg-pSHKU-32" value="" style="rounded=0;whiteSpace=wrap;html=1;sketch=1;" vertex="1" parent="pFgveg-31IJwDg-pSHKU-22">
          <mxGeometry x="80" width="20" height="40" as="geometry" />
        </mxCell>
        <mxCell id="pFgveg-31IJwDg-pSHKU-33" value="" style="rounded=0;whiteSpace=wrap;html=1;sketch=1;" vertex="1" parent="pFgveg-31IJwDg-pSHKU-22">
          <mxGeometry x="60" width="20" height="40" as="geometry" />
        </mxCell>
        <mxCell id="pFgveg-31IJwDg-pSHKU-34" value="" style="rounded=0;whiteSpace=wrap;html=1;sketch=1;" vertex="1" parent="pFgveg-31IJwDg-pSHKU-22">
          <mxGeometry x="40" width="20" height="40" as="geometry" />
        </mxCell>
        <mxCell id="pFgveg-31IJwDg-pSHKU-35" value="" style="rounded=0;whiteSpace=wrap;html=1;sketch=1;" vertex="1" parent="pFgveg-31IJwDg-pSHKU-22">
          <mxGeometry x="20" width="20" height="40" as="geometry" />
        </mxCell>
        <mxCell id="pFgveg-31IJwDg-pSHKU-36" value="" style="group;sketch=1;" vertex="1" connectable="0" parent="pFgveg-31IJwDg-pSHKU-1">
          <mxGeometry x="210" y="640" width="260" height="40" as="geometry" />
        </mxCell>
        <mxCell id="pFgveg-31IJwDg-pSHKU-37" value="" style="rounded=0;whiteSpace=wrap;html=1;sketch=1;" vertex="1" parent="pFgveg-31IJwDg-pSHKU-36">
          <mxGeometry width="20" height="40" as="geometry" />
        </mxCell>
        <mxCell id="pFgveg-31IJwDg-pSHKU-38" value="" style="rounded=0;whiteSpace=wrap;html=1;sketch=1;" vertex="1" parent="pFgveg-31IJwDg-pSHKU-36">
          <mxGeometry x="240" width="20" height="40" as="geometry" />
        </mxCell>
        <mxCell id="pFgveg-31IJwDg-pSHKU-39" value="" style="rounded=0;whiteSpace=wrap;html=1;sketch=1;" vertex="1" parent="pFgveg-31IJwDg-pSHKU-36">
          <mxGeometry x="220" width="20" height="40" as="geometry" />
        </mxCell>
        <mxCell id="pFgveg-31IJwDg-pSHKU-40" value="" style="rounded=0;whiteSpace=wrap;html=1;sketch=1;" vertex="1" parent="pFgveg-31IJwDg-pSHKU-36">
          <mxGeometry x="200" width="20" height="40" as="geometry" />
        </mxCell>
        <mxCell id="pFgveg-31IJwDg-pSHKU-41" value="" style="rounded=0;whiteSpace=wrap;html=1;sketch=1;" vertex="1" parent="pFgveg-31IJwDg-pSHKU-36">
          <mxGeometry x="180" width="20" height="40" as="geometry" />
        </mxCell>
        <mxCell id="pFgveg-31IJwDg-pSHKU-42" value="" style="rounded=0;whiteSpace=wrap;html=1;sketch=1;" vertex="1" parent="pFgveg-31IJwDg-pSHKU-36">
          <mxGeometry x="160" width="20" height="40" as="geometry" />
        </mxCell>
        <mxCell id="pFgveg-31IJwDg-pSHKU-43" value="" style="rounded=0;whiteSpace=wrap;html=1;sketch=1;" vertex="1" parent="pFgveg-31IJwDg-pSHKU-36">
          <mxGeometry x="140" width="20" height="40" as="geometry" />
        </mxCell>
        <mxCell id="pFgveg-31IJwDg-pSHKU-44" value="" style="rounded=0;whiteSpace=wrap;html=1;sketch=1;" vertex="1" parent="pFgveg-31IJwDg-pSHKU-36">
          <mxGeometry x="120" width="20" height="40" as="geometry" />
        </mxCell>
        <mxCell id="pFgveg-31IJwDg-pSHKU-45" value="" style="rounded=0;whiteSpace=wrap;html=1;sketch=1;" vertex="1" parent="pFgveg-31IJwDg-pSHKU-36">
          <mxGeometry x="100" width="20" height="40" as="geometry" />
        </mxCell>
        <mxCell id="pFgveg-31IJwDg-pSHKU-46" value="" style="rounded=0;whiteSpace=wrap;html=1;sketch=1;" vertex="1" parent="pFgveg-31IJwDg-pSHKU-36">
          <mxGeometry x="80" width="20" height="40" as="geometry" />
        </mxCell>
        <mxCell id="pFgveg-31IJwDg-pSHKU-47" value="" style="rounded=0;whiteSpace=wrap;html=1;sketch=1;" vertex="1" parent="pFgveg-31IJwDg-pSHKU-36">
          <mxGeometry x="60" width="20" height="40" as="geometry" />
        </mxCell>
        <mxCell id="pFgveg-31IJwDg-pSHKU-48" value="" style="rounded=0;whiteSpace=wrap;html=1;sketch=1;" vertex="1" parent="pFgveg-31IJwDg-pSHKU-36">
          <mxGeometry x="40" width="20" height="40" as="geometry" />
        </mxCell>
        <mxCell id="pFgveg-31IJwDg-pSHKU-49" value="" style="rounded=0;whiteSpace=wrap;html=1;sketch=1;" vertex="1" parent="pFgveg-31IJwDg-pSHKU-36">
          <mxGeometry x="20" width="20" height="40" as="geometry" />
        </mxCell>
        <mxCell id="pFgveg-31IJwDg-pSHKU-54" value="Processor" style="rounded=1;whiteSpace=wrap;html=1;sketch=1;" vertex="1" parent="pFgveg-31IJwDg-pSHKU-1">
          <mxGeometry x="170" y="60" width="190" height="60" as="geometry" />
        </mxCell>
        <mxCell id="pFgveg-31IJwDg-pSHKU-58" value="" style="shape=flexArrow;endArrow=classic;html=1;rounded=1;strokeColor=#330000;strokeWidth=1;entryX=0.25;entryY=0;entryDx=0;entryDy=0;exitX=0.5;exitY=1;exitDx=0;exitDy=0;shadow=0;sketch=1;" edge="1" parent="pFgveg-31IJwDg-pSHKU-1" source="pFgveg-31IJwDg-pSHKU-54" target="pFgveg-31IJwDg-pSHKU-3">
          <mxGeometry width="50" height="50" relative="1" as="geometry">
            <mxPoint x="270" y="120" as="sourcePoint" />
            <mxPoint x="230" y="190" as="targetPoint" />
          </mxGeometry>
        </mxCell>
        <mxCell id="pFgveg-31IJwDg-pSHKU-57" value="" style="shape=flexArrow;endArrow=classic;html=1;rounded=1;strokeColor=#330000;strokeWidth=1;entryX=0.5;entryY=0;entryDx=0;entryDy=0;shadow=0;sketch=1;" edge="1" parent="pFgveg-31IJwDg-pSHKU-1" target="pFgveg-31IJwDg-pSHKU-59">
          <mxGeometry width="50" height="50" relative="1" as="geometry">
            <mxPoint x="460" y="240" as="sourcePoint" />
            <mxPoint x="390" y="280" as="targetPoint" />
            <Array as="points">
              <mxPoint x="460" y="260" />
            </Array>
          </mxGeometry>
        </mxCell>
        <mxCell id="pFgveg-31IJwDg-pSHKU-59" value="Order Details Processor" style="rounded=1;whiteSpace=wrap;html=1;sketch=1;" vertex="1" parent="pFgveg-31IJwDg-pSHKU-1">
          <mxGeometry x="250" y="320" width="130" height="60" as="geometry" />
        </mxCell>
        <mxCell id="pFgveg-31IJwDg-pSHKU-61" value="Order Mapper&lt;span style=&quot;color: rgba(0, 0, 0, 0); font-family: monospace; font-size: 0px; text-align: start;&quot;&gt;%3CmxGraphModel%3E%3Croot%3E%3CmxCell%20id%3D%220%22%2F%3E%3CmxCell%20id%3D%221%22%20parent%3D%220%22%2F%3E%3CmxCell%20id%3D%222%22%20value%3D%22%22%20style%3D%22shape%3DflexArrow%3BendArrow%3Dclassic%3Bhtml%3D1%3Brounded%3D0%3BstrokeColor%3D%23330000%3BstrokeWidth%3D1%3BentryX%3D0.25%3BentryY%3D0%3BentryDx%3D0%3BentryDy%3D0%3BexitX%3D0.5%3BexitY%3D1%3BexitDx%3D0%3BexitDy%3D0%3B%22%20edge%3D%221%22%20parent%3D%221%22%3E%3CmxGeometry%20width%3D%2250%22%20height%3D%2250%22%20relative%3D%221%22%20as%3D%22geometry%22%3E%3CmxPoint%20x%3D%22615%22%20y%3D%2280%22%20as%3D%22sourcePoint%22%2F%3E%3CmxPoint%20x%3D%22565%22%20y%3D%22160%22%20as%3D%22targetPoint%22%2F%3E%3C%2FmxGeometry%3E%3C%2FmxCell%3E%3C%2Froot%3E%3C%2FmxGraphModel%3E&lt;/span&gt;&lt;span style=&quot;color: rgba(0, 0, 0, 0); font-family: monospace; font-size: 0px; text-align: start;&quot;&gt;%3CmxGraphModel%3E%3Croot%3E%3CmxCell%20id%3D%220%22%2F%3E%3CmxCell%20id%3D%221%22%20parent%3D%220%22%2F%3E%3CmxCell%20id%3D%222%22%20value%3D%22%22%20style%3D%22shape%3DflexArrow%3BendArrow%3Dclassic%3Bhtml%3D1%3Brounded%3D0%3BstrokeColor%3D%23330000%3BstrokeWidth%3D1%3BentryX%3D0.25%3BentryY%3D0%3BentryDx%3D0%3BentryDy%3D0%3BexitX%3D0.5%3BexitY%3D1%3BexitDx%3D0%3BexitDy%3D0%3B%22%20edge%3D%221%22%20parent%3D%221%22%3E%3CmxGeometry%20width%3D%2250%22%20height%3D%2250%22%20relative%3D%221%22%20as%3D%22geometry%22%3E%3CmxPoint%20x%3D%22615%22%20y%3D%2280%22%20as%3D%22sourcePoint%22%2F%3E%3CmxPoint%20x%3D%22565%22%20y%3D%22160%22%20as%3D%22targetPoint%22%2F%3E%3C%2FmxGeometry%3E%3C%2FmxCell%3E%3C%2Froot%3E%3C%2FmxGraphModel%3E&lt;/span&gt;" style="rounded=1;whiteSpace=wrap;html=1;sketch=1;" vertex="1" parent="pFgveg-31IJwDg-pSHKU-1">
          <mxGeometry x="250" y="550" width="130" height="60" as="geometry" />
        </mxCell>
        <mxCell id="pFgveg-31IJwDg-pSHKU-55" value="" style="shape=flexArrow;endArrow=classic;html=1;rounded=1;entryX=0.558;entryY=-0.032;entryDx=0;entryDy=0;entryPerimeter=0;exitX=0;exitY=0.5;exitDx=0;exitDy=0;shadow=0;sketch=1;" edge="1" parent="pFgveg-31IJwDg-pSHKU-1" source="pFgveg-31IJwDg-pSHKU-61" target="pFgveg-31IJwDg-pSHKU-37">
          <mxGeometry width="50" height="50" relative="1" as="geometry">
            <mxPoint x="185" y="590" as="sourcePoint" />
            <mxPoint x="235" y="540" as="targetPoint" />
            <Array as="points">
              <mxPoint x="221" y="590" />
            </Array>
          </mxGeometry>
        </mxCell>
        <mxCell id="pFgveg-31IJwDg-pSHKU-62" value="" style="shape=flexArrow;endArrow=classic;html=1;rounded=1;strokeColor=#330000;strokeWidth=1;entryX=0.5;entryY=0;entryDx=0;entryDy=0;shadow=0;sketch=1;" edge="1" parent="pFgveg-31IJwDg-pSHKU-1" target="pFgveg-31IJwDg-pSHKU-61">
          <mxGeometry width="50" height="50" relative="1" as="geometry">
            <mxPoint x="465" y="450" as="sourcePoint" />
            <mxPoint x="320" y="480" as="targetPoint" />
            <Array as="points">
              <mxPoint x="465" y="470" />
            </Array>
          </mxGeometry>
        </mxCell>
        <mxCell id="pFgveg-31IJwDg-pSHKU-63" value="" style="shape=flexArrow;endArrow=classic;html=1;rounded=1;strokeColor=#330000;strokeWidth=1;exitX=0.5;exitY=1;exitDx=0;exitDy=0;shadow=0;sketch=1;" edge="1" parent="pFgveg-31IJwDg-pSHKU-1">
          <mxGeometry width="50" height="50" relative="1" as="geometry">
            <mxPoint x="250" y="350" as="sourcePoint" />
            <mxPoint x="220" y="410" as="targetPoint" />
            <Array as="points">
              <mxPoint x="220" y="370" />
            </Array>
          </mxGeometry>
        </mxCell>
        <mxCell id="pFgveg-31IJwDg-pSHKU-65" value="&#xa;&lt;div style=&quot;color: rgb(255, 255, 255); background-color: rgb(0, 36, 81); font-family: Consolas, &amp;quot;Courier New&amp;quot;, monospace; font-weight: normal; font-size: 14px; line-height: 19px;&quot;&gt;&lt;div&gt;&lt;span style=&quot;color: #ffffff;&quot;&gt;omcsMessages&lt;/span&gt;&lt;/div&gt;&lt;/div&gt;&#xa;&#xa;" style="text;html=1;strokeColor=none;fillColor=none;align=center;verticalAlign=middle;whiteSpace=wrap;rounded=0;" vertex="1" parent="pFgveg-31IJwDg-pSHKU-1">
          <mxGeometry x="490" y="205" width="60" height="30" as="geometry" />
        </mxCell>
        <mxCell id="pFgveg-31IJwDg-pSHKU-66" value="" style="shape=image;verticalLabelPosition=bottom;labelBackgroundColor=default;verticalAlign=top;aspect=fixed;imageAspect=0;image=data:image/png,iVBORw0KGgoAAAANSUhEUgAAAfQAAAH0CAYAAADL1t+KAACAAElEQVR42uxdB1yU5R//vjeYx96IKAiKgIIT994zszSztNI0tdT8N9x7W5Y2Lc2VpZaaWubee+NEQBAU2VPWMe7+n+fhjoB7D7jF8vl+Pu8HPLz33nvW97d/AjAwMDAwMDDUeojYEDAw1HzI5XJrAA4A7ADYK346lHiN/LQB4AzAvILbxQHIKvFvMYB8AM9KvJat+H8EOQDiFb8nK/6dpvip/HcKx3FyNlMMDNUHjg0BA0O1kzUhZEcFUZPLBUADAPUBuCn+ZgbAQkHW4hrw2EQAyFOQeZ5CQHgBIFYhCBCif674PVHxb3LFcRxXwGadgYEROgNDbSRsTkHKbgpNugkATwCNFORto7is6/AwEMJPV2j2hNgjAIQBCAcQpXgtluO4TLZiGBgYoTMwVDdxGysI2wmAPwBfAN4KbdtBYQ4Xs5HiRZJCuyda/SMAdwHcU7gBmFbPwMAInYHBYORtrdCufQC0KqF1uyvM5gz6QTyASMV1RXGR3xOYz56BgRE6A4Om5C1RkHdLxeWt0L4bsz1Ubdr8XcV1UUHysRzHSdnQMDBCZ2BgKKt9NwMQpCDwAAWJM3N5zUQ2gBAA1wBcB3ABQAQjeAZG6AwMLx+BOwFoA6C14mqpMJszAq+9BB+j0N6vArgJ4BYjeAZG6AwMdY/AGwJoAaAdgC4AvJjfu04jVxFwdxLAKULyHMeFsWFhYITOwMAInKF2I0mRLvc3gLMKgmfaOwMjdAaGGkjgEkXaWE/F5atIJWNg4MNdAP8C2MdM8wyM0BkYqp/E3QAEAngFQCdFGhkDg6a4CeA4gN0cx91gw8HACJ2BoWpInGjdvQAMV5jTXdioMOhreQE4DWA/gD0cxz1jQ8LACJ2BQb8kbg1goOLqzXzhDFWAJAD/ANgE4DwraMPACJ2BQXsSNwbQXWFOHwzAlY0KQzVq7YTY97O68wyM0BkYKk/kTRWa+BhFoRcGhpqCRwB+ALCT47h4NhwMjNAZGFRJXKTwi49RkLklGxWGGoynADYA2MiInYEROgPDf77xNwGMU1RqYyiB/Px8pKWlIy09DSnJyUhNS0NycjKSk5IRFx+P1NQUJCQkIDEpGRkZGeXey8nRERKJeanXRGIxXF1cIRIJUVBQCIlEAmcnJxQWFsLC0oK+h8DK2homxsYwNzeHmZkZrKysYGJiAmNjY0bsRcT+I8dxyWzFMjBCZ3gZibwhgNEKIvd4GcdAKpUiNTUVaYSkU1IQHx+PZ0+f4emzp4h++hSxsXGUpDPS0/HiRQYyXmQiLzenWp5VKBJDbGICiakJTEzNYCGRQCgSwcLSEtaWlnBxcYaTkzMcHBzg6uoCF2dn2NrZwcbampI/ERTqOCIBrFMQO8tnZ2CEzvDSEPkkAO+9DJHqmZmZSElJQWJiIsIfP8aTJ1F48iQSUVHR9HWiXaekJCM9La2CHSuAUCgEJxBUz7zJZPQn0dwVL1T4Hgkhe2sb2NnZwdbGBg6ODmjk2Qienh5o7O0NF1dXWFtZw8GhTi2DmwAWcBz3N9vtDIzQGRiR18Kvl5KSyqWnp+Hhw4d4FBqGiIgIPH78GM9jYxHz7CmSkpL5SbCaidrQQgAVANSQv4nEAvVdXeHm5gYPj4Zo3LgJmjb1QdOmTeHo4EA1+1qMPwEs5TguWIc9YwdAWTjJQ/G7LQDrMv81GUA6gGcAHio60EVxHJfGTh5G6AwMhiDysXWhDKvSp/3w4QPcvXuPat2PHj3CkydPEBkdjbycHMgKC0q9RyAUQSAUssVQGcLnBDAxN4eHuzu8vb3g4+ODli1b0svF2bm2me6TAKxSmOEzK9gnIgB2JXoPtFBc9bX87DAARJi4rahb/4D5+BmhMzBoS+Tk5P0AwMe1NX+ckE1KSiol79u3g/Ew5CHuP3iIhw/uq/qzq1HTlhUWQiaTVcoMToQL1deENZvoOQEkFhLUd6uPVq1aoU3r1ggMDEBAQEBt0eJvAviU47iTZQjcrUTv/faKFE1rQwwpgAQFuV9WEP1F8horlsMInYGhPCLnFFHrn9e2HHJCImFhYbhx8yZu376NK1evITw0DMmpKaXIm5Aix3EGJe/yzNUlP19kZAQTaxsYSyxgLLFEYUE+7/2EIjH9W05qSikLArlXTnoq8rOzIRAIigSDss+AcnzmnIC+r6rHw8jEFI6OjmjbpjU6dOiAdu3aoXWrVjU56p4Q5xoARwD0ANBf0f2vutIz0wDcAnAIwClWv54ROgNDWTIPALAYwJDa8sj37t/ngoODcf78eVy6fAXRUVFITUk2uOZNteoypnklREbGMLG0hKm1Lb2MLSwoYVs4OcPU1h5mtnb0MrG0gomlNUQmJhCIRPR9FSEvO0vltYLc3OJnIc+VmRBX/HpWciL9PSspEbKCAmSnJKMgNwc56WlUCJBmZkCa+YJeOenp6slfz+NYluBNJBbUTN+1axf07t0bQW3bol69ejWV2Gva+ZsN4IaiEt7fzDTPCJ2h5pKsscKMZ1ryDCcSur5KWCrM6/MATAFgXpPHIzo6Gvfu3cOx4ydw7tw5hIeHlY4w5wQ0N9uQpE20SzN7B5ha2cDU2gYSJ2dYutSDub0DrOrVh7mdA8SmZpSoCZGLzcjvpoBMRsYacnnRT8gUv8vkinmo2OTOcQIeri19HHAlTPBE81a+T/k7BALkZWVClp9PBQRC/AXSXPpaTmoKJf+MuOfITIhHVlICslNTkEcIPy0Fmck8wYF6IPuyY+3m3gAtWwRi+KvD0blzJ3h4eLDDoHKIBPA9gM2M2BmhM1QfcYsUkbCNFEE1jRU+OusShF6oPP8AZBDFC0Ciwqd2RxEd+0STjSyXywcBWF5TzetEiyMEfvLUaRw7dgy3b91GbGxM8d/1EbDGR9yEtE2sbSg5SxydYOPekJK1df0GlLiNzC2KtGxrawgEQshkhcrxLEXU9KfS7F2TDhDFmCkFBCIU0N/pz9JCANXe01KRm5EOaUY60p8/Q9rTKKREhiP9eQwVArKTE5Gb+aLUZ+gyNwX5+cWCg72DAzXLv/LKK+jZowfc3d3ZgVE5Yif7ejvLq2eEzmB4ApcoImDbAugMwA+Arx58cmGK1JeriujYUL7SlooKb7MUQW/imjQ22dnZuHv3Lvb99RdOnz6DW7dv/+cD10EDlys05JLkLTIypsRMNG07Ty9Y128Ie6/GsHBygbm9IyVzozKR2fJCGSVqIgjURLI2BPkTcifkzAlLa+GFeflUi89MiENGbAySwkOREvYIiRFhyExKoIKArpp8SXJ3dnRGr759MOqNkejSpcvLUPBGV5wDsLBkQB8DI3QG/RB4EwCdFJGx/orL0HMZq9DeiRZ/ShFIQ4SHr2uSVi6VSmkg2/4DB3H06FH6uzJATCgSa2XO5fPTGkksYO3WAI6NfeDY1J+ay8m/LZxdIDQyouSl1Lhl+QU1VsOuSRCIxMVkr7RQ5GVlUi0+PeYpEh49QOzd20iOCEN2UmKxcKaNBl9M7pwA/s2a4ZWhQzFmzNvw9vJiE6EeuYr0uxVMW2eEzqA9iSvbh/ZX/PSvAXOXBMCqpmjlISEh2LN3Lw4e/JtGpxfkSYs1Z60IXCEEELIwtrCAdT13OPk2g4N3E9h5NYZtw0Yws7OnRCIUGxUTt0xNdDmD9lq9coyJUFQglVKSTwi5j4SQB4i7dxvP79wqRfCaCm7KtWJlbY2+/fph7Ntvo2/fvtQKwKBWW5/IcdxDNhSM0BkqT+TKOucjWftQVaSnp+Pvf/7Bjh2/4dz5c8hUNCXRhsSVhzohcDMbG9h7+cDFvzkcmvjC0cePms6NzCUQisUozM+nhM807uojeULaApEI+bk5xQT/7MZVesWH3CuKtJfLNNLelYIcuXeHjh0xccL7eG34cNZ4hh+xAGZxHLeVDQUjdIbyiTxAUVVtFGsfqoobN25g565d2LNnLyIjHmunlZXwp5pILODo4w9nv2ZwDWwFZ78A6g83trCkWmFhXj4zmdcCgifCljTzBV7ExeLZjSt4cu4Unj+4g7SYZxqRe0kLjX/zAHw4ZTJGv/km87PzYxOAOax1LCN0BlUitwPwmaKyGiPyEpBKpThy9Cg2bdqEk6dOFWnjGga2KbVw8j5b94Zwbd4C7m07UBK3dKlH87llskJG4LWc3JUm+sL8PJoyR8g94uxJPLl0FplJiRoJgMo109TXD9OmTWXEzo/LAN5jJnhG6Az/kflIAEsAeLPR+A+JiUnYu28vfv55I25cv0Zf08SMqjyQyQHu2MQX9VsHoWHHrsVmdAJy8L8skeYvGwREczcqEvrSoqMQfeUCQg4fxPPgG0XpcZUUCpXrqFXrNvj44+kY8frrEIvFbID/QxKADzmO28WGghH6y66Vr1L0A2coQeS/bN6MDRs2aGxWV5rTlSTeqFsvuLVqC2ff5tSUXlhYwALYXkIIjYyo5l4glSLx0X2EHj9MyT0lKqLS60tJ7N179MTs2bPQq2dPNrD/gWyo6RzHfc+GghH6y0jm/RRpX03YaBQhJSUVP2/cWIrIKxPkVlzUhRPAoZE3vLr1QoMOXeDiHwgTK2uFKT2PaeEMRWvK2ISmx2WnJFNz/L2//sCzm1cpYVeW2Mm6fGPkSMyfP4+lu5UGIfV1bBgYob8sRC4CMBfA7JpWjKXGELmGplCJvQMatu+Cxr0HwK11ENXE5XI5I3GG8g9AoRAiY2OqtT+7cQX39u1G+Kmj1BxfEbErg+ecHZ0xa85sTJr0ATPDK4ZGYX5nmjoj9DpP5k0BfKfIJ3/pIZVKsWXrVnz55VqEhT7SiMgFQhGcfPzQpN8geHXrDTtPb6p1kcOZkTiDxlq7qSktZhP/4A5u/r4VoUf/qRSxK108nbt2w4rly9CxQwe975GkpCTcvXcPz549Q1RUNJKSEpGZWbrBjrW1Nb0aNHBHw4YN0dTHh3aiqyYhIxfAmxzH7WMrixF6XSXz0QBW19a+4PrGoUOHsHTFSlw6f67oQK3AtK7UiEwkFnBv1wn+Q15Dg3adqEm9MD+PauMMDDoTu7EJ/VmW2Ctan0TIlFha4pP/fYJPP/kfzMzMtH6GyMhInD5zBlevXi3u/vciM/O/TI0KYGRiCnMzM/j4+iKoTRvamKZb126wtbWpyqF8DqAbx3FhbFUxQq9rZD4HwFI2EkVV3RYsWoQ///iT+r0rOiiV/nGJvQN8+gyC/7ARtNyqQCRi2jiDYYldwCH+XjCub9uIkCN/F/vOK1qrRFv/Zt3XCAgIqPTnxcXF4ejRY7TGwrVrV5GUmFj8N01776v0G+AEcKtfH31698LwV1+lrWWrSHO/DKA/x3FpbEUxQq8LRG6s6A3+2cs+FtnZ2fjq66+peT01JblCU6bycLR0doX/0NfpZevZiDY1KZDmssVVFw+kEg1cSnZsK3ePGbjJjVJjj7pyHhe//xrR1y9V6BoixG9lbY1Vq1Zh4oQJ5d4/ODgYW7Zuw5979uBZdFQxAYv0SLil+hFwArRq1QpTpkzGyBEjdLIkVBJbOY57h61uRuh1gcw3ABj7so/F2bNn8dnnM3HlcsWHYUkibz58FL2s3dzpIcnM6nWLvKlQp+i8Rohc+iKDRp6Tn3lZmbS0a256Gq0AVxam1ja0HK+JpVXRTytr2qZWIBIpCgMVkby+0hPFZmbUInR3705c2fQ90p5FlyuUKn3r740bhzWr16iYuwmRr//mG/y2a3dxy1htyhZrRe6KMQlo0ZK6B94YOdLQtevf5zhuI1v1jNBrK5mTsf25JuWXEw05N/c/H5xQKKBVrwy5kTMzM7F8xUp8uXYtbZ5R3oGlPGjIQR342psIGPE2bBt6MiKvQwRONG9CuIS8c1JTkBH3nPZDTwh5gKTHochKSqSv56SnIi8zs5h4yoOy57yxxIK2qrWu34BWAXT08YXEyYW2rqWCYkGBzuuIfAcjUzNK5lc3fodbu3+lz6huXSvXdKvWbbBp48/UBB8dHY01X3yJLVu30IqHmnaLU5rTeZ9PA7M8SmSJ9B8wkAb0aeIi0BBpANoyfzoj9NpK6EsBzKmOz05MTEJ0dBSu37iB8PBwRD99irTUNCQnJ1NSLyZ0kQg2NjaQmJvDxcUZvr6+8PPzg2/TpnBxcdHZx3bh4kVMmzadVnir6NBS+iZ9Bw1D23c/gL13E70cwAzVD4FIDLGJCfJyspER8wzP79xE9NWLSHz0EKlREcXa6X+nkub9zovrEJQAWU827g3h1NSfVgd0a9kWVvXq6yUTQtkiN/LcKZxbtxqx94PL19bzpHBxqYfRb72Jnbt2U9N6ZYm87HcjAozQxARiE9MSYyxCQW4OFYKKe/5rUFVRGdC3cMECTJ82zVBC/jkAAziOy2S7ghF6bSLzKg+ACwkJoQE1Z86ewa1bt6kWUKilqdHK2hrNAwLRqmVL9O7VE+3atdc4OpZo5EuWLEF6Wlq5WrnSLNmoS0+0Gz8Fbm3a0YO2KoicK3FoscA6/Y+tyNiYmr3TY57i8eljiDh/mkaOZyYnFzfGMbSJuWQTHom9A63d37j3AFqzwMTamtbt18UkLzYzQ25aGi7+8BVu7NhcrrZesvhRRf7xkv9XYmdHu/+5BrSkrieJkzN1LRhblG73IH2RQS0bRGgiglLsvTtICg8prl9f2eDTIUOH4vvvvkO9evUMMSXLOI6by3YII/TaQubDAOypirFNT0/H3n378Mcff5ZqH6prQE1JHxu5l4eHBwYOHIhXXx2GLp07lyu9x8TEYMYnn2D3zp3lPofyM8gB1WHiNPgOGU61noKcHL2StdJHKxAU/bswP/+/w0vxHZW+XKWmw3EcrSynbx/sy0LkRHPMy8rE0+uX8eDgXq2aohhkbyrXNSeAU5OmaDrwFfj0HQxr9wY6EbtAJIZALELYsX9x+stltJSstoKK0gRu6ewK9zbtiy0LhMRp6VqhiJYuJgKoXCYvY9jgitay4v+QvUSEKTIPEWdPIurSOaq9V5hXnyelzWi2b9tKg+f0jCwAvTiOu8x2CyP0mk7mDQGcBOBhyM8h2vfmLVuxY8eOomIsBj4olVoOOaQ6d+qEd8aOpeRetuvU2bNn8cGkyXj44H75WnmelJoNm7/6BtqOn0LNoPm5OTppySWbcCgP55y0VKQ/i0ZWciKyEhMoyZCfBLkvMqgJuEhzMYKZtS393cTGFqZW1jC1saXNWyycXWFu71Dq/ixVTj2R56SmIPz0Mdz583dqWlcWABIYNuBKJ+L0H/o6Ake+rfM6NDKXIDUqEidXL0Lo8X81InXl8zj5+MFvyGto3Ks/LF3rFdee10XYEBkb0++V8PAe7uzZiZB/91eYV690EfyyeRP69e2r7+G/rMhPl7Kdwwi9ppI5GcuDAAYaUiP/ccNPWPf1OsTGxlTKjGYQDadEn2hC7sbGxti4aRM+njGDWgkqChAih1bXGbPh2aWHTn5yZT1uco+M5zFIefIYCY8eICk0BMkR4ZTI8zJfID83V2P3AyEhI1NTGEksaJCenacXnP0DYe/VmHZqM7dzKP7sl93PLzYzQ352Nh7+8xdu7dxG/cnarM2S5vESaicEAoFK+hrNsZbJVP+/hsKt0sxs7eaOoHGTKbmLTE21thSRNUnW2uWfvsHln7+l36ky1jIn32ZoNfpdeHbuQcsWkzWrT8tQyYyC+Pt3cWXTdwg58g8dQ3XPp/Sr7/j1VwwZPFjfy4ZFvTNCr9GEPk3RaMUgOHDwIObMnYd7d4I1NqnzBQyVPTQ1DUJSahSdu3aDt1cjbNmytcLDgRzwLUeNRbuJU4sOrRIBepocmAKRiGrbyY9DEX3tMqIun0di6EOa7lSykpamxTj4BJCyxEG+g8TRiZK6V9decGsVBBsPT/o5uvpjaxtoYBgnQOSF07j807dF+dmVJPJSbh0FCXt6esLNzQ0eHg3p766urnBydISTkxPMzc1LvT8rKwuJSUlUyH3yJAqhoY/w7FkMnj59irDw8FLroDLPoxQmGrbrjM4ffYJ6rdpqbYlRWiseHvoLJ1ctopH85fnVJQ6OeO3H7ajfKghZKUkGt/7QErdApVwEZFwkFhL8sXu3vjX15wBachwXz9iDEXpNI/NWAM4DMNH3vVNSUrFg4UL88MMP5QbcqNN0CKmRA8OYapq2lAyLD5OCAkgzM2iOb25aaqloY02iYyvSisj/sW3giV5zllCtXFPiKw6wkstpZHTEuZMIO3EEyeGPip+5Ks26ZQOtXANbw6fvILgHdaQm3LqeZqckrNSoSJz/Zg0e/nugUmuzJImT9dLU1xeBAQHo0aM7WrZoAVfXenBwsNd5vzx9Go2bt27h5MlTuHLlSrFbqjLkrnQHtZ84Fa3HTqACpLZFjMiei717G4fmfIz4kPvlkrqDdxMMXLmeRuQTYbWq5vBFfCxOr1mCewf3qN3DSvP7v//+o++0trkcxy1jDMIIvSaRuTWAE0Ta1Pe9yWE0cdJkBN+6WemqakTbtnVvCGe/Zqjfpj1sGnhA4uBEi24QQi8iRhnVrArz85CbkU5TXbJTkpD2NApx94IRE3yTmq9z0lIrreGU90y+fQah28yF1EepyWGlPHSkLzLw9Nol3N+3G5FXLxQ/V3UGWPFZPxy8mqBJ30HwHTgMdo2862R9eaKVE4T8ewBn162qsLhKKQGIEyAgMBAD+vfHwIED0CIw0OBVyogGf+36dezZswd//3OouBJbec+snFPv7n3Qc9ZiGjSnjTVJqQ2/iH2OQ7M/xpPL59Rrwgqh99Vvf6Epm9p+njbzKZfJcXXTdzj/3VoqNPMJxuT5/JsH4PChf/QZ/c60dEboNY7Q1wGYqu/77vjtN3z00VRaIrUytaOJpujZpSftOuYa2ArmDo7Ffkeiiasri1my1KayYhc5TJTm7EdH/0H8g7uV7hNd8gAgz93po0/QZuxEGoFbWXIrSeShx/8t8svevU2/p6YkXqrkpUY7Qws3hIK4iJbuN2hYcWEcfftDqwtiMzPq1jj9xVLc2be7iLAqKH9KYO/ggCFDhmDUqFHo2qVLtbUYTUxMwv4D+7Fx46aiioUVCKvk+YmQ1mf+CtoEiK9aXWVJk+ypY0tmU024PFJ38QvAsG820YDMqipvrCyWc3vXdhxZNLNcUh8ydCj27tmjzzz1TzmO+4IxCSP0mkDm/QDs07epfdXqNZg9e3a5Pmml+bJknXOijeurfagy4IwcRDG3r+PB3/sQcfYEcpWpcRWQubWbOz0IiYCRl5Nd6echGg0h/vCTR3Bl4/caBVjxkbeJxALWZuawsLaCs4sLLaBjJDaCs7MTxOIibTM/Pw9xcfHIy89DbGwcbYqRmpSMzNzs/1IBNfDJlyxd23L0u2gxcgyMLS2rTOsyBIwlFngefAP/zvukXPNxScHGw7MRxo4dizffHAVvL68a813y8/Nx8O+/sXz5Clr0qLyYFBoYZu+APvNXUuuLtuZwgUhMLWNn1y7H1a0/lUvq9QJbY+jaH2msRlVaeIzMJQje/SuOLplN17A6Uv/iyy/xvxkz9PWxdwG0YRHvjNCrm8zJjjwNoJ0+7/vpZ5/hizVrKvRJm1rboNnQ19Fy9HuUyA1p3iUka2wuwaUf1+HEqkUVVnxzb90e/RavoWbnyh6ASj95zI2ruLhhPR6fO1WcKlchiZfwyzo6OCKwRSACAwPh06QJGnk1QiNPT1oRTyQSVahZEIGgoKAAqampiIqKwoOHD2nRntu3g3Hn1m0kJCcVm9grW6iDHNAdJ39M4wdqY8obOejvH/gTJ1ctpPnkFWUxODs648NpH2Hce+/B2dm5xn6v7Oxsqq2vXLmKZo2UFxhmZGyMPgtX0VRLbTV1gaLWwZkvl1ZI6o269MTg1d9CbGZepdYdMtc3f9uM48vmKQxVApU1bWEhwYnjx/WZoz6Y47i/GaswQq9OQp8M4Dt93nPmrFlYtXKlWjJXHpgN23VGl+mfo16LNlXipyXaWdTl8/hn9nS8iIstV9DwHzwcPWYtonnclU39UVbburr5R9zc8Uule09DUQazRWAgevTogS5dOqNVy1ZwcLCX63ttE6JPSUmlBXzOnTuPI0eO4NGjR5SwK1vWts2Y8Wg3YSo9NGtDtzia6mRkhJvbN+HUF0vLTcFSumTGjh2DuXPm0GJEtQVEYPt85kwc2L9ffWCYgtT7LfmC5onroqlXltTJXuq39MuivV9FQqDS3XXx+7U4s24V7/ORZ+veoyeOHP5XX+6TDRzHfcBYhRF6dZG5E4BbAFz0dc/167/BtGlTKzxQ2o6bTPNllbm/VSGxR1+5gP0zJqrVzpSCRtuxE9BlxmxKbpURMpSHx7Prl3FyzRJq2i/PMlE2D37woEEY/uow+Pv701z4qkR6ejouXb6MHTt+w+HD/xb1rq5EZTz31u3Ra+5S2jikJpvglRaTyz9/S1Ob1Aktyu8V0KIlli9dggEDBtTabb1q9Rpu/oIFapsIkT1oYm6OIWt/pNYWbedPE1JvP34Kun4yt0rXirKJzqFZ03l9/so5/2XzZrz7jl66okYCaM5qvDNCry5CXwhggb7ut3ffPowYMbLcYJSSfjxdq6ppQuaxd27iz0lj1JI5NSvLZOg2YxaCxk+hRF6ZZxNQ4uZw67ctOLd+dblaufIAIWQ/cOAA6pft07u3SqW66kJkZCR+3rgJmzduQlxCXIU+WUtnV/RdsBJePfpWSYqSrmReXjoT+dukSZNop66aMh+64PiJExjz9li1Jnjl/L3243Y4ePtobWmpDKkrY0L6zl+OVqPf09rUrw2ERkbITIjHHxNGI/FxmMp6JuPg3bgJbt64rq9578lx3EnGLjrOGxsCjcmcrN6NAKz0cb/g4GAMH/4a9ecJS+SIl9w4tg08MWz9Rnh06lZEAGpaJ+oTIlNTJIU9wl/TJyJdzeGmDJzpt3AVWr09rtJkLjI2od/jxIoFuLhhHWSFMgjLIUCOE2DwkMH4/vvvMGvmTDRt2hRGivSpmgAbGxv07NkDI0aOgLGJCR48eIDszBf0uctWOCOabk56GsJPHIa5nT3qtWhN68ZXxZxWFmJT0yIyX7uiqN2pGiHTxtYOv/yyCZ9+8kmNmg9d4Onpib79+uL48RNISoin88U3f3F3g+HVow91R2kjXBOy5gRCNOzQBZnxsYi9F6zyWcq18+zaJTj5NYd9o8Z0rdDgTIGQXuQ+BjnnCgtpNURzeweEHjvEu47J+NSr54a2bdvo4yPjFy1adJwxjG4QsCHQGMMB1NfHjTIzMzFu/PtFqWllCE0gEBST+SvrfoZL85ZVJqET6fxF7HMc/HSK2ipSxWS+eA2tg13ZYC+alxsfiwP/m4Tbf/xK762OMMjVuWs3HDlyGPv/+gvdu3Wr0QvD3d0dK1eswMUL5/Hq8OHUqlCyYlnxGBgZU/Pt4YWf4/rWn2jKEFdDap0bmUtw54/fKJkLyyFz/+YBOHXyBEaOGFHnNri/nx/27t1DNVB18xd7Pxhnv15ZJLRpOXfKYLdes5fQnHe+zyLjn5v5AkcXzaKFfMjelGZmICcthf4k/yZCBRGS9Q0idHv37Ae/IcN5nw2cAOvWr6fuJz0gQFE+m0EX6xobAo20c05RRKa7Pu6njGhXZ9pTknlV+lsFIjHtq7z/44mIuHC6QjJvNmxkpc3GYjMzpEQ8pv748lKfyHd3c2+AmZ99hgkT3q+2vGVdsXnLFnz22WfUv67OpErQ47P5aDVmfLX71AmZR144jb+mjkdeTo5aMm/fqTP+2Pm7odpr1hjcu38fQ4YMRWTEY7U+9UErvtZoD6izWGUlJ2Lf1PE0jkTdZ7n4NqOpbJkJ8cXBmOTfDo2bonGvfnDybU5T4/QZJEsEhpTIx9j57uvITk1VWRNkPejJlx4PwI/juGTGNIzQq4rQAwBcI9yk673Onj2L3n370Y1adpMQwjS2sMDrP26nkexV5WdVBsMQbUCpPfORECcQoM+85QgY8Valn41o5qmREeWSecl+zF988UWNyl3WFiEhIZjwwSScO3O6XFIfuOJrnaKndQUhlfSYp9j9/ptIiX7CGwNADu8+ffth65bNNTodTZ+4cuUKBg0ejKQkVSsa2bvW9dzwxi+7aWc0XYiU7I/k8FAar5L2LFotqSsr7pVYQEXCmIkpfAYMRZfpM2lRKX21IVYK4me+WIpLG79TeS49R7x34TjuHGMaHRQyNgQaYZA+yFwqlWLu/KJoWj4tiLzWe85S2ge5Kg94Io1f3fwjbv/5m1rtubCwkB4aGpE5IYun0dSEr47MaWqXWIyVq1Zj/19/yesCmRP4+Pjg0N8H8dbbY3jNlkQ4ImN6bNlcmk0gNnApVHWCXGFBPk6smF/kYlFD5p27dsOv27e/NGROEBQUhC+/+JK6wMr6q8k4EfK9+OPXOrtMCAETTbvf4jWUnPl84+TzyN6hP5UX+beRMQ1MvbN3Jw1iI4KBsgGLPiArKECzV0fRwFxZGbeaUCTGhYsXadyIHtCFUYyOZzgbgkpr5yJFZLvOCbZbtm7Ft9+sV0tsQe9+gLbvTapSMjcylyD06CEcWzqnqBoax/E+W6cpM9Du/Q+LyKkSgVxFZS+z8PdnH+HZratqv7OLSz3s3Pkb3hk7ps5ZjoyMjPDqsGHIlUpx7swZlWA5IsCRuY65eQ2NuvaiRYOqsviMkZk5bu3YjGvbN6qdn1at22Df3j1wcnJ86fZ+QEAA1dCvXL7EGySXGBqCeoGtaItdWb72RWAK8/NoqVmxqRnCzxxX+awKtTOhiManxNy6Bo+O3WBiaa2XoDkaIOfgiOTHYYh7cKfUc5F1nC/NhVv9+ujSubOuH5W5aNGinYxtmIZeFSBqic6lkVJSUrF69Rp+KV1Ryzlo/Ic0yKyqQDToxNCHOLl6ETXrqUtRCnz9LXSYNJ1qc5UhHKXWcmLlArWNKZTpLwcP7td3e8Yah5UrVmDW7Dm8vdnJ2BDtmMwB0YKqKkiOzH38w3u49NN6XgJRxjP8un3bS6WZl8WihQtpICCflYW8dnXTD7SLoK7zlpeTjZZvj6MV6XgD0SqaTyNjagU7+/UKmhaqNysOx8Gn32CqkfPhyNFjtKSujmiqaHbFwAjd4AgEYKnrTX7//XfazpGvWIORiSm6/m82TKytdS73SP3hInGpi3cBiMQ0l/b4snlFvjs15tZGXXqix+cLaGemymqPRqZm1IR/Z+9OtWTe1NcP//zztz7LSNZoLF+2FNM/nqE2ejr0+L+4u3cnLbhTNZYnGc6tW0XrDJR1/yjX5M8/baCug5cZtrY2WLN6FS+hkXmLunIBUURo1bHAkVzRRKnbJ3OpcK8tqT86egiR507pzYVDFIx6ga1h79VY5ZnImNy6dRNPoqJ0/RgvAI0Y1TBCrwrobE+SSqU08pkPRGvzHTyc5qXqEu0sNDKi5nOCrKSE4isnLYVqYzTFxdS0mODJAXTx+7XlatBOPn7ov/RLiExMKi1okM+IunweF79bq1bzI2S+f/9fqCv+8spi9aqVGPHGG2rSlES48N2X1GJiiFSkkiCHffjJowg7fZx37smanD9vbp23nFQWZByGv8afwkXG6savv1B/s64ozMuDma0des1eTN0vMi3cL+R5rm39mZ4l+rD2ECHDxMoa9Vu2VVUeBALaxOjmzZs6GwIAtGArjRG6gbUYmq6mc/WEI0eP4saNGyqHJ9mwZOO2HjNe6wOBEDQ5oJPCQ3F6zWLsHjcKO98dUXztem8kDZg5tXoRldylmRm0aET4ySO4tm0jr+ahfK6+C1dp1PmJHCDS9HScXLWIN/CPpuC41MPvv+146cicEqlYjG/Xf8NrwiVjRbTliz98VdS33kCmdzpHGRm4tGE9b2tZZfTyZ59+yg6AEli0YAGsrFV901RLv3wescE39RKQRoi4fpv26DR5RnEzIE219Gc3rxaVU9ZT0R+yHj06q8/YvX79uj4+ph1bZdpDxIagUnAE4KvrTXb89hvv4Uk2rN+AV2Dv3UQr7VzZb5lodrd2bUNOWqpSdC71/xLDH9Hc8iubN8DBuwk8O3VD+OnjaptuyGQydP/fXBptr0lRG1o29KdvaPENPuHFxNwcv2zeRIONXlY4ONjjxx++R7/+/ZGdlV1K6FGaTP1fOatTzfCK5ujBgT2IfXCXd44klpbUxFxbawAYCj4+Pnj77TG8Qa1ECLr71x+o16qtXj4rLycbASPfRtTVi9QVU5kWwmWfJ+riWRogpw8QZcOmgSeNdufLSb9z564+PsaPrTKmoRsaZJE56XKDmJgYnDxxQsX8TCR9E4kF/IeNgLxQppVmnpeZSTuhXdywjv6uTGUpld5SIsWFbMT4Rw9pXmnKE/VpSq1HjUUzDdtF0iCr+3dxY8cvvKZ2IrwsXbSQmXEBdOzQATM//5xXAyssyMfVX37Um8m0rHZO1smtndvUCpiTJ016aeIaNMX4ce/RPasSQc4JEHHuJNKio9TGrGikERcWUstZl2mfUxIt0CLoLCE0hGZQ6GMNEUHP3N4BFk6uvGs2PiGBVr/UEU5yudyOrTJG6IZEe11vcPrMGVoxrKxUSw7u+m3a0ypPmjZ6UG7So4tnFkvw6jqVqRCvguDVRbTXC2yNTlM/09h/J5fLcG3LBmol4KsqNWToUPxvxgw5W1JFmDZ1Ku1UVtb0TubmyeVziDx/WudAKz7tnBAPX00AQhoeno3w8fTpbHLUICAgAEMGDVTJViB7KiPuOTV1C430Y9kgZ4K9dxN0nPI/LSQ3ATKeP6PNnPQBucIFZ+HiyvtZCXHxSElJ0fVj7BQWUQZG6DWX0E+eVN9IqEnfQeCEmk+F2MQUd/b8hgeH9mtsjlO7aWUyuml7zlyocbQ90c5jg2/SZg5lffJKv/kXX3wBVqHwP0gkEixetJCOF1/O8N19u/SSDlVSCCT3e/DPX/y+WbkMU6ZMfqlT1CqD0W++qeLSUoII1/oIjvuP1KXUUtaoc3etot71CblcDktH1bUhFAqRnZNFm0zpCFMAZmyFMUI31AK21tV/ThZ5cPAdlQOA+irtHeDavKXGB4DQyIg2a6BBTZz+ppFoHe0nTKUlZ7Xx3d7auY0Gwqlo/nIZPv3s05cyCK4iDBk8GD179lTV+IyMEXXpHOLu3lKb/6vxhhcKkRwRhujL53mFLjf3Bhjz9hg2KRWgV8+e8G/WTNUMzgkQdy8YGc9j9GJ2V2rGZL93mfY5NfVX2moml8FIYgGBQKjH81AGCY+GTvZ7enqGPhq1iPXVyZIROgMfGgBoqMsNYp4/x/2QECrFlib0Ampqt2ngoXEdaIFIhDt7fqcmPpGeApeU+eYtR7+rsZmO+s4f3OHXzhWVxiZOeJ+tJjX49NNPeGMOiHD08J+/1LaX1RRESHh86ijt4MUndI1+cxQN2GMoH2ZmZujXt49KDALZi5mJCYi7H6w3szsUpWGd/QPQcvR7GkW9O3j7wNjKSq+VB9VWsJPrrZWrEVthjNANBX9dTcQPHz7kP0ABuDQL1NjczgmFyE1LQ9iJw3r7ksoUNaIFUPOvhgcAETAe/L2PXzvnBJg9exY9BBn40b1bN7Rp00bVpMoJEHHhDBXcdNX4aKpa5gtEXjjLO/8SS0uMeuMNra1QiYlJtBIiucjxXtfnrG/fvlRAKusqIYT7/PYNrYJcyyV1qRStx75Py8NWKkCOE8Czc3feMs41HHnsRGCEbih463qDsLAwtX9zbKK5NV9kbIznd24iNfqJ3nzn5BBqO3YC1QI0Dc4jRPMiPpamwJWV3glBBQQGYuCAAWwllQOhUIi333pLda7FYtr9jBCErhqfQCikHdUSQu7xpKoVoEWLlhqlEhIC37hpE0aOGoUOnTqjY6dO6NS5M726dOvOfTR1Gk6dPq2PkqA1Eu2CgmisQSGP8BsTfFPjfVThHi3Ih8TeEe0nTq2Y/POkaBjUER6duum9jHShnr8X09AZoVclGup6gydP+EsimkgsYOniqpUknxQeqrcAGWVUe8vR72kVEUuI5tmNK5R4+LrHvT9uHIz1HKldF/HKK0Ph7Ois6iOVyxBx7pTuQoPYCE+vX6bWIj689uqrlbqPVCrFqtVr0LJ1a7w/fjx279yJ4Fs3aUnjhw/u0+vcmdM0V7tXr97o2qMnDh06VOfmSyKRoEOH9iqmZiLUpj+LQlZSot786MWqa042GvcZCM8OXdTuf7lMRmNzukz/nLrC9Glu5zgBshITeD/TyMQUJiY6VzeUA8hipwEjdENB53DfBJ4NQAusWNvAxMqGBppoJqkXIDM+Vm9fkGhrHSZOhbGlpVabn6P5t6dUDjZlZDshKoaKUa9ePXTp0U3VR8oJaAet3LQ0naPdY25e4z2MiXDZtWvF3StDQkLQf8BAzPz8MzyLjvqv5oGaiwh4l86fw+AhQ/H5zJl1Tltv26YNryUkNyMDyY9DIRDrt3YX2Z8iY2O0HTdJfYvjgnwEjhxDC0Lp20rAcRwyEuJUn0suh6WFBJaWOre7IBpFEjsNtDzL2RCUs3mKWqbqHHH5IkNVI5LJZDTtTGRiQhueaAqZng5GIuX7DhgKzy49tYpqV5rbY+/cUo22l8vQs1dPSlSaIDMzE9euX8fdO3eRmJSEpKRE2Ns7wM2tHvz9/dG6Vas6q/H369sXu3ftLq1ZC4V4EfccKU8ew6VZCxRoI3QJhchKTkRyRLjKPFEC8AmssAHLjRs38PqIkYiMeKyRq0fpZ169ahXCw8OxdcsWqt3WBQQEBFDNtLCgoFTsCNlXyZGP4d2zHwr0/Jlkn7q37YDGvfqpTVmNvXubavN6JXOhENkpyXgR+5xHQSmAg4MjrKx0bpaWRo5Mxj6M0A0Bog6Z6yoXpGVkcDxqEU0pMTIz11hDF4hEvKkjGj+YIue83YSp2pt4xCKkPomghxdftP2wYa9U+l7R0dHYvGUrduzYgcgnT3hNiuTwbNy4MTXjv/XWW7QLVl1Cp06dILGQICf7v+BC8jM38wWSwh7BNVC76m1Ea8xOTkJaTLRKtkURMTUvV0iKjIzUisz/MzII6Pv27tkDa2tr/LRhA+9z1DY09fGBraUV4hITICoTDJrxLBqFBrJIcJwAbd/9AJEXz9KqfyWFCaFIjKdXL9KaEG6tgvSmpZP7psQ9LlpDPK4EZ2dnWFnprKHHKS4GbfY5G4IqkJrKObj4iolUBg5eTdSnj1QSRDNrNvR1OPs203rTcxyHmOAbKmZiWWEh9QcHta1cXevvvvse7dp1wMIF86kvlowLnwmXaEL37gRj2rSpNPjqwMGDdWqtuNevDz9fP96e6c/v3NI6cppoVxmxMchJT+fNtmhbzjzl5+djyocfaU3mZUnhl02baDBdXQAhMRt7O96UrfTYGLqvDNFgh9zXyT8AjTr3UFkrZH7zcnMQcfaEVgWr1K8hAVIiw2kVSL415Ofnpw8h7S7HcQWMNRihGwJ5egjQ4CTm5nwqC3JSU2gaEadhYRjam7hFG9pgRdvAOEK4ls6uNBBOl+A68uwJD+/x3L8ATf39UK9evXL9CVKpFJMmT8aHH05BbGxMMXGrK2Gr1PTI9fDBfQwb9iqWLV/OG2lcG0G05BYtAnn/lhgWolUrTaXglfokgj9XmBMgsJzo9l937MC/h/7RS0YFnVdOgEULF1OLTG0HITBvby/eMc1MiNe4voSmc9p0wFBebZkI+4+O/UufQW9VBpWxMmqtSx318THnGe0wQjfUhiFkpHPpIwtLC9WBFwiolF2QmwtOoFmeKK2pbGOLVqPf0/qZCOE2Hz4Ktg09tT50aD58ehpSo57w/r1Nm9aoIIdfPv79Cfjxhx/ooaQpYSj//9w5c7B02fI6s+78/fx5CULZ116bA5ocxukxT3kFO3t7Ozg68pfPzszMxJo1X+jXYiUWU+Htm2+/rRtWFfcGvET/Iv45FZY5zjDHLBHs67dpT1Nf+drwpj2LRvSVCzRWR2eiEInp+nly8SxvgykbWzveAEENQc7ba4x5GKEbEjr7cxwdHHkk6KIAk9wM7SKX83Nz4DtkOHz7DNJYw1Zq54TQddHOyXfISkqkwVZ85v/mzZuX+/5ly5dzv27fRsm8sk1l+J6BvH/hwoXYtm17nVhwjbwaqRQsIQKgNPMFzW4QaEXoHDIT43kFu/KCmY4eO0YtIfqqd1BSQNmzZ68+SoVWO5yd+RsxFhYUUIHdUCCCvbGFJZoOfEWt0B5+6igK83W3EoiMjfH4zPGiAkc8DabatGkDd3d3XT8mHEAUoxxG6IbEE11v0LBhA34JO0+KtKdRWlVyIpuZbKwec5fCxS9AI2JWaufWbu46mQSJIJKTmoxcns5qhOD9/dS3Nr5y5QoWL1lKD3Ztyfw/bih6/8yZs2jwVm1Hk8aNYW5mqiK45GdnK3KbNY+dkMkKkauGPK1tbdUGM+3b95dBviPR0slcnTl7ttbPl5OTE++alBcUIDslSWMLnCYgZO3ZuTsNbi3rjiGCbvTVizq3cy3a5ym4vWu72r4RQwYP1of//CHHcWmMchihGxLBut6gvOpbz29d134z5+XB3M4BQ7/agIbtOleK1JXauf/Q13UuTEMEkdyMdBqAU/YzbG1tYG/PXxO8sLAQ8xcspO/TVx16pRl36bJltX7BOTg4wMLSSiUugMxXTnqaxs02lP3PpVn8vaqtLS15D2OpVEoFL8OpmDKcOnW61s+Xkbj6CpuRM8DWoxHqt26nEphKhIrM5GREnj8FsQ4FX8Qmprh/4M+idrtl9ivZ63qsNXGV0Q0jdEMjBIBOdrPG3t7Ux8QX0f705lVIMzK0DlwpkObCqr47Xvn6J7R+8126wcqr80w2vU/fQVo1hOED0RhVtUEZNeOqyzU+dfo0Tp46pbcOYiWtAnv27KHFT2ozxGIxnBwdeQPYpBnptIiHPmFqyn/YEw06KSlJ52yK8vDo0SO8DHXfDXqIi0R0T/Nqz3IZHp85QXPStTljhEZGSH4chiu//MC7Dsh5MvKNkRrXmlCDs2w2GaEbGhEAwnS5gYuLCwIDA3nbYyZHhCP23m3qo9IWBTk5EJuZo8fsxRi0ch1s3RvyCg/KvHP/YSP14lcjyH2RwXuIWFpaqi0DuX//gaJgIYFAz4QuRHpaGvbs3VurF5yxsbFcXZAa0dBlsqqJ6H8WE4Os7GydmnuQeS55lUVKSgqkUinrj68DCqRSuAd1hHU9NxVhngjNz4NvICXyscaxF0QAkMvkOL12Ga/vnHyWvYMDJk+epI+vEQvgAZtNRugGBcdx5BS6p6vG1bFjR7UH3oO/9+n8nLKCfKqdE7J2a9WWN4+ZvNaocw/aUlEf2jnRFHNS+Ks0Ojk5UmJS0TClUpw4cUKvPdxVxPyz52p7GhsnFld/zafk5GTk6dDYgzbmadESK1etphf5vRSpcwJK6FlZ2eyg0WUfFhZC4uhEq8eVteooixI9uXhW48BGI1MzXN30HUKP/8v/XrkM77zzDry9vPTxNe4Q+Y7NJiP0qoDOuZGvDB1Cq5yV1ZwFQhHCTh5BQsgD2khBN+FDgJSIcFpQgs88Rjal/7ARei02oQ6iosAtFc0rJCQEkdHRBqsSRr73nVu3kZ6eUasXnKUlf8XhzIR4vTbbqEgQ1YXMg9q1x7EjR/D5Z5/S6/zZM+jeo2cpUjc2MYFQWLuPobS0tHKtRlUFr2691bpHnlw4o5HZ3VhigTt7d+LCD1/zusbIHHp4NsL/ZszQ1+NfV6QJMzBCNzgu6OrnCwwMRMcOHVQ0Z7Lhc9JScX3bzzoTLU0tOX0MmUmJquaxPCmcfJvRrmr6bqeoCaKio5Gvh1QepQm3bGQvx3FIy87Cc55607UJ1tb8aWQFuTla1f7XBvZ2djAx17zysbLK3/x5c+Hg8F9gpEQiwZIli//T9uQyWJTjmqktSExK4h0DTiSCmZ1DlcwX2dNurYNg59GoXLN7RXErhPCNLa0Qcvggji+dQ/dXWdcYVUo4AVasWE4r5ekJRxjNMEKvMh7SNX2N9rt++y1+IjYyRsih/Yg4exJiMzPttHOhEHlZmXh0VH2bSt8BQ2FkLqkyDY8PsbGxVKjR1n9ODhNC5G7uDdDU1w9GpqYqvtmCvDzExdXuctDPn8fwvm5iYalVGpRALFZ7mMfGJ/B2Qatfvz4kpiYauy/kcjmsrSzRrl17lb819m5MSUBJOg52trW+0Q7fXJExIFoubb4klxn8GcieNrdzQIMKzO7lpTwKRGIa0X5j+0Ycmj0duVlZvBYGsn8/+GAiRo4Yoa/Hf8Ai3BmhVxkUuZG3db3P66+9RkmILwo9LzcH59atpiZVoZHmaTDksE4MfYi4e7dV/F3KVLVG3XrrXTvn1Jj4MjOzeElCmqvb55ODcu68+Qi+dQsP7t/D8SOHi8a0BKkT0s/IqN0m94IC/nLWJja2Gkcrk8PeyNSM9t5XOQCEIkSGhlFBqyzc3d1Rz60+f7lYPaF584Bafz48fBSq8pqssACWzvX0nslRHmSyQnh266U2PiXq8nnaeplXqTA2oXE4p9csxrGlc5GXw59SSvZZq9ZtsGypXtND9ylilRgYoVcZbuh6A4lEghkzPqYHZFlfOiHh2PvBOPv1Smqi0/TQForFCD91TCUnXHm4eHbuAat69emm1aOgAwtnF96/paen8xI6LYOrZUAcOUzeeWcslixeVNxlrWOHDtj8yyZILC2Lx1QoElFzcW0F0YhfvMjUrwYnl8O+sQ8PoQsRlxCH0LAwXqtS7149tVoXaekZuHpNVemKiHhMrSfk3kSY6NGje60+FFJSUvE0Opp3TRMBSmRiWmUWMVl+ARx9/GiWS1mlgYx1/IM7SI2KLKUwkHPGyFxC+wT8NX0CLm38jq4JlUJRAkGxZezX7dv02eUwG8BWRi+M0KsaesmRfPutt9C+U2feKHRC6nf27sSlDeuoP7yypM4p/PBRVy7wHixES/Du0ccgwXBiUx4XASegGrI6My6R/DXtMqf0y44aNUrlb0FBQfI2rdsUj6lAJIKLq2utXWhSqbTIZcAzl+b2DhoXllFqb85+6kvxXrhwkff1wYMGqZShrXA9ksM/Px+Lly5DYmJSKSFv/oKFlBiI0NKsefNKd+Orqbh37y6SUlJ4gzyt3RvqVNBF4zkuyKfR7m6t2qpYVQhBZyYlIu5+cLHZXWxmhkKpFNe3/oTd49/A47Mn1EbCE0XBxtYOO7Zvq7BvvobYznFcGKMXRuhVjbsAdK4ramxsjK++WAMTiQVv5yxCvue//wqXf/620qRO3pMUFoL4B3dVzGQ0V9SrsaIvsv6tWma2dryaXWJiAm3sURaNvb1hIZFoXByF/H8TE2PY8AeLcTY21sXabX1XV9SrxYSelZVNx09QNs6AE9A6Alpp6IWFsHZrQF0vfOvuyLFjvL7yjh07onOnTrwCaHkg6/DS+XPo3bcv1q//hrbH7duvP44eOVxEGnIZxo4ZAzMtY0ZqjNnu5i3qny4bE0L2pG1DT70XAaoMPDurt3pEnD0JIzNzeq6EHj2E3RNG49jyechOTVVL5kQAI2S+e/cudOnSRZ+PSrTzdYxaGKFXORR+dL1o6UFBQZj56acqpRqV2g0hxNNrV+DsVyuLmo9U4FMXisV4fPYkfylXuQwNgjrC2NJS76Y/SrKWVjQdr+x3SEpKplXGysLFxQU+vr68372C8UdOdg7i4+N5HyU2PqH4+5Lxrc1EERHxGJk5uaUKuhAN2cTcnAY+qfODlqu9FRbCwtkVTk39VcZeIBThwb27CFNjdp83by4lKE2tKoQggm/dpL3rP/xwCq5cvkRfU+anvz9+XK0/F86fP8c71kYSCZz9Aqo8o4SsDfK5EnsH1fniBLSn/u1d27F38jv46+OJiLl9nc6JuvQ6pZn94MED6NWzp74fdyPHcQ8ZuzBCry7s1NeNZs+aiSFDh/KSsJLUL25Yh78/+5DWS1cX/V7K3M4DQrbePfsZRFMgAoKJpTVMeBpDEIQUlfUsBbFYjIH9+2kuUAkEVEvcul21o9qp06e5a1evFgcg9e7Vq3abgu7dU9H6yPwZSSxgbu+oVU90MldiExO4Nm+heggoKuwdPXqM973du3XDRx99pLGWriT1khd5dvLzizWr1ZYGri2IiYnB2bNnVVwjtIOdlw+NL6mKCPeSKMzLg6VrPbgGtlatTCkWIyM2Bgc+nYKIC6fpvKvTypXZJEW1BA7TWBU94ymA5YxSGKFXJ04BeKSPGxFi2/Djj/BvXtQprax5lRzmZLM9OLQfu94biadXL1FSL9s1iZBYckRYkbm9zOYk97Vr1BjO/gF6qQzHp4mY2doVaY1lNW65DPfu3ed934gRI2Blba0xMZHv9+cff+LjGf+jdcYTE5Owd98+jBs3nroWCgsL4d24CYYOHVKrF1lw8B2esS6g5nZCEtoGNhbm58OjUzcVi4oSfxaVzOWV/FauWI4+ffvp1NCHzDf5HkuXLDGEtlfl+PfwYWqJ4osGd2vVlu7X6kgRJfvErWXbCoUsdaAxDgX5eG/cOBz65x99+8yV+JTjuHhGKYzQqw2K1Iof9HU/Z2dn7N3zJ0274otOV26++JD7+GPCaJxcsQA5aSk0v1VJ7EKxGFGXzqk9aOu3DjJY7jm5p6mNLczs+LuqPXjAT+jeXl549933NDa7K7XJr79ai7ZBQQhq1w7Dh79GyZ0eqnIZpk2dCisrq1q7xvLz83Ht2jXev7k0a6FTNUFySBcJeIEq64UIhleuXMGFixd5k9yNjY3x+2+/FZO6pub3oiJABVi4aDGtGlfbQYTH3377XSX4TBm86R7UoVr858qxdm/TTq3gpnY/l6jx8OuOHdi0caM+o9lLYivHcbsYozBCrwnYqo/guJLktn//Xyq51GVJvbCgAFe3/kS19WtbNkCamUGJvbCwAFFX+COUySHt2bWnQZt5yOUy6pdVlX4EuHXrdqko55KYPWsW1aa10fjIeKSmphUTObnIfTp37Ybxtdwv+/jxY9x/cJ83f9m1eQudMhWIAEbWjEfHLjzTJaBC5a+//qr2/eRw3/PnH5j+8Yxi4qiI2Avy84tJYueuXVgwf16dOAQuXLhAhB+VeSJEb+fpBRf/QINYxSprCbGu3xAOPn7ldl4sS+QERCs/e/oURr/5pqEej5yd0xmNMEKvKVp6GoAv9HlPQupEU2/Vuo1aglOa4BMfh9Go1N/HDKfBLc9vXkNSeIjKwUI2sm1DT9h7NaH5qYYjdHlRmkxZ0hWLERnxGJcuX+J9n4ODPb7//juaP16ZQ4d3PBSmTjJmzo7O+P67b2t91bH9Bw4iMyOjtP9cJqNZEfbeTSAvlOmsvTXq3oea7/mCpnbt2o2w8HC175dIJPhq7Zc4fPhfGgMiNjFR6ahW8nJxdqECACEJPVYWq27I161fTwUglYqHchltZWqIIFRNLWcuvs0qLApEhTK5nFpeyJwSrdzDw8NQj5YNYLziDGUwAERsCLTCNgBEFWyprxv6+Pjg74MHMOXDD7F3zx5K0HzlUZUklhj+CIfmfwqJnR1yyxCA8mBxad6CpilJM18YThvIL6BCg7WbOzJiVVss7t+/H0MGD+Z9b6+ePbF1yxaMHjOWBoFp2g1KeSDZOzjgz3174O/nV6sXVX5+Pv45pFq6t7AgH44NfOHQuCntf68LiNbo4O0Djw5daHxGyTEnays1JZmmmX2zvvxsIjJ35AoODsbhI0cRGvqIZjWkpqXDwd4O7u4N0Lp1K3Tr2lVfvbJrjnZ+8SJ34ODfKkI00YyJoOTdq79WmQj6tpy5tmgN4e5f1WrlBITIp039CAMGDJDzNVPSM9ZwHHeS0Qcj9JqmpWfK5fLpAE4A0FttR2dnZ+zetQtLly3HyjVryiU55es5aWlq66I3bN/Z4L2zZQX5sHBxhatvc6Q9iy5N6JwAR48dp2b3kk06SuLVYcOw6zcRPpg4CbGxMWoFGb4DiRBdU18//PzzT4aIwq1y3Lx5E5cuXeI1tzds34nGQuRl6V5BjhMK4P/KCIQeP6zyN4FQhO3bt2HK5EmVCoYKCAiglxJSqbTWW0kqErrmzZtPBUnVEssFaNJ7IOy8GqMgJ6dan7MwL5+mrxlJJMjLzCy1p2htCns77N69G927dVMSuaHJ/AiAFYw9DAtmctee1M8ZIu1CKBRSP+OhgweKTfDlmaT5yI+QncTegW7oqtAUBAIhPHv04bUmPIuOwtFjR8t9P9HgL1w4h7feHlNUZUxpss3Pp99FeSn9seQyNTPFhx9Nxflz5+oEmRP89PPP9LuVnVNCHF7d++hNOCuQSuEe1JFGQpd18ShT2BYsWqTVvesymRP8snkzTp1UraimdIu0eGMMIKv+LqBEQ7dwdoGLXwB/VUpOSIs8VQGREyQB+IjVa2eEXtOxFMBlQ9y4e7duOH3qJJYuW0alab5WoWql84J8ODbxg2U9N61ylrUhCEIO6qqQbfjp5wo7dnl4eGD7tq20Z/b0j2fQwiPkewtFIuqnJT+dHRxpXuzcefNx7coVahY2UBRulSMyMhIHDhxQ6WdN5t21eUs46TH1UF5YSIsVtXzzHV5rAHlt967d2LV7N9vhJRASEoK5c+fyluQle86n/1A4+TXT2S2irzk2MpfQlFU+QTsuMQGnz5ypikfJBvA2K+9aNWAmd9209AK5XP6eooKcvb7vL5FIMGf2bJq3vXbtWppKkpmRQQ8UvtzXknANbEU7bBnSf66ErCAf1u4N0LBDF1qLvqTZnZDDhfPncer06UrlHgcFBdErPz8fT6KikJKcXPw3Wzs7GkBYF7F6zRokJSbyuliaDhxK21rqw9xeLCjk5NDue2TOytbwphaCwkJ88uln6NSxY53zgWsDqVSKCR9M4p0jIsRK7B3Qesz4avedl9XSnf2a87vt5DJcv37DkNHsBESyeYvjuMOMLZiGXltI/SGAWYb8DEJiP3z/Pc6fPYsPJk0q1tjVpQwREnVr1ZYWEqm6w0MO30HDVA4PQg6ywgKsWUMTAyptixSLxfR7KwmeXHWVzK9cuYJfNm/hzVRw8GqCJn0HGaSEKBG82o2fQvOVVbr/KdwlU6dN02je6iqIcHPuzGleciTru9Xo92jQYnWlqvGhMC+fdl8zsbTktZzduHnTkHNLyPwdjuP2MZZghF7bsKkqWgAGBARQYr965Qot0GFqpnoQF9XsdoFtw0ZVYm7/7/DIow1g3Nu05y1acvz4cRw4eJBjS6XMuBUWYtbsOWpToAJHvAWJvaNe294WCwzSXNRv2x6BI99W2/1v7549WLZ8+Us9b6tWr8G336znJXOy1usFtkbL0e8hPzenRj030dDN7R1g29CLt37/vbt3ERMTY4i5zQLwJisewwi9tmrpRMr9HMCDqvg8Dw8PvPnmKAgFApVqVGTjEqnczM6+SutIF9UKN4X/K6+r+BiVWvrixUt4O7C9zPjxxw28QVZK7bzpoGHIz801qBbXdtxkOPnwFzYiwtj8+Quwbdv2l3J+Nm7ahLnz5qnENqBEmlrPmQthZGFRbXnn5e1JkakpnP2a8Z1ZeJGZSdMO9YxYAG8wzZwRem0n9XgArymaDhgcly5eotHIfF2SHJv4Gqzca3kgGopX9z5wbxWkQg6EsG5cv4Z169ezxaLAjRs3MGfuHF6yINp5m7ETFN3VDOc6UfbQ7jLtc96+51QYk8kw5aMPad38lwkbfvoJkyZPocTNt8+IkNpp8oyibIGcnJp5wAuEcGzqzytkkz166/ZtfX7cKQA9OY77m+1uRuh1gdQfAhhWFaR+7fp13tfJoeziH4DC/Lxq0QiMLSxpcBAfSZHXVq5aRX3GLzsSE5Mw7v0JvEIZOWgbtuuMpgNfqRIzbn52Nrx69EXbdz/gN72LxTQYc+w777w0pL5s+XJ88MEktWRO5ijw9bfQ4s13kJeTXWO/BzkH7Bt5w9TKitcFd+fuXejBj55GhgxAH9YOlRF6XSP1GwpSf25Q7e7WLR6lTkYDYBya+Bq03Gt5yMvKpNHTPj378eY4E2KY8uFHSE9Pf2nXiFQqxfj3x9Ne4XwR0yYSC3T+6BOtunVxQiFt3CM0MqKNXESmpvQ+9HdjE/o6x0NQRHDoMPljNO7Vn9f0Tp4z80Umreq3ecuWOjs3mZmZmDR5MubOmUM7IKojcyJwdf90HuQyeY0ztZci9Lw82Hp4FcVh8JT6vXXzFvnOuvrRiUSzhOO4AsYAjNDrKqkPMZSmHhcXhyePI1TMaES7sm3oBRNLqyrvw1yWuIMmTqX+xbJagdL0/uFHU1/a9TH9449xYP9+tRHTQeMmw611O6o5V4bACVET0jaWWNDXctJSkBL5GIlhIYgNvklb7yaE3Kf/zngeQ83D5P8bmUso4RMBgOami8ToM38FLUbCS+piMXKzsjB+/PuYN38BTS2sS7h3/z769B+AH3/4gY6FOjIn4zNo9Td0DA3pDtEXhEbGcGjso1LXXSgU4unz5zQ9VEe4AvBnJ3/1g+WhG5DU5XJ5XwC7ADTT570fhoQgOTWFbsiysPVoBLG5ebX69AqkubSgRfsJU3Fy9SKVg5EQ2a/bt6Fhw4ZYsnjRS7UuPp7xP0oY6iKmvbv3QeuxEyo0tVMN3MgYuRnpSA4PxfM7NxH/4B7SnkYhKymBknphQQEVCsh9idbPiUSU9E2tbGi5XvtGjWmbT3uvJrBwcqE51BJHJwxcuQ5/ThpDS/mWfU5C6nKZDEuXLMadO8H4Zv16uLu71+o5KSwspMGJCxctVFsLQDk/Dl5NMHjNdzS2oSYUkKkcoYupH/3Bof1lFHQB8nJycP/+fX30QWgB4AY7+Rmh12VSfyiXy3sr/Et66+sZGhpK05xUDh5OAAfvJhAKRahu2xchpBZvjEHU5fMqhUugiJ4mpODs5IQpUybX+bUglUqpZl4emds28ETPWYspWavLZyZ/E4hESAp7hLDj/yLywlnE3btdup8+JygW9pRd+gry8iDPzYX0xQtK1LH3gxF6/F9c3vgd7DwaoUHbDtRn7xLQkh7+r3y1AX99PJGX1JX3PLB/P+7evYclSxYbukCJwXDjxg1qbfj30D9FBZvKIfN6ga0xcPnXsPHwrLFBcOpABBG+qoCywgIEB9/RRye81gA2slOfEXpdJ/V4AOPlcvllRalYJ13veZsnMpVoTUbGxrQxRGENMIXSlBljE/SeuwzJ74WpEANH/ZMizPjkE4jEIkycMKHOroHExCR8MOkDmtPNS+b5+dQ9MXD5V7TiHp+pvci0bkyJ/PbvWxFy9G9kJiUWWzwq06mOjDmncImUer7HYbR73529O+HVow+Cxk2htd6HrduI/TM+QEpUBO/9yWuREY/x1ujR2Lt3L+1x36pVq1oxJ5GRkVj71dfYsnULjesob/xoy9kuPdF/6Zcwd3CsdWQuKyiAlZs7TK2tkZ2aqjL/jx6F6ONjGsvlchHzo1cvmA+96oidSK8DFY0KdOLKR49CVV+Uy2lnpaouKFMeCqS5sGngQf2yRiamKs9FDhZCZh9MnIhFi5fUyXkPDg5G77591ZI5GRORWIz+i79Q6zcngpEsPx+XfvgaO999Hdd/20wP5soSeYVSvVhM7yOTyahZ9o+Jo3Hpx3VUWx/x829qfeolhQny/br16IGPpk6jvuiairDwcMycNQsdO3amxWKys7LVjiGZG7I+W7/5Loau/RFmtna1jsyhCIyzdKkHc3tHlQIz4AQIDQvXR30ILwBW7KRnhP4y4bGuVpH09HQu5GGISkAc2ai2Db2opledAXFlQaPeu/ZC988XFFsSypK6UCTGwgXzMW78eKSkpNaZyd64aRO69+jJG82uJAzy/fvMW47GfQbw1moXmZoiPeYp1ZTPrFtVTOR8AVv6AI1mT07GseXzcGjWdFjVq4/Xf94B3z6Dyi03TN5HyJGQZKdOnSixX7h4saZMhfzU6dN0fQUFtcOqlSsRGxdb7jiS72psYYG+85ej55ylNLCsJpV11RRic3PYeaqWThYKhQiPiEBsXJyuH+GmuBgYob808AFgrssNnjx5ghdZL2hKTVnYejQqjliuSaD+9FFj0WX65zQSn694CSH1XzZtwoCBA6lfszaDaIEjR43C++PHI1VBwCqEkZ9fTOaBI99Wq5knh4diz+SxxXEIhiJyPo399h+/4sjCz2nK06C1P6DTlP8VFyThPUyEQvq+Fy8yKbH36NmLXkSwiYyMrPJ5IOvoy7Vr0a59B65P3350fSnnQ11zI6qVK/zlr/+4HS3ffJeu2doQzV4RbD1UCZ3MZ25WFh4/fqzr7TnF+cZQjWA+9KpFEyIs66TiR0RQTYjjVFNHrd0bUD9rXg07fIiAUSCVImj8FEjT03Bp0w8Qlunlrgy0unL5Enr26oVZs2bjow+nwMzMrNZMbmZmJq0utnLlShotTYQUvn71tJ+7tQ01szfpO4i3I57QyAhZyYk4+OkU6t/Wh2ldG22dkLpr8xYIHDUWnad+Rpv+nFq9GPEh99V+P0Ls5CosKKBlbcnl7OiM5i0C0a9fP3Ro3w7e3o312vq2sLAQEZGRlJhOnDiBc+fO4/6D+0XdCRVBmBWNoTIboPXYCbRKn7GlpV473FUnyHlh79VYzQaV0cC4fn376voxLRVZPQyM0F8K+Oqs/YWFU/N62cNJIBTB2s29Rpnby5J6YV4eun4yF6a29op0NhFvSlt6egZmfv4Z9u3bh4ULF+jjoDEopFIp/tyzBytXrca9O8EVRkvbNvBE/yVf0MCz8gjj9JollDirg8xLSFo4/92XaNixK01p8+jYDfY/NcGNbT/j1s5tyM18ofb5lEIaQVxiAuKOHMbRI4cpuXp6esLLywt+fr7w9fVFI09P2h7X0sICEokFhEIBrKyslBXMuOzsbOTmSpGXJ6U1yDPS0xEVHY2HDx8iJOQR/RkT/RRxCXGl9kRlxk5pcWjcqz86TvqYplwSAbQydQBqC+SFMupHJwJLfm6uiiAWGvpIHx/jzY54RugvE+rreoMnTyJ5BGwZ9feRDVuT+jGr09TbvvcBTCwscXzZXN70O6U5lGjr/fsPQP/+/TFjxseV6qdelUhJScXefXtpDvON69eKBRJ+JUhGTbeeHbuh15ylsPVspJbMxWZmCD16CPf+3le9ZK6Yi4y457i//w90mDyDPrOptS26fTof3r3649KG9Yg4d4p+t/KetaSJm4xFWOgjetF0MQUI2dhYWMLaxhpCkQg2NjacSCHwZWRkoIjUc5GWlkZN52ULpZQnSKklck4A99btablirx59aDZBXdHKS4L2bHd0hpmdA1Kin0BUhtAjI59QK4dQN5dOA7lcbsxxnJQd9YzQ6zTkcjkZaw9dbxMVFa1iay9UdDojG1ZWg8tQKkmdaD4BI96CxMkZRxfP4s11LkmO/2fvPMDjqu60/94yVaNeLbl3g41xAWPAphgwvZeEJJAQIGRDIMvmC7sLSTZZ2E0gCwRSSAglCT0QIIRiCJhuim1wxd3YlqzeRzOjmVu+5x6NFFtzR+2OLGn0/p5nHttz5XOvzr33vOd/zr9Yg/6KFSuwfPlyfOUrl+Pss86yrLchuf5YLIbNmzfjqaf/gmeeeUaIUk9C3ikc1vFjv3Ujjrnmerh8/qTWnyUo1rG1jz+SKFhDyI633xBL0db1GVpMbOuMmTMP5//yD9jz4btY8+hD+OKDd4SwJ1uKt7PcD+rbSASVbW2orKzoccXAEp1ke+C9Pn/xiZV1/onHLMGRl31VOG1ak6h0ssgTBF2LCS93X24esGdXQp+Wl5eLCWphYYGT05QBKARQzhGfgp7uWArkKKVWKBSSvvjiiwQPd2vgzywp7fBwH+aC3ollBU1eejIu/f3jeONnPxZOX3ZL8N2F3fpMmz4DZ511FpYvPw1LlywZ9H329vZ2bNmyBa+ueA0vvfwyPlmzRiw19ybkneIx5vC5WHLjD4RwxCLhpBnGLLEM1dehuXwv9n+22jYRyFBg3Zfm8j3C2z5/8jRo8Wes8/ew7uOEY5YIYd/4/NPY/cE7CDc19to/tkIvD46fbueyeqCgEBMXL8Vh51wotjxUjyftlteTDvYeD3LHTUDFZ6sTVk/27N2L+vo6p4JeFM+zQUGnoKc9efHZ64BpbGzE/v0Vtsti2aVlwsN9JHnjWoNo7oRJuOC+B7H2sYfx8UO/EclSkolA5/fbt2/HPXffhfvuu0/sxS5atAjHH38cZs+eLVJYxvdeB1xwIhgMCueqtZ9+io8//hirPvwIW7dv7xLxvjpYWROseZddgYVXXiNimHtayrXE3OX1we3PQPmaj+wzAQ6ZoCuItLSgpbJCZJEzTeOgEK5OMbSEfdJxJ4q88dvfXIGdb/1D5I/vFNPeLPeUWqS63hVzbd2HCcccLz5TTzxVPHOSIovrHg1C3jXBNA3b0DUxwY6ERU73mTMdOapL8Xh0poCloKc945x6uJeXlyMcsd+eyi4dKwbekRZeY1l5lpgt+ua/YMKi4/DR7+7FljdetXX8O9Ci6LSALXHfvm2ryA3vDWSiIC8PkyZNkqZNnYLx4yegrKwUeXl58Ho88Pn9yMvt8Kxubm4Wwm1ZmzU1NaiursauXbvEXuL2HTvQ2tIsSpt20hcRxwHL67PPuQhHff1bKD58DvRoLKlwqB6v+LOtvhZ7P3ofwe1bsPml5+1rpA8xn/7ip6jetF7snedPnS4q+h34vHX+joUzZgnHsqOuvFaI++7330b5mo9Ru2MLws3N/9xKiC+fOxX5A8W7817ljB2PkhmHoWzhIkxYvAQ54yfC7fOLZf2RkoN9MMidODnpsc8/35IKB9RZHOop6KNF0B1RsX+/iF+2C1nLKhsncnxjBLqjmLourNeiw2bjrF/8Boe//xY++N29XUuDPXpRHyAG1mBdvm8fyvfuwbtvv9XNylTFRCAjvjzfFgqJvkzInBUXGlnuu4NVp6BYP3/YaWdj3levwtgFiwBZ6lHIdS0mrPFd77yB0JpVaKqughmLobk1eEjizftlpcsyosFW7H78IdS8/ndMOutCTDzjPGSVlokl6wO3eizr3fooHo/oB8sybg+2orWqEjVbN2H/Z2tQv3snWvaXIygKyQw8mZDV51ljSsX+cO64CWIFYczsuSLVaaCoOJ7Hvl3cI7vwwNGEaZpiopPsuU6Rp/t0DvUU9NGAU4c47Nmz195ylWRR/Wmko4XDwlqfctKpGHfUYuxY+RrWPPYwKjd8Jn7vZHvsyQT+oMFM7GdrXXXYrUmR9XGyDHzgvuzkpcsw5/xLu4Q8WYpQOV6W0xLync88iuq1n0Bvj0ByuaC63IDLDXd7uwjRGk643f+8vkhLCzY+cj/2rvgbxl9yhSjqovp8Cb+ziGoQkQ0dqzA54ycI7/7DzrpA9F2wplpUiws11Im/B2urEaqrRTQUEvc7WF3VNWEKFBZB9fo6JmWFRfDm5CKrxBLyQnizc8WWRkfZYFNEehjxMMmRnN1tMCbO7oxM0VfB2pqEd8kaX1IxzpmmKUmSZLLHKejpjOO0iPv3V9gKlTcjo6P2uKalxaBjWbWyy4XDz70Y05adLiz19c88jr0ff9BVkKQ3cbcTezjZWO+2tGtNqsqOXIgZp50l9mUtobLEpKdc35botdXWiBjuqlf/JoRcEbXMD04eqMjDL4FjZkbmAasdCmR/BlrrarHx3p/hi3dXYuFV16Fs3lHCWrfb9hF5COIi24llVWcWjxETILtVJ+kA589k+RVM3RDHaIH37fm1xDyzpFSEInZ/f2pqaoQDqMfjyHcjP+4A3MQep6CnM45N6Kqq6sQBzTSher0iHGW4JpUZqLBH24LCspt47FKxD9q4exd2v7cS2998DXU7tnSJe+cSeaqXqYWAG0bXnq81acqbOEXs9Y9fdKwQdHdGAHos2qtzlSXm1RvX4fP/+ykqd+6wFXIh5grgEj4C4WEjAtnZ2fC7E90/Oi324Kcf4f2bN2LGpV/DjEu+KvqkL/vURpqkVB1J75Q3J0esZNjMeFFdU4O6ujqUlZU5HecKKegU9PR9kTpi0B3lubSsm/r6+sRB0TDEMpo3O2fYx6A7sdgRT2274IqrceSXrkTjnl2o2rReOFtVb96Apoq94ue65xm3LPkDrT/LUj8wl7xYoj1AtLteDLcH/txcZBaXoviwOSg+rGNvNn/KdBGz3GmN9yUJifXzX3zwDtb87EdiH9pOyP95n4EMl0uMhtZ1SkNkrYstCl1HSWGRmFRpsWiHgNv+fhni2dv4yP34Yt2nOPa730fBtBmjyoN8pCDLSseqSMJEUhEWemNTk1NBz45b6dvZ2xT0dMUbf8gHjKZpaGhosBt54Qlkiuxd6W7tHLgnmjdpCgqnz8JhZ18ALRIRIVV1O7aipXI/gtWVaKrYh7a6WoQbGxBubhSZx3RNgxnflpDUjkff+t7qO+sTKCpCoLBYVBjLGTcBuRMmdzhWeb1QXG5hiVvn749QWZb5gWKeTBQtQtEY3JKJrCwfigonYt3WvV1FXA4l4pyyjO9ffQ6+87XleP2ddXj0xQ+wbXctfG6X7fV0LsN3WOvfwezv3ozJJ54i+stMw4nmSMUwdDExTjTQZRG6Vl5eLkI/HWDNnq0TfMjepqCnKxlOBb2tLdQh6FKixebLyYUkS6OqQw8Ud9nlEuJrWYWWBaLrmrCerePWAGYJvqyqCDXUQ4uEhfh4s3OFUIv/r6rCOU7xeETyjc42jJjWFXM9EOcq1eMVy+zrfvHTHsXcEnK/24WzlszCsmNnY/5hE1BSmIPnX1+D7/3sCTQ21B+SmHRLyK0J4lFzZ+CH/3I+zjl5HkzDxDVfPhkXnLoAj724Co+9+AH2VTYnFXbLWg81NWL17beIfdojL/0a9PhKCxkeZJWU2o4jEI5xe1JxinHsZQp6Wr9D8cQyAyYcDqGmpto2qYw/L39Ud64lFib0g1YoJEUR1rGFJ5AlhPnAfrKEquvvByy3p2qZWFZdYmVg6y//RzjC2S2zG7qOcDSGkxbNwL9cfjIWHTEFLp8bensMhmHiiouW4IiZ43DzL57CP95f3ydP/4GKuNXuUUdMwzWXnIjLzjoGWdkZiLTF98GjQG5WBm686gxceNpC/P6plXj6ldVoDceS7q1bv9uWB+5FpKkRi665HgZFfZi8K4ZYfZLlZIKeEk/3qexpCno643eaVKa1tRVtIXtHKUuoJIml7buLfNff0fF3/RAKiiRLIvtdxdYtScXc4l+/fipu+Nqp8Po9iEVi/xRR63pD7Thy1gT8/bc34dX3NuChZ97G22u2C4u9a+IQ9xHoba+9c088/o+u/ztnxiQsOmISLl5+NBbPn4as3Ezo4faDrkNMdDRdfMYW5+G/b7oEy4+fg//+7QtYv2W/rbXe+e/djz8k/qSoD5P3wjTgzcoRxZyiwWDCc7Nv375UnGYse5qCns6McdpATU1NUicpf0GhSGVJhslL5fGKXOyVf39WeLPbibnLreAnN5yPL517rLDIIyH7uPNIJCrC2M45Zb5YAt+2uxIffrYT767egnVb96GmthX1wWBX3e8kswsEMgMozMpGQb4fU8eXYNHcyVhw+ETMnDwGBYU51kjfMaFo7XmFoj0aExb78UfPxF9mjse9f1qBPzz1jtja6L6lIETd4xWinlFQhDkXf7nHsD5yCATdiEfFZOeivbU1IYyzoqJiWIx3hII+nHG8Jt7U3Cw8q+12yj2BTPbwMELXYtj+1B8RC7UlWOedlrkQ8/OP71VARXuWdR0X/GkTSjB9SimuuHgpYuEoyqsbUNfYioamNkQ1HVW1TQhFOvb7c7MyUJyfBVWVkZ+bifycAApzM+HN8AoBF21HtQRrvC9YE5AMrxu3Xn8B5s6cgFvufgZ1zZGEJfhOUf/8d/eI6nqTl55M7/chttCt8SJQWIyGPbsSVlYaGhtTEYuea5pmQJKkIHucgp6OOK712dTYJMKr7PZPM/ILueQ+zKzz6rWf2Frn4WhMLLN/6ZzFfRLzZBYy4gloxo/Jx6RxRSI5CySpS6j/aZ3HvzNM6Jou9uYHIuB2dC7Dn3PqAowbk4cbb39UeMJn+LwJoq7Fotj62/9DwdQZwlpn/PnQ4fL7RTy6HS3NzaIIVElJiZNTWBZGAQAK+iGGKnBoyHUs6E1N9vWxJRmKy5VWSWVGOjtWviaywHWffIWiMRwzdyKu+/LJYnnb8UqAYQhBjUSiwmK2hFr8eeCn87tIVPysbqT+ObHOceSsCfjjnd8Wv5/1eyZMdFxuNJbvw+o//n7URWQMKwtd10UKXbvkMrKioqGhHnU2+S4GYMCUsLcp6OlKkdMGGpvsEy+5PZ6OHNY6BX2okRRFVE0LrVmVYJ0bug6vIuP6r56CrCz/oAjrUGJNGCaOycNd/3E5po3PsxV1q0/q33oNlevWdlWZI0OAYYgl94TnV5IQDLZ11TtwsggAIIcdTUFPVxwHEbe3t7MXhzmK6upIblNbm2CdR3QDx8ybjKULZyZ1gEsHUZ80rgi/+MGXUJDtTchcaPVJLNSGz196Pi2zGo4YK900kZFfkBCLLsmy8P9obkpJ1tZs9jQFnRZ6EqrjlacSrL6cXHhElSla6EP+MqkqWj7fKJbbEwZRXce5y+bB5XWldR9Yon7UvGn4/lVniEmMnZXevPoDkbpXVl18aIZE0A1RsU5Jks9gX3l5Kk7D5DIUdDKgm6jQt3E4YBg66mqqbSdehXkZmDN9LEwt/SdesXAUl55xNE5cODVh6d2y0tsbG0RNdMVNQR8SQdeNDkfaJLkL7IpADYBC9jQFPV3xO20g2NaW1CqUVQr6UCMKmITDkBvrRG3zg6xW3cCYomyMG5MPTUv/pWbdMESinC+ffUzSn7Es9HQo9ztSLXRfbvLElXV1dak4TTF7moKehi+PKaUqbC3R8tNETKk7EOCe5HAQsmgUUkOt/YzO40ZWwJd2znBJrfRIDIuPnIKxRYnPpjXhad67R8SjS4e48AyJJ5fxeOHNyjqo8mAnNbU1qTgNvdwp6CQZCge+YY9hcFJ1oJUe8HtRVpRru5eeHWpmJw0hIltcTp5wkOtOZWVVKk5Ryl6moBMycgdJtwdmnv3WYag9ipZgWCSDGU34vB4+GMPNQjcN8ay6A5lila87LR1phE2HpwmYpsm9QAp62uGOfwZMLBZLvoeudJT+JEM8SOo6XD4/tEA2zNjBjmBeRUZlTTP2VdZDVQdvpcWaLHi9bpHa1frTpSriO+vjcbsSjg0m1jmjmo6KmgZR450MLxS32za5DOLZ4hoaGp1m//GnIuU16adRwS4YdAJOM8W1t7d3zpoTsETEk5XF/NjDYXasqigqG4uahEmXgtqGNqzZ+AUOnzGuK3VrKrCEWpIlkda1tqEVO/ZWY9e+WlTVNaO2sQVNzW1CwIvzs+B2uVBSkC3+PnZMHqaMKxLHxKQxqqV0f9/lVvHO6i3YV9Ek6ssfNPmJxRAbP1XUnydDJ+ieQCDxgCQjpmmiXLPDYcsTLxtdzd6moKcbdOcdBRiahsC0mbY53CVFwXOvr8b5py4Q5UadiGeniFsivHlnBT5Yux0fr98pqq81t7ajJRiBZupQJUWct7NkqfWdRabHi0DALTzvj54zGcfPn44FsyeiIC8rJeJuWedWG0++9KHIXd89t7tF7sTJUD0eTkSHAJH+1eeHP8fe0z0SDonMlGVlZU5O440LOqGgEzICBV3XUTTzcGTk5aGtoeGgbHF+twsfrvsCT730Ia65fBn0fhRIsQRSVRVIqiyqo3WK+MqPtmDj9nJh/VvC7ZZMYQ0nCqgr4TqDwSg2NFeLeuZ/fu4DTBiXj6ULZ+DME+Zi3qwJIuzMOldsAGF2Lp8bf3rmHbz07ucJ1yJKx/ozUDZvIcPWhnQ5SRZFWhK/lhEMR9AWdFxXxcNscRR0QkawhR4TCTuyFp+Ilr8+Drlb6VTLMr/v0X9g9vSxWLxwhkjAkswStkTc5Vatv4h66dv3VOHtj7ckiLhXkW0t4B7H8vhEwy/+7BD77XsbsG33e3jshY9Eitpzl83DKYsP66iVrht9strFNfvcWLHyM9x+/9/FtXVHb4+gePESFEyfJcL8yFA9rAY82Ynp1iVJQiwSQch53XqJgk5BJ2REY5oGpp9yOipf/zuMaPQgK936e11zRJQZ/e8bLsLypUfAZYnegWFd8X+3BMPYtLMCn6zflRIR742OOuYuYUG/tXoHVn60FdMnFeLUYw/H2SfNw5xpY+HyecXkwjDMBHEXDnhuFS++vgbf//lTaA3HEmqjW20rHi8mnn+ZcOTUmDthCJ9TEy6P1zafuxaLiRKqKYBOcRR0QkYultVZfNgRKDn5dFS88HSClW6JXE1tK77z08dx0qKPcfQRU1BSmIPcLD9qG1qwt7JBOLZt+6IKX5Q3CGFE3FPeqYh3JniRe8hpYB3rtNz37KvHrx97C39+4UMsXTgVSxbOxJKF0zGmMEcsyYta67IMxDRU1TThD8+8hUf++qE4j98mratlnRedejbGLVwMrT3Ch2WIJ54ZhUVQXTYRMqaBsHMLHU6jewgFnZAhxxK0uZd+Da0fv4fWulpRC/ygly7+75fe/Vx8LLG2hNT6fxHdEE5LliVuiaK/j/nOO8Xa5e4Q607j1/q+s23rWHskiqZQCB7VJbYAehJ36zpVV0dbnddakO3F7GljMWV8IQpyM9Ee1bCvqh4frduJ8ppg1+/SHS0WRe7YcTj66u/wARkmFnpPNSBqampTcZoi9jQFnZCRLehaDNnjxmPWt/8Nq2+/pUtUu9NdrA+0jvuKJZRtsRiy/RkI5OWhpqoakfYIYloMmmF2OZ7pmoY777wTU6ZMxoYNG7B27Vps2LARrU0dGdt6s/47rzUYjHYtyR+Ir4fJh3WN7kAmjvj+j5E5plTkvCdD/ZB2lFBV3W5oNr4MoVBbKs7iY0dT0AkZ8ViiNfnEU9AebMWGX/5MiFp3S33AbceiaNcMeFQZk2fOwnHHHYdTT1kGj8eDY487Xjg2da+kpWsxzJkzG6csW4ZzzzlHJCsqLy/Ha6+/jpdffhkb1qwVIWZWmz1dZ38nHZ2/95zrf4CxC49BtC3Ih2OY0FMe/dbW1lScgk5xFHRC0kfUZ519gUg4s+m3d4myoa5ue+p9JRSNdcWTT5g8CYsXL8a5556DoxYuRCCeIOT9Dz4QqTxV98EJW0zDgNvrQ+YBiURcLhcmTZqEb117La76xjeExf7Ms8/i1RWvoa6qOiVOd7FQGzy5eTjyX28RkxuK+TAy0HUd/rwCSKoKMxJJmADW1qZkyZ1OcRR0QtJL1GeecS7yJk3F5od+jeq1nwjnMMnl6tEStgZcy2LWTB0u1Y2JUyZj0VFH4ayzzsT8efORl5eYxau62j4pl2macIvUr/YibYn7okWLxOd7N96IZ5/9K+76+c8GvKJgWeVmLIayGTMx48b/RMmcI5lAZhhyCMous6IUBZ2Q9MISs8JpM7Hktnuw/7PV2Prqi4h9vg7BhoaOUe+AYc8ywi0xV/1+nHLSIhx55Fwcf9xxmDlzJrKze17BTGZVGYaBzIxMZGX1nrirrKwMV131Dfzoxz9Cu9aKHH+G2B8/0NnOEuzu6VwNQ+/KYZ81phTjl5+L6RddDk92NsV8GGKahhB0TyAT7a2t6J64PUUV18aYpilJEpP5U9DZzySdLPV4mNbYBYsw9qhjEG5swK533sT7d/xEiKElkNafumEg1BbCtddeg9/+5jf9OkcwWXYv04DX50UgkNmndnRdR1FRMbZv3466aFQ4TnlURVjymZlZyMkrQahbsSCP14vAxCkoOPZEjD/6WOH8pkejdIAb5ha6JejWhK+706bOHAEUGmI/PqYil7vagwOLqRvs5REm7IGCIgSKitEaDB7kBW8ahtgHnzhxUr/brqpKblVlBALIyPD3qR1FUYRAd12zJcxR688meMomYMkv/4C22n+WoBEhdnn54mP93YhpFPIRTn19PeIlVJ1UXcuNL7szxy8FPW2wzCbr7Zg20AYCgQCKiuxDOtuDLQg3N8KdEehymiLDH8saj3YTc8QzdVnk5+f1u81IpD3pscysLOEF3xesnyssKBCW/UFIMqLBVvhy8kSKW/OA49bvwVSuI2zwd3vEvUy4z/Ga6LquS4riaBs8h4JOQU9HC50QWyRJSllb+/dXJH/RFQV9HZxdLpeZmRmwvbBYJIxwUwO82TmcQI70Z0+WRRnVZDgUczHPYy8fWmR2ASHpT25Ov0KCpQLLQu8+WMiySFSjRSKQJA4d6Yymacl9MvqOK26lEwo6OcjM78Ea6u5xTEYlZjicPD+6nUD3hD9JvLxloUeaG0U9djKCHxZdh6y64LOpuAZJRiQcQUM8CsMBPgB57G0KetoQD9lodtpOTq79ixcLhxENtdFiGoEoLldCQo9O2nvYD08y4ZOaWlpSdm12E4DO7QE9GuXzlg6Dv6JA9SbPzpqCJXed++cU9HTEcSBuICPDxjKXhde0WAKlxTTCLCQD3qxsERJm2tQZr9i/f0ivT1XtB3M9EkGMldLSBkPXklrwUedOjgr9tCjoaWmMsQvIwQOpDo8l6F6vyOTWnerqqiG9vuLi4kQLPV4rO9LcBEnh0DHSse6hNzPL1lAIR1Oy5O4GMIY9TUFPNxyXLnIn8UY1tBi0aDt7eKRZ6KaBQGEx3BkdiT26s2nTZrS3D8/72lPZTTKCBn/VJarg2aEbhnCMcwgfFAp6WuK40kFJyRibgVURscyxtiD3NEeaoOu6KNSSNaYsIQ5YUV3Ytm0bGhsb+zd6KlwIIoSCTggZAktXQdGMWQnfS7IsxPyDVav63JaiKP0NTSOEUNDJAHBcXDhZpSxd04STEvc0Rx7WPSuYOiOJCW9g5cq3+meh91A9K9jWv10fhdZ++mMYwocj4bmUJARbg6iuqXH8iHMPnYKejjhech9TUiLC1BIFPSaW3bnkPvIwdQNFMw+DLydXOMl1M9OxYsUKNDf3PeIxWXpg8QDW9O8RDLXZB2akMrMdGeLnzzThz8mzHVcQTy6TAriPTkFPO2LsApIwYLZHUDB9FvImTkkIH1JdLmzfthWvrljRp7Ys4f/008/sB2dJFoVbQv0oY1rXUZyj26KBAZfXKyYgLAhECAV9tFLptIHSstKky6Bt9bUHFcogIwfV48HUE5bZH5Rk3H33PYjFep4PWkJ9xZVX4qMPV4mJQMI5XC5s3boVTz39dJ+vq6mpydaik1QVLp+PzxshFHRa6AOlpz1NI8YFgJGKZelOO+UMeAOZCQlmLCG2RPquu+/p0TL/8uWX428vvCCqZyV9RgwDt/znrVi3bl2fLkv8nI217/L64M8vTNwiIIRQ0EcJjlO/5uXmJk0T2lZfxyXQEYrWHkH+1OmYftpZwh8iYSKnunDb7bfhr889l3BszZo1WH76Gb2KeefkoLKyAhdceBE++uijpD9XUVGBb159tbRy5coEa9/QNXgCmfEldwp6uiLGGdNIRWIZi0L26KGDDguHhjqnDeTm5ooMTrqmJQi7Fgmzh0cyhon5X74S2157CVq3dJuKqgqP4yu//nV8/vnnOO+884RV/swzz+Lhhx9Cc1NTr2Le9bK7Pdi9ayfOPuccfP/7/w/XXH018vJyxZL+x598gueffx5PPvU0yvfuSdpm7sTJIiGJoXFVaMQ/doaOjIJCuD0e2+RG/a0nkAQPe5qCnnaGGIAIAO9AG1AUBRl+P1psCnBEWlvYwyPcSi+ZcyRmn3sxVj/+8EFiag20lqUcagvh1ltuwZ133ol2TUck2CoytiUTXi0Ws99Pd3tQV1ePf7/5B3jwwQexbNnJWLdhI9asXo2oNTGU5OQTBEnGzOVnQ3apFPR0scYZnkhBJ/3GMqGDTgTd5/MjJydHJBxRu1nokZZmOimNdGtJ03DMdTdiz8cfoHbH1gRRlRVFfILBti5hTjpBiMVQNnc+6ndsRUwU7jn4eekU+u3btwtPesSX9ntsM9qOw047GzOWnwMtzBUhQoYj3EM/NMTioo6BW+hy0uQyERuPZDKy0KNRBIqKcdqP/lfsUWtJHB0tcU7mS2EahhDe2WdfgC899BSW3PADUUc/mQObJeyWiFufZG12ivn4hYtx8q23saofIRT0UY9lVjlSXUvMCwoLE/J+i9lCOMQeTodZXyiE8YuOwzl3/Aq+7Ox+Fd2xftY0TSy++jtY/pM7oHq8WHDF1Tj1P34iksEMpICPNamw/t+Upctw9h33IaOwSEw8CCEU9NFuoTuquKaqKnx2FrrUURM90tLM/bA0INoWxJQTTsF5d92PvAmThaAms9Y7LXLrUzh1Bs6/+3c44fu3iufAeiasCYIl6hfe92BXW30JN+tsM6u4BCf+2y04/57fi9UDLrUTMrzhHvohQJKkdtM0HYWuKYqCnNwc22O6ZUlFInBnBNjZaSLqExYvwZcefhqr//h7bHvjVTRVlCeszri9PhRMnY5ZZ52P2eddIkQ31i0bnPXvKSedisIZh4m2Nr/0HIJ1HWlgZUUV+/KI12c3dE0sv5cduRAzTjsLM08/B9ll4xCLhGmZpyk9hR/2N/9/ErLYyxT0dMRxgZZARkbCd7IsI9rWKkTAGtB1xgenBZY1nFFQhJP+/b+w8MprsX/dGtTt2IZosBWKy4VAUQmKZh4uPp6sLOjRWIKYHyjqVlsn/8dPcORlV2DbG69g19tvouGLHYi0tIgVgJyysZi+7HRMPmEZSo+YD3cgINq0niuSvmLuzcqGrKrQbZwn6+pqU3EalgCkoKcljpPLZGXZvxu6pjEWPQ0xtJj4+PMLMPOMc0UBHkPTAFmCoqhiZUbXkgu5XVvZY8fjmGuux4KvXIW2ulrUbNmEaKgNY+cfjZzxE8Q+vGWNx0L0yxgNuDICIp0voaCT/lHvtIGCgvxEC11RxOAbaW3hHnoaW1LdBVZzOEmwnpXMklJkjxsvnOZ6svAJIRR0cjCOs79kBjLtB2ldj5dQZUgR6fskwYTOBDGEpBH0cj90VDttoLikWDgydS/iYeiaWDaVZVrohBBCQSeDTatzCz2Q1Apvb2kWuZkJIYRQ0Mng4thlND8/H64k2eLCzU3CoYkQQggFnQwu9QAcKW5RURHUJKk3I40NLGlJCCEUdHKIBF1z0kB2dg6UJDm3I60tMA1a6IQQQkEng00YQIOTBtxuF4qSJI8JNdSz4hohhFDQySGg3WmBFpfLhaysLNsCLeGmRi65E0IIBZ0cAmIAGp004PF4zPz8xOQykGS0B1sTwtkIIYRQ0EnqiaYg/atkV6BFljsqroUa6iGrLvY0IYRQ0MlgIUmS6XQP3SIvN9f2e0OLieQyksxscYSQvtHTNp3CVNIUdNIjjmPRCwoK7SYLonxqe0uzKOBBCCG9Yeg6fLl5UFTVNodFbW1Kqq0Vsacp6OlKo2MLPS8vUdBlGVo0KkpdSgpvKSGkb7j9GUm36VJUD93PXqagU9CTkG8j6BZaLCYc42ihE0L6bKUzXTQFnQyYOqcN5OTmQFFdiR7tpoFwYwMrrhFCCAWdHAIcp3/Nyc5Oms892hZkPndCCKGgk0NArdP0r0VFRfCoiq1wt9XWwNA09jIhhFDQySGw0B1tWuXk5IiMcYZNEplIa4vwXCWEEEJBJ4NLk6W7ThrIzc2F12fvOBpubhLx6BLjRwkhhIJOBhUNQLWjGybLKC4qss3nHmlp5pI7IYRQ0MkhIOI0dM0SdLt87rKioq2uhvncCSGEgk4GG0mStPg++oBRFAV2+dyF+R8Ji/SvhBBCKOhk8HEci15UWGQ3WYCuaWLZXeYeOiGEUNDJoOO04hoKCgpsvzc1jfncCSGEgk4OETWOBd1mD70zn3u4qRFgxTVCCKGgk0HHcT73pHvosRgizU2QZS65E0IIBZ0MNo6X3DMzMy2T3DafeywcYj53QgihoJNDgON87vn5+fBmZNimfw03NwEybyshhFDQyWDT5DSfe3Z2Nnxut33618YGkS2OEEIIBZ0MvoUedtJAVmYmvJ4kFdciYWaLI4QQCjo5BDRYuuukgby8PHh99oIebmyAHo0ynzshpHcBkBWoSYwDQkEnvRN0WnEtEAhAVVXbfO6xcJjpXwkhfRMAVYUvNw+Gnriqp8VSs3Vnmia9dCnoaYsl5hVOGykZMybxS0lGuKkBWrSdvUwIcURldQ105+WYSwG42ZsU9HQWdMcJ13NzshNvpiwLC5176IQQp1jjiOF8tY97fxT09EWSJNNpCVUkSf8qSRLCzY3xv/PWEkIIBZ0MNo4tdL8/I1HQZVnkcw811ENi+ldCCKGgk0HHsYVeUlKc9FisLUgLnRBCKOjkENDitIHMQKbt91o0KkqoskALIYRQ0Mng47hAS35BfnILPRJmPndCyHBAd5p3g1DQhzuO99B9Pp8IU0uw0GMxUUKVS+6EkGFAAMB8dgMFPZ2pd9pAbm4uFEVJUnGNFjohpHckWYbL67MXB1VNxSkmAXjTNM13TNP8F9M0p7HXBw+VXXBoME1zVnymej6ABU7bc7vdUFQVuk3MeYQV1wghvY1Jui5SRPvz8uyUHnU1NamIQ7fIArAk/mkyTfMfAH4rSdKbvAsU9JEk4vkATgfwNQDHA8hIVdvZ2dnIygygrq4eajfx1iJhdj4hxBHB1mAqMsV1JwfAxdbHNM2VAO6SJOnv7G0K+nAW8okAvg3gkviSU+pvXA/FV6KhkJh9E0LIMOYk62Oa5t8A/K8kSR+yS5zBddkUC7lpmj8H8AmAHwyWmFsUFRUjMzPLtkBLtK0VWns7K64RQkYC5wJ4xzTNX5qmGWB3UNCHWshV0zS/bz2UcSEvYK8QQkYE2rBYzXMBuAHA26ZpnsybQkEfKjE/BsCbAO4EMO5QnTczM4CMgP1kNtTQAJ0V1wghvSBJMtTAsDKK5wN4yTKQLEOJd4iCfiit8lsAvBH33jy001mXCx63fVVCUSWJFdcIIb0JgKLAm5mV+L0sI6ZFUV1dPRSX5Y0bSM/H/ZEIBX1Qxdx6yJ4GcBsA/1Bdh2oXJyrJ0LUYbxIhxBG6bqC9fUhX+s4C8L5pmhfwblDQB0vMrYfrAwBD/pAVFxfZzqzDjQ2IhtqYLY4QMtIpBfBU3EeJUNBTJuSqaZq/BPAsgDHD4ZpUlVtMhJDBQxkeY4wLwJ3xLU7SkyawC/ok5h4ADwP48rC6eS6X7feGzv1zQkgfLDpVhS8nN+F7SZIQ02JoaW4eTpd7m2ma1rXdzjtHCz2txNyidExp4g1VFITqaqFFIpBYQpUQ0gOWcLsz7L3co9EYtOHnXGuJ+pW8c7TQ00rMxc1TmTiGEDI4GIaB3z/wAD5btw6FhYUoLi7GlMmTkZ+fL6JshpBfm6a5S5Kkd3mXKOh9FXPLvP31cBVzQggZNMs9Xh/ioQcfFB9ZUeH2+RDweVE2dhzmzJ6NI4+ci/nz52PR0UfD7z+kwT4ZcVFfKklSE+8WBb0vfDP+GRIaGhqxe/cu7Nm7F3v27MXevdZnD4LBNlTX1CDa3o7a2hqobo/t/9eYWIYQ0rvhAk9Wtgh3tRWI+PhiGgZikQjq2tpQV1uLdZ+uxaN/BtxeHyaMH48lS47Heeedh+OPOx55ebmH4tLnALgHwNd5FynovT3kc+OJDQ4ZwWAQ69avx3vvvY+3334bW7ZsQW1dLYItLUn/jzVrlm3ytRuGgVBDHSRpJm8mIaSHsc6A6l6y260AAFGISURBVPGIcNe+WOzdKzvqmobt27aKj2XJT5o8RQj716+8AnPnzh3sy7/SNM1XJEl6ineSgp5MzK0p6f3xMn+DSiwWw6pVq/DEk0/i7bffwdatWw/yULcEO5kFTgghQ40l9AeOUbt37cQ9d9+F+x94AGcuPw033XQTjjv22MG8hF+ZprlWkqTtvBsUdDt+CuCYwTxBQ0MjHn30UTz+xBP46MNVXd8rqosCTgg5lAaM8HJXXS5hbUuys8CnzvErGg7jr88+i7+9+HdceOEF+OGtt2L24YcPxq9QAOA+0zTPliRp1MfrMmzt4If7dAD/OphC/n933YWFRx2FG2+8QYi59QJ0fpy+TIQQ0i8ME56MgIhHtxUIWRb751q0vetj6Lr4rkdhURQxplk/9/STT2Lp0hNw+//8z2Clkl3OvXRa6N3FvBjAvfGsRClF13U8/MgjuOOOO8Ve04Ez2X5do2GIGbURf5msl01mzXNCiBNN1+3Lp1riffWlp+DcZQuwa18NduytxrYvqrB1RxUqGxoRjYTFzymqK6kx0rkk39zcjFtvuQUvvfIq7rvnbixYsCDVv8YPTNN8UpKkIAWdWNwEYFqqG12zZg3+85Zb8dqKV/sl5NZL1rmfbr0wiqqKcqmFOZkoKcyE1+PCF+UN2Lm3gpY9IWTAYu7LzYPq9Ypl8u6pqLxeN845ZzEQ1SzLBJFQO4KhCDZuL8fH63fjjQ834YPPdnQ470py0uyVluFhfVa99y5OPW057rvvXnzl8stT+atMi0cl/ZKCTut8FoDrUt3u737/e9x8881obmrqk5B3hppZPzt1wlgcNqUEC2ZPxNQJJZg5eQzycwJwKQr8fg8y/V489cpH+PL37klo23pJQ/V1kBQKPSGkZ0S0jGovxJFIFGiLdPxpGReyjOyAHycuOgwnHn8EbvjaqdiyuxJ/X/kpnn7lE2zYurtjDEsi7NZY1dhQjyuuuFJE9nzr2mtT+atcYZrm/ZIktVPQRzeWmGelqjFd1/G9f70Jv7rv3o5Zaw9i3mmJWz+zdNEcLF04A2eeMBfTJhSjIC8LcKliZmxqRtdSu2GYkDwuZPiSt6tFIryrhJDeBb2HAixt4Rh07Z9L8np8DNItgY9EhcDPnTEeRx4xBTdcsRxvfLAR9/zpNbzz8aakwm6NdVoshu9853ooioKrv5mydB9zAMwEsI6CPnqt8/xUlkK1xPz6734X9//2tz3uLXUKeUlRCS4+fT4uO2MRFh0xBS6f23prxEsUib80drgMYzjmWSaEjCAMLSaKs6gerzAYDvLJkWTUN7cipulCuHUbRzjrOz1qANEYMrxuXHDGIpx94jw88dKH+MVDr2DDlp2246Al9ELUr/8uJk6ciFOWLUvFr2PNHk6koI9u5gIYl6rGehNz03oBtBgKCgtx3aUn4KqLlmLSxBIh4rGohkgbLWtCyPCw0PuDJfyd4n/FxUtx5glH4Od/eAn3/PFVId7drXXr39FIGN+46pt4562VmDRpUiou4/jRvI/OTVZgaaoa+vkdd/Yo5tZDbXH1pafg/cf+E//9b5diYlmhEHHLGtd7CQUhhJDBIFBYbFkbCd9X1jQLJ7j+YI1j1piWm5WBO//jK3j67utRUlhkm45adXtQvnePsNT1JN72/WSOaZoBCvroJSVJZP7xxhv40Y9/nFzMo+2YMn48/vLLG/DA7Vdj2oQS8dC3R2MDPqeqcoGFEOIMSVGSWuntUd2RxW6NcRecsQh//dV3MKG0tMuo6S7qr7z8Ep58KiUZXCcDmEJBH4XE988Pc9pOc3MzbrjhRrF8lEzMly6ag9cfvkk83JY17kTI4xePxua25Dd2aMsbEkJGiqBLMvxZ2YljiCyjtqkVmmZAlqUBt2+J+uKFM/DIHVcjOzsradz7z35+h/B8d4g18M2moI9OpgEY67SRX/zfXfh88yZbb/ZOMX/23u9i0riilO6RN7bYC7qsKPDn5cPUuYRPCOlF0GUJ7uwcG6GXENNiiKVgKdwa9048djbu/P5ltsetsXPj+nV44W9/S8WvdBIFfXQy33punTSwd+9e3H//b0UsZ4KYx2KYM3MKHr3zOhGCFknisT4oN5bL8YSQPuJOUs9cM0zUNwV7rcaWDK/XDa/fA5eqIBaO4prLTsJlZx6XtLzzY489nopf52jTNFUK+ujD8UzuiSefEvWBu6dgNQ0D3owM/ObHV2Dc2MLUi7lhory6gSMRIcSZha4oInTNdpjRNIQjUWHF9wdLwK3PZ5/vwRvvbcDeynq4vC5AlnDLt89Bdk5OYj54ScaGjRtRUVHh9FcaB2ASBX0UEfeEnOOkjVgshueee872mK7FcMs1Z+H4RbPEzNSapXZ+rAc9FTT1sIdOCCF9EnRJgmSzoifJsohNr2sMCiHuj5i3RaL42g9+jyVfvR2nX3Mnjv3S/+CO3/3dOhkOP2wizlwyV4yRB6IoCqqqqlBeXu70V8pJZSgyBX1kMMXpTbcevD27douZ5UGzWl3HpLHjcPXFJwrnNd0w8NyrH+O2Xz2HB554E7UNrWIpytGExDA7XrRkBjyTzhBC+iICstIRtmY7zhhoC/cvk6riVvHfv3keT7z4NkJtIfFdVW0Nbr7zMdx2319F5suTFs1MGDetCYQWbUdrMCX1VbJH470czRutlpj7nTSwb98+1NTXJSRMMHQNZ508ByWTStBS3Ygrf/A7PP/6h13H58ycgj/dca1ImejE2z3UnnwZ3+X1caQihPRuHJhmx5ahJNseaw2G+2Wd19U1Y8W7G0V7nVuRnWPkD+95Gn9789Mui5zQQk8VjuO6orFYV0W0blNNTB1fjM9Wb8UlN94nxPzAuucbtuzEHQ+87OjchmGIpA92L6Esy8goKIJp0sudENLbWKLDm51jm3fdGmdCkailvn1uT9OMpPHr1jk+Wb9dfLqH+Bq6LvbWx5aVOf2VLCupkoI+ugg7bcDn89l6t1sP7W2/+7vYP3rt3c8Sw9kkGWs27UF1XXO/99MVWYY30y+W7VtawgP2PiWEkC4hUFUxliQ4qplGh/OtYfRpm9AwTBTmZYpKkUhiUFjjo+3kQdcwf/4CTJniOC9MOYCNFPTRxU4ATU4amDhhAoqLim2zHzU2NiEcCictI+hxK1DVvne/Jfxev0eEkDz30ip8+78eQUVdfYJ3PSGE9AdT1+HLzoXi9Yol9oPE1+3BvX9+DRd86y58sn4nvBleYVQkQzcMMTG47V8v7sgMF+3H/rsk4/v/dhNczpNibZAkKUhBH13sBrDLSQNlZWVYdsoy25moJMtJK61ZP798yWwUFGSL9Ii9WuQZXmGR3/ar53DsZbfjwuvvPmhP/uBZrg5/QSFU6+U0TI5WhJDetVRRoCTJXWEYhhhvTv7Gz3HH/S+K7yzjIhnt0RgOnzEOf7nvO8JfyBJ1o5fkNNbPXHXVN3DmmWem4td5d9SutIzaB1iSNACfOG3HmlF6A5m2VnqyB/e0pfPxw385H3q0Z090r9ctUi4+8PgbOOaSn+KHdz+J3RUVHUtWPdRYt9sGIISQZEaANysbqtcnxNsOa7wJtYVw8x1/xtnfvgvvfbylI2lMkmX4SKgdRx05Fa89+P9w/RVnIjMzkLic3zkmxmK49Etfwm9+/euULDgA+IiCPjpxPJObO3cufn777cLqNnuolmY9tJaYf/mcE/DYndch0+9Nap2L5fVMP7btrsTFN9yHa2/9HfZUVnU41fVhOUpxuZgpjhDSdyFQ1V4NAVlRxBj02jtrsewbP8M1t/wBm7aXd+XX6L4Ub4l6YV4m7vvpVXj+VzcgEMhIsNStcXHWrFl48IEH4PF4UvGrVAHYNlrv42gf9ddaz51lDDtp5IYbvotwJIJbf/jDpD9z1BHTcNM3zsAly48S/7YLV7OEXPG40NLchvsffhV3PvyqyELXkzWeONvW4MvJE/+HXu6EkF5NWr3Dy93l8yV1ZOtureuahj88/Q/85bXVIknMv1x+MhbOniQMEcQ06AcaK24Ve/c3IBhsS/T5MQ3MOWIOAoGUVTzdIklSNQV9dLIPwB4AM5w2dPMP/h9eePFFrHrv3YME2JqRZmYG8PD/XoPDj5yKSH3Lwda0LENVFUgeF+qqG/Dy2+vxi4deEaFt1oy5P2JOCCEDstAVpV9bdZI1brk9aG0NigQyf1nxIebNmohzT56H4xdMx5TxxXDFxXvVm2tx8y+eEQ53dvnmlh6/JJW/yiej+T6OakGXJClomuaGVAi6xawZ04Wgd39Rmpua8Mhz7+LOwyYKBzfoRkcqRUVBrC2CzTsr8Nzrq/HnFz7Ett17u2bByRD79aaR9Ge8OTlQfUwsQwjpO/78ggFOBDqEuzO+XFEUFOblw+d2IRyNieRbnT97IJ1x56ctPy2Vv8YKCvro5j0AF6eioZNPPhkPPfRwYie7Pbjnj68i0h7DacfNgVtV0Ngawo49VXh3zTZ8tH6XEH1Icq975Fq0HWPHT8CXLrsUTz71NPZXVCS8KKrbLWocc8mdENJXPEmyS8qyLJbYdS3Wo6Fx4NjVKeJ2Qv5PQddwzjnnYtrUqan6FdYCeJ+CPrp5K55ZyHHw4xmnn4FJkyZh9+7dtsL8qz+9jPuffOOgF8RCUV29Lq13xnN+9WtX4Kc/+S+R1OaxRx8XXqkJgu71QXap0MJh3l1CSK9YBoC/oND2mNvtwr2//Q3+/OdHsfLNN7qMlN4s997Gs4LCQvzoRz9M5a9xmyRJ7aP5PjLNGLAewJupaCgvLxdXXnll8gxJ8ZfAEvPOPSjrI/WQqMHQdfHwT5s+A48+9hj+/Kc/iklDXX09Ypp9LndvZhYUl5t3lhDSdzGwMUJMw0A0GsMZp5+OFa++ggf+8AfMnTdfjEn9ShrTTczFquU996TSOn9CkqTnRv095MxUMgH8F4BQKtr73o03dD3wSc/Zh3StnUKemRnAzf/+7/hw1Sp85fLLu443NzcjGI7YFjhQrBfT4HI7IaSvSiDZWuhSfDVx27ZtIoPb1d/8Jt57520h7IuOWdwVjmt9zF7GnM4xLZCVhUcefuig8cwhWwF8lzeRgt4p6h8C+HEq2srOzsajf/6T2OceyAy28+WwhPy6b39bCPnP/vd/hfV/INFoFLFIxLYNX14BbyohpD9jIFye5NG7+gFiHQgEhLC//967ePutlWKcmnXY4V3lT5N9/Bl+XHjRRXjvnXdSKeYxy46SJKmed5F76AdyD4AzAZzktKHZhx+OV15+CVdffQ0++nBVx8xJURP2lawZrWmaB1VsmzZ9Bs4771yxdG+1k4zGxkboup64Vy/JIp60e05mQgjpCU+WfQlxa5zZv39/wveKomDp0qXiEwqFsGHDBmz+/HNs3rwZe/ft67DeNQ0FBQWYP28+jj/+OJGIK8VskCTpVd49Cnr3Gapmmua3AHwKICMVov6P118TXu8PPfIIdu7cgWDLwTHolshblnhpaRkWLz4GZ511Fk484cQEa9yOcDhsu1dvCbwvJ5ce7oSQfox/Mtz+5MNeNBrt8f/7/X4sWrRIfA4x/+Ddo6AnE/XtpmmuBZCSTAeBQEBkkfv2t6/D+vXrsWnTZjQ1NYnlK7/fh8LCQkyfPl04hvQ37WFVVVXSY+6MAC10QkifsQwA1eu1Ty5jGqipqR2Olx0D8BzvHgW9J/6WKkHvxOVyYcGCBeKTKiJJ9s9Vt1sUWgArrRFC+irougFPRkCs8NkVaEk23gwxL8T9n0gcOsUl8qTTOumHgvLy8h4t9N7KFRJCyIEobndHTXQbQW9qGnZDonVB/8m7RkHvEUmSLKX89XC/Trs9LetFlFRVFFoghJA+W+imAXdGJlxee4falpbm4XbJt0iStJ13joLeF+6OxzYOWyorq2xeShO+7NyuF5QQQlJBsK1tOF3OE5Ik/YZ3hYLeVyu9HsDX46VVhyVN3TzmLQzDgCeQyQpthJB+Yei6KOpkjR8HhtF2jTeNw2bJ3bLKf8A7RkHvr6h/COC24Xp9dTU1iV+aBjyZWZBV+joSQgYgCD2PHcPB0/a6+LYooaD3m18Mx3J8DQ2NCEciIolMd9yBQJ9SyxJCSJdS6zo8gSxR2MmO+vp6BINBaYgv81ZJkt7k3aKgD9RKb4/nCK4cTtcVDLZCj2m2x7xZ2cJb1aSXOyGkHyhul6j8aIc29OPJTyRJup13iYLuVNS3A7gMQPVwuabGxkaEwm2iDGuCoHPJnRAyQFx+v80gKKOluRnh8JC4FO0GcKEkSf/Fu0NBT5WovwvgEgD7h8P1NDc3o12znzG7A5mQVRdvGiGk32TYVFyzDIdIOIJo9JCXGl8BYDnLolLQB0vUT4xnkhtSmpqbEWlrExWSus+kxQvJ0qmEkAFgxGJ2Yx9iWrTXfO4pJATgVgBnMNacgj6Yom49XBfFH7bQkAl6Y5PwaO/u/GbNpF0+PwyD++eEkP6TWVySOO7JMurq6tEWOiRD3koAyyRJul2SJOavpqAPuqhrceeM0wFsHopraG1ttf1eVFrLzmFhFkLIgFB6qImudiv/nEJr3BpHH7SEPC7mzM8+QOg9NXBhf9c0zaVxL/hrAJQeqnNXVSf655mGAdntFnncWZiFEDIgQfAmF/SamhrMnDnT6SnqAOwF8B6ADwBsAbDJMpTY+xT0oRb1egD/ZZrmbwGcEq/SdiyACQCyBuu8yQolSKoKT1Y2074SQgZEoLDY/oBpCN+dFPAfkiT9gT1NQR/Owm6ZzI9ZH9M0rT6dBOBoAEcAWAxgDoCUVUypqU3MEmeaJhRVhT8vn5XWCCEDws4prkssUrPk3spepqCPJHHX4vmGtx8g8PkA5gFYAOB7AAoG2r6u62htSbKH7vUxjzshZMC4A4Gkx+rq6lNxihL28uBBp7hDIPCWBS9J0qtxZzpHWecMw0BDQ0Pi97omKq0x7SshZKBk5BcmPZaimui57GUKelpgmmYOgHFOBb1i/37bPO6+nFxmiSOEDBhdS77krqRmyT3GXqagpwseAI7SuEUiEWgR+4xN3uxsSIrCPO6EkIEYHCKXu6zYGwV19SlZcs9iT1PQ04USAG4nDdTU1qJdi9nmcffn5EEenFhRQki6Y5giSsaTmSnCYLuToiX3YnY0BT1dcDw7bWluRkyLJaZ9jRdWkCjohJCBWumDv7rHeHMKetpQ4HTJvbGpCdGo/TaUL68AisI9dELIICixlhIt5gBFQU8b8p02UF9fDy1JrKjL52MPE0IGZp2bBjyZWfAEMm3TR+/fX5GK04xnT1PQ04UMpw2EQiERopZQmEVRhZc7C7MQQgYk6IYpomSsscRgxUYKOukVx/nea2pqbb9XXS6Rx52FWQghhIJOBh+v0waCwaDNzNoQM2uX18fCLISQQYF76BR0cjCFThuoq0u00C2rXPV64cvNYx53QsiAME0Dbn+G2EOHTYGnxqZmkXraITmmaTI/NQV9pL8sppSKPfRgsM3+RqouqB4vO5oQMnBBUFXILvtAHC01xgLjainoaYGSijzG9TbZmgzDEGLuZelUQsjwhkuIFPS0wOu0hGosFkOwzd5CV1wuKG43074SQggFnQwyKoCAU0FvbGxMPGAayCgoYpY4QgihoJNDgMfpkrsl6CKfsk2lNSaVIYQMJoampSI+XXGaLZNQ0IcDLqdOcbpuoLWl2baMoS+XhVkIIQPH1HW4AwH4c/Nsjzc0NKCpqdnpaXKcbj0SCvpwIN9pDGZ9Qz30JDNkt5cWOiHEoSDIymBv3UnsZQp6OpDl9GFuaW6GliRxjDc3j3vohJCUWOqEgk56JttpA21tbWIfyw7V67UtqUoIIYSCTlKL40prdfX10JMIeqCwWCyXEUIIoaCTwcVxlrhwOCxSL3avtEYIIYRQGQ4dRU4bqK+rt82xrLo98OflQ9c19jIhhFDQyXAnpsXYCYQQQijoQ8xYpw1UVVUlfGcaBlS3G56MAEunEkIIBZ2MVDpLp6peHwuzEEIIBZ0cAhyHrTU0NCQ9JikKTFrohBBCQSeDTqbTBuwqrRmGAXdGpnCKo4VOCCEUdDKCMXQtacIZQgghFHSSIkzT9AAodNKGruuoram1adyAy+uDJ5DJlI2EEMcMcgppag47d8TjcloyUNM0RKJR22OqxwuX389eJoTAmeGgQU82zqgq3G7HlU+txhl/S0Enag8zZzrEEUKcWuaxtjZEWuxLpObk5SEQCDg9TVP8QyjoI5YMpzWAI5EI6mprASnxlnkysyDJLMxCCCEUdDLYuAA4Kliu64YQdTv8WdnsYUIIoaCTkY5m0BmOEDIiYElICjohhJDBxtA0GDF7nzU1Nd7vtD4o6CMen9NMceFwCLV1tVBsXqqsohJIEm8lIWTgWGNINNSG9mCrra9Obk627fjTT5okSWpnb1PQRzKq07A1XdcRjdrPnGWXiz1MCBncQUxVU9EMM2BR0AkhhAwlWmqyUarsSQo6IYSQQUSSJUTbgoi2tdourZeWlqbiNNXsaQr6iJ/cOm1AUegcSggZREGXZJElTk9iiXu9vlScppk9TUEf6WQ5baC1tTW52HMPnRCSAkxDh8lCTxR00iNjnDZQWVUlZs6SnHjLAkUlkBTeSkKIAwtdkRELhxEJttqOM2PHlqXiNOXsaQr6qEeReasIIYOLriWvm+JSU7ISyMIsFHRCCCGDTai+Lumx/IL8VJyikb1MQSeEEDLIaEnqRVhkZmam4hT17GUKOiGEkEGmra7G/oAkIyc7JUWg6OVOQSeEEDLYxHqw0IuKilJxCtZCp6ATQggZbEINiSvipmEgOzsLivPUrzEAYfYyBZ0QQsggE21ONKB1XUdmVjb8PseJZdq45E5BJ9ZLZRjsBELIoBK0sdBhGsjJyUEgEHDafCMtdAp6OuA89Svj0Akhg4SkKIgGg4iFQ7bHM7Oy4PV6Hc8X4lY6oaCPaCqdNjCmtFTsYZk2lnqwpgqmTgueEDJAQe+lFnpOVhY8Ho/T0zRR0Cno6UDUaQMetzvpMT3G5EuEEAeCLkvCQtfaI5BtVgPz81OSVKZFkiSTvU1BJ4QQMogWeqSlCZGmRsg2lR0LCgpScZoq9jQFnRBCyGAKumIJejOi7e22x1NUmIWCTkEnhBAy2IgYdNPGF0eSUVhQmIpT7GcvU9DTgVanGZJ8Pr/I1GSaiVtQwdpqmCad4gghA8MaV6xxxA5FUVBaVpqK01Sypyno6UAMQLuTBqyXyuf1wrDxcteiUfYwIWTgGCaClfYGtCTLmDBhQirOsosdTUFPB1yWJjttRNM09iQhZBAsdAPNlRWJOq/rKMwvQE52jtNTMEscBT1tCDutA+x2u5CXl2f/ptTVwjQYDUIIGaCgWxZ6TeKSu2EYKCophs/nOKlMTXzrkVDQRzztACKOTHyXC/6MDFunFSMWE3GkhBDSXyRFEWVTw82NiUllTAOlY8bA5zyPezUtdAp6uhCLfwaMqqpQFftVe609glgoxF4mhPRfBBQFofpakSXOLqnMmDElwofHIZWSJHHPkIKeBjNgSbIs9FonbVgvVGGRTeiIJItMcdbLKDl/6Qgho00EVFVs20WDQdukMuPHp8Qhbh97moKeTrQ7bcDtSkz/as2oLQtdi0REtidCCOmfwSGjpWo/dC1mazBMmjgxFafZyp6moKcTjU4bSJZ+0dBiokoS99EJIf3F0DS0VCQa0KZhwO3xYOJEhqxR0El3HDuE2NUjlqSOogrRtiAtdEJI/wVd11H/hb3e+rweTJkyxekpLNN/J3uagk4L/QAKbSx0SZaha1qHoCu8nYSQ/qFH29FoCXo3g0DXdZSWliE3N9fpKaqc+hARCvpwo8ZpA/kF+eKl614TXddiCDc3QZbpFEcI6YcAqC4Rfx5uakj0cDcNTJs2FX6/3+lpvgAQZG9T0NOJeqcN5ObkJA0faW9phmHo7GVCSN8FwKWipapCbNtJUqIPzvTp01Nxmm0MWaOgpxuOKw0VFxfD5bXP2BSsqYKps0ALIaQfAiAraKkoRzQSFtt33Zk6dWoqTrObPU1BTzeqADjKz1pSUgKPam+htzXUs+IaIaRfGIaOuh2JEWXCw93rS4VDnMVm9jQFPd1ocerpHggEkJmVLZxVEgS9rlZ4qxJCSF/Ro1E07v0iUdBNExl+P6ZPm+b0FDEAG9nTFPR0o82pp6fX60VxUVFiPndJji+5U9AJIX1DUhQRHVO7fQtkRT3Yctc1lI0di7KyMqenKWcddAp6OhKJL7sPGI/HY5aVlSbeRFlGuKlRfJj+lRDSp8FfUdC09wtErHHDxiHuyLlzU5HDfXPcmCEU9DSaDXd4eZY7baa0tNT2QCwSFgUWZAo6IaQPKC43Gr7YhWjY3iFu9uzZqTjNZ5IksbYzBT0tcVygYOzYsbYz7VgoJPbRZVVlLxNCesU0DdR8vlEsrx/0vWFAUV2YM/vwVJzmc/Y0BT1dcRy6Nm7sONvvtWi7KLDA5DKEkN6Q4kZA3Y5tCcd0XUdubg6mOY9Bj9AhjoKezjjOZzxu/DgRTtI9W5xFa1Ulk8sQQnoXdKnD76Zu57YEhziYBsrGjsO0qVOdLpVXAtjC3qagp7Ogx5w0MHHCBBFOYpqJ71rTvi+gtbezlwkhPQ/8LhUNX+xEqKHe1u9mwfx5QvcdnmaNJEkckCjoaUul01j00tJS5OTkwLCx0Jv3V8CIxejpTgjpEUVRUblurdiqs2Px4sWpOM1H7GkKejoTBLDDSQMejwfTpk1LiEWXFRXN5XsQaWlmLxNCkiL2zyMRVG5an3DM0HV4A5mY49zD3QSwlr1NQU/fF6kjdG2r03bsCiZIkgQtEkFz+V7hoUoIIfbjkIy2uhrUbNlkm1BmXGkpDj/csYd7DYBN7G0KerrzhdMGptkUTJBkGZG2NjTu2c3QNUJI8kFfUcT+ebCm2nb/fN78eSLNtEM2S5JUzd6moKc7juMyp06dIqzwBE9300Djnl3sYUJIUhSXq8f985NPOikVp/mAPU1BHw1sicdnDpjJkyeLOFG7Ii11O7eL/Mx0jCOEdKdz/7z809UJxzorrC1csCAVp/qQvU1BHy2C7qhIy7Rp01AyptTWMa5+1w6RBpYQQhIGfEVBa9V+1G77PGH/XNdimDJ5MmbMmOH0NE1MKENBHx0z5I64TEf1gRVFwWGHzbJ9WYPVlWip2Mec7oSQxDFCVYUznMgqaRd/vmBBKvbPdwHYw96moI8W1jltYP68+bbfa7EYarZsFoUXCCHkYINCxq53VyY9fvrpy1Nxmk9YkIWCPppwHJ85d+4RYsmsu2OcoWui4IJdOURCyCgWc0VBuLEBlRs+BSS527ihIzcvH8emJqHMSvY2BX00sd5pjeAZ06ejuKjY3jFu1w6RYIaOcYSQThS3G/U7t4mCLKrLlWAIzJ4zB+PHj3d6mjYmlKGgjza2O628NmnSJLO0LNExTlFdqN6yMWmOZkLIKB3sZQW7P3hHOL/ZccLSpcI/xyFbAexmb1PQRw3xjHGrnTZjl29ZkmW0t7Z2ZIFighlCSHy5PdoWxO7337Y9rro9OP+8c1Nxqk/i4xuhoI8q3nPawPHHH2f7vaFrKF/zEWujE0IEiuoSoWq1WzYlpIbWYjHMnDkzFeFq4P45BX20stZpKdW5RxwhHFkMm330inVruY9OCIlb6B3e7dFIWKziHYRp4JRly1IRrtbECmsU9NHKFgBVThqYMmWKKNRiWeQHoro9qN+xFU0s1EIIsazw9vaky+2youKC889LxWk2AChnb1PQR9+MWZKanCaYcblcSesWR4KtqNrwGffRCRnlqD6fyN2ebLn9sMMPx8KFC1NxqlXcP6egj2beddrAqacsS3rsi3dXwuzmBU8IGXXGA3a980bS5fbTl58Gv9+filP9nb1NQR/NrHLawFFHHY2x4yeImfZBN1ZRsX/zerTsr4DMZXdCRqeYK4oIYd36+isJyWRMwxDbcxdfdFEqTrU7vuROKOijlm0AHNUMLiwswNFHLbQp1KKIPfT969ZAcVPQCRmNqB4P9n70vhgLuieT0XUdC+bPx/z581Nxqnfi24iEgj5KZ8+SVO50H93itNNOS3psx5uvifzNhJDRhx6NYdvrLyc4zsZNdJxzztnCFycFvMLepqAT4B3Hgn7qqcjOyUnI6w5JRvmnn6C5Yh+X3QkZZYhUr7u2i+xw3Z3hDF0XY8ZFF16YilPVAXiLPU5BJykQ9EmTJpnHHntcQkpH1eXisjsho1XQXW7sXPkawk2NCc5wlsV+wgkniIQyKeAtSZKq2eMUdNJRSnW/wzaks848M+nBba+8CNNkNUNCRguSoqCtvhabX3re1hnO+u7SSy9N1eno3U5BJ+jYR68H8KnTds488wzbZXdZUbF37Udo3L1LLMERQtIfl9eHXe+8idqd2xOd4bQYpk2bhvPOTUnu9iYAr7LHKejkn7zutIFJkyZh2bJlCcvusqIgWFeLHW+9ziQzhIwS61xrb8fmF/+aEP3SyVe+8pVUpHq1eIXL7RR0cjCvOc3rbnFhMgcXScbW115CNBhkbndC0hzF7ca+1auw95NVIs78QLRYTKzkXXbpJak63V/Y4xR0cjC7AKxx2sgZp5+BSZOnJCSZUV0uVG/egH3WC+7xsLcJSXM2Pvc0tGh74gERqnZuqpzh9rG6GgWddDegJak9Fd7ueXm5uOSSi22X2ayX+/OXX4CpMxUsIemK6vGieuM67Fj5WoJ13pkZ7qqrvpGq0z3HZDIUdJLk5UhFI5decgncXl+Cc5yiurDz3TdRs2WTeOkJIWk4oKuqsM4jwdaEY7oWE8Wcli5ZkopTxQA8wx6noBN7Pk1FLuQFCxbgxBNOSHCOk2RZxKNu+tszojYyIST9rPPabZ9j08vPJy2b/L0bb4CSGj8aa6x6j71OQSc2xJfdU5I+USyp2aR7lRUVm196Dg27djKEjZA0tM4/e+KPtolktGg7Zh8xF6cvX56q0z0oSRKTW1DQSQ88nQpv9/PPOw+z58xJcIrpDGHbuuLFhP01QsjIxZqgV3++UVjn1sTdjhtv+G6qyqRWA3iWvU5BJz2zLhXe7h6PB9dde639DVdUrHv2CZESlvndCUkf63z1nx4Q1rncbUldi8WEdX75l7+cqtM9z9hzCjrpBUmStFTNfC+99NIkddI7yqp+9tSfGcJGSBqg+nzY/9kabHvtJfu9c9NIpXUeAfAAe52CTvrGk/F0io4oLCzAdd+61jaEzbLS1z/7OOp3budeOiEjHD0axarf3Ss82xP2zlNvna8CsJa9TkEnfbPSywG8kIq2rr3m2qRWerCuFp899SemgyVkBOPy+7HjzRXY9e5Ke7+Y1FrnFnfRGY6CTvpvpccG00pXVBfWP/uEWKpTfT72OCEjbfBWXQg11AvrvHuYKuKe7YuPX4KvffWrqTrlhlTUnSAU9NHGilTEpHda6XbpYCVZFkt0H/7h1zB1nTneCRlhKG4XVv/xAVRv2WSbFQ6SjFv/49+Fk2yKuDceXkso6KSvxJe0HkxFW5aV/m833WRrpVuDwLY3VmDb6y+LcouEkJGBy+9HxZqPsfaxh2wd4SyL/cILL8CZZ56ZqlPuZmY4CjoZOI/Hix845sorr8DcefOTFmt4/9d3obW6kmFshIyEQVt1IRYK4f+zdyZgUVXvH/9eZmFA9k3Afd/FXMIlLbNcMzXLJTN37admPzO13DWX9O9u+TNF09xRMzNNrdwXUFNxyQUVFwQEZBOBYWa4/+cc7hDCDAzOBYHe7/PMMzjCmZl77jmf877nfd9zYsVCk4FwGQYDP1Ft2tSpcr7tMqrbTkAnvbiVzgbPOjnacnBwwKyZM0wWnGBWesztmzi7diV34ZFIpOItpa0tgteuxL2gEyYD4TIMeowd+zn8/PzktM430JUnoJOsUwCAWDkaerdrV7F7924mrXSFUoULWzfg3unj3JVHIpGKp9RlHBB+PgjnN6w26Wpn49vvlcYY9/lYss4J6KRiZqWHA/herubmzJ4ND09PkwFybCI4tmgukqMfk+udRCqGUqjVePYkBoe+nmTS1S5mZPCTFr+ZN5d75cg6J6CTip9WyWWl165dG198Md5sgFzktRAErVqWq3QkiUQqBgt8hQLHl3xjMqodUiDc8GHD5DyAhWkhWecEdFLxtNLx6ehRPDfVlOudTRIXAzfh2t5d3LVHIpGKh2wdHHFp24+4tGOTSZgbT1ObOWOGnG97Ra5sGxIBnfSPVgCIkKMhe3t7rFi6BA5OTrlc73yVbzDg6MKvEXU1hPbTSaRiIDYO7548gmOL5pgMbBUzMjjkly9bCjc3V7neVgQwnfLOCegk+a30xwBWytVekyZNMGXyFNOud5WKl4Xl+3QJCVTrnUR6iVLaapDw4D4OzfyK75ub2g4z6HWYMX0a2r7xhpxvfRTAz9QDJYwVdAlKhkRRdAAQDKCuHO3pdDp0694Dv+3fZ96F17UnOs9byvNaRYOBOoFEKkprS6mCPi0Vu0YOxIPzZ8yO006du2DvL3ugkC/25RmAVoIghFAvkIVOKhwrPRnAFLnaU6lU+O7bFZmHt5jZT7+6dxdO/28pz3ul0rAkUtHCnOn3ryflCfMqVath1f9WyglzpqUEcwI6qfD1M4B9cjVWpUoVDnUbhTKz9nMOKZQqnF61DJd3bKHSsCRSUS3eFQruWj+5fD5fVJsuHmOAxsERq1d/j4oVK8r59jcBfEO9QEAnFb6VLgIYDyBJrjbf7doVs2bNNHlakzHP9fD8GfyIRop8J5EKH+ZKW1uc27AaZwK+MwlztvjOMOgxf84cvNWundwf4b+SN5BEQCcVAdSvA1ggZ5uTJ01Crz59TLremaWQ9uwZfps6DmGnjlLkO4lUyDA/u24Vji6aY7ISHKQguNGfjsGYMZ/K/RHWCoJwgHqiBN9DdAlKnqQAuWMAGsvVZlxcPDp36YLgIPP7dQ4ennjv2x9Q7pVmSH9Gi3gSSU6xxfJfPwbg93nT+Z54zkpwxnH4brduCNy+Xc5jUSFVhGsmCMIT6gmy0ElFa6Uzmo4CoJOrTTc3V2zc+GPm2elmguSSY2Pw68QxeHz9KrnfSSQZxcYTh/ncqbCxsTELc//mLRCwJkBumKcBGEMwJ6CTXh7UgwDMlbPNGtWrc6jzeu9moB53/y5+Gj0ID4JPEdRJJGvHsULBx9H5Dau5ZW6jUJrMNWfjsU7degjcvg2enh5yf4z5giD8Sr1BQCe9XM0GcETOBlu1bIkN69fzQx5MVZJjUE8If4A9n4/gULd1cqZeIJFeZPJVqvg++ZnVy/Hn/JncMjcF8wyDgZd1DQzcLndEu1E1RVFUUo8Q0Ekv10rXAxgBIFTOdjt37ox1awOgtrU1C/Xk2BgO9Rv79/A60yQSyXIp1GqIYgaOL5nLA+AEQTB7KFKGQY8unTuhfr16hfVx+gKYSL1SCphAl6BkS1pZHwLQVu62N2/ZgsFDhiJdq+UlYXOKwV5TpgzenDgDDT/4EHqtlirKkUj5SGlnB21iIv6YM8VsnnmucZ6RgWHDhuL/FiyQ82jU7EoB0FUQhMPUQwR00suBORvZPwB4v7Deg0H9k//8B6kpqSYDdTIMBm5dtBgxBi1GfJb5ml5HnUMimZDK3p7XZj8wbTzuBZ2wCOZZC+h0Ldp36Ig18heTMeomgOZ0XGrJFdXzLLkwt5WONuxdmO/TsEEDODs5Y9++fSZdghzyooj7wSeRFP4AFf1bwraMI3cTkkikf2Tr4IgHwafx64TRiLh8oUAwB68JoUTorZv44/ARtGnTGl5eXnJ/RA8APjNnzqRDWUqoaA+95GqWtPdVqDp+/Dg2b9vGA3bMiUHdWPt918iBeHI3lPbVSSTjJKtUccv80vaN2DVyAGJu3zQLc71Oxx8ZZrau+Di7HMIPZAkODi6MjztAFMV+1GsEdFLRWec9pBKwhSatVouZs77G2x064szJE2YDdnJONo8unce2QR/g6p4dPB3Hxky1KxLp3yAGcl3KM/wxaxL2Tx2H9NRU8zBP16LNq/WwYf5IVPLxMZk6ahxn4Q/uo0ePnnzBXQhaJIpiDeq9kifaQy95MGcD7bTkHisUXb12DePGfYFDBw+YzYvNS2wiYn/X9KPBaP3ZRGlSS6HOI/17JlaFAmo7e4RfOIs/v5nBF7p5udjZmOn+dnOsmT0YHhW8EHbjAT6ZsR6Hjl/IcwHg7OKC3bt3y30WOtNuAD2l8yNIBHRSIcCcjew9ADoU1nts3rIFX4wdh6joqLwnIJ0OEDPynaQqNm2Bt6bMhnfdBkhPTaEoeFKpl9LODhk6PS5t24CTKxcjNSHe7DjJMBh4vMnojztj8cQPoVIrkZaWDo1GjaTkVIybtxkBgX/wfHVz1eN8fMph9+5d8Pf3l/urfCQIwmbqUQI6qXCAPgPA9MJoOyUlBRO//ArffvttnqA2TkDMmmD6+fcgs5ONccKxc3FFi+Fj0LjfIP67em0adSap1Frl0Tf/xrHFcxF65FCeHi62KFbb2mLBF33w2YAOMOgN0On/WfCqlAoeuzJn1R5MX76Tv2auihyD+qHfD8qdqx4GoI0gCOHUuyVDFOVecmD+JoBv2TiXu+0bN26gd98PsTNwOxRKpdlTntjEYVumDKaPeg+Lv/wQvTv5QxRscOL8DRgMBpOTDZvQ9GlpuHvyCB7/fQWeterA2bc8MjIMPDqeRCoVVrmtBhCBS9t/xG+TxyLq7yt8UZzXQreSrw+2LPwP+r3XGjqtDnpDxvOL5wyRt9m2VX34erhg/4nLmWmiOdpkYywpMR4nTp5Ct3e7wsnJSa6v5QogdebMmZSbThY6SUaYuwA4C0D2QJUDBw9i2PARPMgmP/d5g9rVsHxKP7zRsj50qemZVoRGhW17z+DTOZsRGxOTbxsOHp5oOmA4GvcdCLWDA+2tk0q0ePlWtQqPr13ByW8X5muVixkZ/PjT9m0aY8WU/qhZzRdpKdp830dTRoM1W/7EyFnrOdTNWeqdOnfB7p92yXl4SyyAV8hKJwudJJNmzJgxH0Bnudv9fvVqDBo6DHEx0Xmm0TAN+eBNbFwwAnVrVeATkCiK/KHXGdCoQRW0b1EX1+8+RtiDCAiCDS82Y8paT09JQdipY3h04TwcvX3gXrU6/13aWyeVKEtIoYDKzg5piQkIDliJ32dPxuMb1/K2ynU67gGb9EkPLJ38EXzLuiJNWhjnJ71OD/8mNeHj5pynpX7rxnWkabVo//bbcn1VewBPZ86ceZR6nSx0kvXWeRMAZ+R2tc+ZOxdTJk8GBBuTZV2NK34PT0+smNwPfbo0z7XH95wFYW+LpKQUTF6yA6u2/cknL3PtGttmk1/9bh/g1UGfwKN6TejS0qjKHKnYS2lnB0N6Om4d2ofgtSs5yPPLBsl0sftiyeS+6NHJHwatzuxYMmt92dhAxSz1Tb9zS51Z+zmhbvQAbNu+Hb179ZLrK1+RzkrXUu8T0EnWAf0nAD3kbHPil19iwfz5ZoPZjJNCG/8GWDl9AOrVrQzdszQYMjLybFelVEChVmL3gbMYNy8QYeEP8wyYM76Pg4cnmvQbDL/e/VHG3RO6tFSy2EnFD+S2GggKGzw8ewZBAd/hzokj+Wd6SB6uvu+0xvzxvVChvCfSnr14UKgR6rOX7cTUJdtMvjdbPHh7eSP4XLCcJWLbUZ13AjrJOpg3B3BcTus8P5jzKPaMDIzu3xFzxn4AJyd7i/b4nrPWy2jwMDwGE/8vEFt/PZE5GeZlrUspcJ7Va6HZgOGo3eld2Do6EdhJxQbkNkolHl+/irNrV+LW7/uRnpaab+lWI1hnjemGoR+8AcFG4Clp1opDXa3EsMkBPKXNHNR79emD7Vu3ijLN88sFQfiM7gYCOunFgb5KOh5VFs2c9TVmTJ9mPqdVp4ODowMWT+iLYR+2eyG3oFG2ahWfwLbtC8KkhbvytdaNkxBTuUZN0aTfINRo15FXmyOwk16mRR59429cDtyEa/t/5jnl+d7H2azyGZ92R83q5XgQaX4eroJIpVTgWVo6un6yGMeDr+SCeiG43oMAtJaObCYR0EkFhLkLgMsAKsjRXsDatRgx4hMegGauQEUlX1+snTcY7Vo3tMotaMpaXxCwL3NvXdo7z8+yyQ726m3bk8VOKjqQ29kBGSJiQm8UCOSQPFxN6lfDV8PfQfe3mvLXtOmFExei0ahxKywSr380H1Ex0bm8YGxhUaNGDQSdOQM3N1dr3y4BQAOKdiegk14M6G8C+EOOPjp1+jQ6duqE5KfJps81l1LSflwwHI3qVS6wi90Sa0KhVuLPk1cwa+UeblHkFYz3HNgFG5Tza4z63d5HrQ7vwN7NHYZ0HQXPkeSdCBUKKG1tkaHXI+pqCC4FbkLo4YMWgzw7REf374gVMwZC1BlkhblC+gzZLX22YP5x53EM+mqV2VS2b+YvwMQJshz90FUQhF/pbiGgkwoO9MkAZlvbTlxcPF5v25af0GRur62ZXy0ErvgMlcu5yw7z5ywKKRL+h13HsWTdQdyPiLCoVrzRYvesXgv1ur2P2h26wqViJYiGDKo6R7JKxjzy9ORk3Dt9HFd/2Yl7J4/yPfKCgDzn/dq36+tYNWsgHO01VkOdLYiZjNtfzDI37sUzyNvYCHh/zApetTHnGGcLjCpVqiA4KAienlYf/7BAEISJdNcQ0EkFBzpbCXextp2xn4/D0iWLzcKcWeb7Vn+OCuU8ChXm2a0MlZ2au+GXbzyENTuOITEhwaLJ0xg85+Tti5pvdkCdLt1Rtr4ft6z0Wi2540kWS2lnx7efkiIeIfSP3/D3/j2IvHKJlzW25Jxyc8Vdso+tNv4NsH3xKHh7ubxwMJytWoXQ+1H4v4B9CLn5EHYaNYb0fB0f93gtq00G+Guh4Wj14Ww8fZqc63Oxz7ImIABDhwyx9rIdkaLdqcQjAZ1UAJg7ALgJwNeadkJCQvBamzZIeZaSe5DrdPD29MIf679AvdoV+Z650TWOjH/GqxxRueYmKkGlwLmLoViy/hD2nwjBs5RUi/7WWE9erbFDhVdbok7nbqjcsg0cvMryYjeG9HSCOyn3YlKthkKlRvqzZO5WD/3zAG4c/BVJURGZkLcA5EZvkY9POURGPsq3joMR6mU9nAtsqbPxGBGTgC7DF+PKjTv8vdiClj3PH98PE0a8k7UI15TRYPy8zVi4Zk9uKz1di7ZvtsPBA79BpbIqYSZSqhr3mO4mAjrJcqC3BvCntelq/T8egE0bfzQZAatQKvHLd2PRoV1jpD1N4YC99ygGi9cfQHDInSxLoH+3VtDrDbJG6D5nrbs68J+XrdyDCQu38ZQ5i6+TFMnL5FapKqq/8RaPjPeu78ej4zP0ev7/BPd/N8RtlEq+PRN/PwxhJ4/g5qH9iLh8IeuYX0uOBzaCvEbNWpgwYTyvxLZ376+YMXNGniWP2d+1b9MYe777Lwd0QbJGGKQXrNqLiQs2Pte+MbV09dfDeDYKW4wbLflW/ebybbbs34mNE5VGg4vnzqJ27drWXtI2giCcoDurmHqe6BIUSzWwFuZXr13Dz3t+5hNWTjHIfTWiWxbM2UTzODYR3UYue84SOB58BfFJz/DZoI4wyOyO5xa60gbnzlzLstAzCrhoEGxssia6uAf3cHbDalzYugFl6zZA9dfboVrb9nCvWgNqB3s+sbKJkOD+74E4U1LEIzw4exq3/vgNEZfOIzk2JvN3lKp8LfLsC8b6Df0wetRIvNfjvay96FGjRuK111phyNBh+Ov8OZPtsdcOHb+AwZPWYsM3wwoGdUMGQu9F5nrZCOvxC7ejWcOqaFSnEvek1axeDt3b+vHc9OxAZ+MkLfkpjh0/LgfQ/QEQ0AnopALoNWsb2LNnD5KTkkwGyTTzq4XxQ7vAkJoJaYWdLQJ27uUwz/777HeXrDvIT1XzdHN84Zz0XFa5tIe+IGAfVgcesSoAKetGzuZKfHTpPH8wwPvU80PlVq+jauu2cKlYGbYOjjDodGS5lyIJCgUHGLt3Wd8mPnqIiJC/cPf4YYRfPIeE8AcSCJUWudWzg9y/eQsMHToEfXr3hoODQ67f9fPzw2/792PosKH4Zc8es1DfuvcY3F3LYMX0AfwUNYs8Xgob1KjsY/K/2PdNTEjAxIXbufXPI+BFEe+2a4KAHaYLup09exYjhg+39nK3pDuOgE6yUKIoshmhqbXN7N37q8ntFBsbG3w+qBOcnMtkueoePniMgO3Hc1nzCoUCCSkpiHqSyAN7rAU636NXKrDtl9P4ckEgj3K3xFIyTrKiKHIrnn2uvOBvbC89ORl3Tx3ljzOrl6Ns7fqo5N8SlVq0hlvlarBzdYMoZvA0OPZMgC9ZEOd74goltMlPERt2Bw/Pnsaj88F4cCE4yxK3FOLIFnSpcXBEl3adMWDAAHR95518952Zxb550yYMGDgQP+3aZRbq3248gAre7pjwSVcYLKjzYNDq0Ped5li78wRu3b2Xq11u/Z+4hI17TmUVgmpUpyIq+Xjj4ePoXFsJobfv8KFk5VZrJVEUlVRghoBOskxVrS0mExYWJty5czvTdZ5jwmpQqwrealE36/hTQWmDWd/u5nDNOWEYDAaUdXOBt7szP5jFGmnsbREbm4ivFgVmWRD5TbTG4DcmtcYOTo4OcHR0wsPwcO5Cz8+qz+6S16Wk4F7QCf5Qf78c7tVqokJTf/g2agJfvyawd/fItN4NegqqK64AV6qgUKn4IT6pCXGIvnEN4X+dRUTIBURdvcTdyrDQnf7cuJD2x729vPF+717o06c3WrUsmCHKrPcN69fzn81BnS2mpy7fiYq+7ujTtUW+WSVsAV3Bxx3bl/4H3T9ZhvuRUSYD8FZs+gO9uzRHGY2aj9VKFdyllNDngR4fH4/k5GTBlKehAHIF4AzgCd2VBHRS/qrN+GdNAzdv3UJCYhK3ZHOYuejQuj48PF24dc4gu/vAWaz/+QSfBE2YxejVqSm8vV2tSmnTlNHwaPZRs37EuZCbFleKK1+xElq2bIHm/s3RqJEf6tSuzSfOQ7//ju2BgTh44AB3O8LCCGXj7zArP/JaCH8oNqtg5+IC30ZN4evXGF616sKrdj3Yubjx/GT+eSglrshlzA/nC8t0HbTJSRzg0Tf+5vCOuHwRydGPs+4V1rcFgrhkjbP7vsVrrdHngw/Qq9cH8Pb2fuHPnB/UGWDTtVp8MmM9ypd1xWuv1s53XKWlpaNR/SpYMb0/3v9sOQx6/XOLWAb4KzfDsH1fELfSFTY2cHMqY2p1i2fJyQzosBLojtKDgE5AJ1kgq49Hin4cbbLEqo1CiQY1Mo1/lVKBqKh4fLlol8mjTpl1XMnXF8N7t4Uh/cW8a3y/XKPilaz++81WxMc9yftkKmlybv36G+j3Yd/nApCy670ePfgj9PZt/PTTbuzYsQMXL17MsuYLAnemlPh4HjTFHmqNHew9PDnUGeA9q9eCZ626KOPhxSdkQWHDI6ZpD15eeNuolNK5+JnX9mlUBJ7cuYWY2zcRff0qB3hKbAyPtzDey8Z9c0uV3eNTpWo1dOnSBR+83xMtWrSwNp3rOaivW7sWMbFPcOLY0dxucpWKL0I/Hh+Avas/Q70a5fNNDWWL765vNcbH77YyfRiLmIFNe09jYI/WUCoVSNGab0+hoCmfgE4qSllddPlJXJwJYzuDTyZl3Z149KxCqcDUZTtN7s1lTn56jB3c4YWPe7RVq7glPHXxDsxd9TP/2Wxqj2QtNWnaDJMmfWXRviVTjerVeUnLT0ePwvnz57F12zYcPHgIYXfvmAS3WaBIQVXcGtTrkRQZwQOpGODZ39u7ufM9d5/6DeFevRbcKleFk295ftQrbAQOIn7N9HqKpM8P3NKiKKvvtVoOb/aIvx/G4R359xX+75S4J1mLPGZhKgoI8Oz3FpOHpyfatGmD9957D+3fbi9H5TSTcnZ2xtbNm/B2+w64/vc1k3vfYeEPMeirNdi/ehzcXRzzz1HPEPHfgR2x49D5XMVjWHun/rqB89fC+ALhXnhcru02dg3c3Nzg4uJs7deLBxBLdzMBnWSZrC7+rDYDQwbVlDQtUEaDvXvP4Iefjpl0tRsLYozo3TZrr70g0mjUiI1LwpjZm3l0Lw9MyqP4hqubO6ZOnYoRw4fB3t6+wO/H/oZN1OwRExOLEydPYPfun3Hq1Knn4G5JJD37fyFbahBT0uMoXnzkXlBmto7GwRH27p5w8ikHr1p14FG9FlwrVeFWPIO/MdgOmUGOfDLmoC/lgXcCg7Vgk3ntsi102GsM3M9io5EaH4fk6Cg8CbuD2Ns38eTubf56dvf5i1rgOT09kPbFX23hj+7du+ON11/nZVCLQuXKlcPWLZvRqVMXXoDGFNTPhdzEsCnrsHXxSL4AzgvqzIqvV6sCOrf2k8bU89tpBr0OP/1+HklPU3H7frjJ8VaunK8cnogoQRCSaZomoJMsk9VVmDwky4NZ5UaAsWc20T2IjIP4NBWTl+zkQW85Bz77GwcnJyyc0Ifvsb/IWei3bj/CsKnrTB7r+I8HINP92b5DRyxatBD169WT5eIxq8voko+KisLpM2c43IODgxEaGspMtueAYdEgyXGNdGlpPO897v7dLMiz9hw8vbjV7uBVFq4VK8O1clU4l6sABy9vqO3LQOPkzE+NU6hUHPQc8BLwsxYA2X7m/36JCwAhey6zYMOPwxUky89oZfPXFQoYtFpegU2b/JQ/M3AnRoQj4eF9xIXdRnJ0NA9kS2ZQT4jPuYri1/hF4I0crnRki73o2KFDkUI8p/z8/LDuh7Xo1r0H3zvPeR+x7/vz70H49GsHrJo5yKIc9SHvt0bgb6dzvc4Wq7t+u4CDJ66a/Vu24JVBx2mKLsaLaroExUuiKHYEsN+avjl1+jTe6tAR6ampz0GLAX1or7fwasNqGD51jdmT1+ZP6M9Tawrqatc42uPkmWsY+OUPuHP/Xp7VsxgAp02bhklffSnb/mVeSkxMxLnz53H48BEcOnQIt2+HZgXUGd251uTBmwJLlsdEYweHsj7ccrd3dePPDp5lUcbdA47evvzZ1smZn7+t1Gj4dcssjqLideo5WLPlLRsXAznum+dK9pqHdO7vaGOjyP6PzD5KS+Xfh4GaWX/6tDS+pZCe8gzapEQ8exLDwfw0KhLJMY85wFPi4/hzamJ8bmjLeJ15njhb6EjXgC1AK1euwuH99ttv4dVmzawKbpNb369ejU9GjDDrITKOSwZ1ZDuEJRe0bWyQmq7DWwO/wbnLoSYX4+w+yLlQZa/b2dvhXHCwHIVlOgmCcIBmagI6yTKglwVwA4CLNfCq39AP4Q8f5hr0jg4OcNLYmsxTNbraDwaM55OHpeVejcVitv1yGiNnbeTpMXm52H18ymHV9//Du127vrTLHBISIgQFB+PkyVPcNR8ZHZ2V9iQXePKFvWDDU5kEQeCleDUurjx1Tu3gyK15BnX2zBY/ds7OsHV2gajX87K2bFGQkc16t3dzh0pjl+/nYCDWa7WSV0HBQZ2SECdBPI27vpnSnz2FPj2d5/JrnyZxy1uvTeP72tlrAiDHwqIgno8XBThbIHl5eXErvM1rrdG8uT8aNmxYJAvDF9WkyVMwb+6cPBe5Rqize8Kc+50tmhes3JOrHGxeYm1/1P9jbPxxg7U56AlSLfd7NFMT0EmWAZ31yWkAza1pp3ffvgjcts3koM/uis/+mkqjweF1E9DilRoWH8piLBazYM0+TF4amOcpVGxi8W/eAgEBa2Rzscuh5ORkXLhwAX9duIig4CCcO3sOjyIisiKqYeH+u9zgMj9qbXKlJAo2mYuDfBcWDMY5rH1TXoVcVrwiMwq9sK+BqcWPxsERFXx98UrjV9D4lcZ49dVmaPzKKzz4rKSI9evAQYNNnq2QE+qLvuoHJwc7k2PQVq3C33ce8ZPVkpOf5dsf7Fqq7ewQdPIE3wKwUkEAWlNRGQI6qWBQnw9ggjVtbA8MRJ8+fc1ayqYmk9Efd+alKS3dN3+uWEzgH2ahZyyl2atPH/zvu5Vwc3Mt1tefAf7atWsIDj6LkMshuHbtb9y4cZ1PoMaSoEUF+dKu7FHoxmvq6eaOGnVqo17dOmjUqBGaNmmCWrVqWZs/XSzuq57vf4BDBw/kCfU2/g2wcvoAfgqiQat7zgXPvWFlNPjw0xU8OM6Smg4zZs7C9GlT5fgK3wuC8AndtQR0UsGA3hvANmvaSExMRLNX/RF666ZFh1A4OJTBqS1TULdauXxTaIwu9ktXwzB86ro8i8UYra3/jv0cC/9vQe5iNyVAKSkpfBvhytWrCAm5jKtXr/IAuzt3biM29kmRuJ1L9P1sxvPA4F2xYkVUrlwZVapUhl9DP15AqGbNmnB1dYWtrW2puxYxMbHo3acPjhz+M0+oe3h6YvygjhjcszU8PP7xRIj6DASF3MaXiwJx8vz1fM9kf69nT2zbulWu7Yg+giBspzuagE4qGNDrADgHoIw17SxavBhfjBtn0Sq+b9fXsWXxf/J1tWs0al4Gdt2u45i4eGeexWJYu2qNHb6ZNw9j//tZqeojBvnY2FhehpYB/saNm7h58yaio6MR8SgCkVGRZl3nRem+LgpY5+e2N7rMvX18UKliRVSvXh21a9dCvXr14OHuDk9PzxK50HtRRUVF4e0OHXH1cki+C+Eq5SugXctaqF+zAp4+S8WJv27h6NnrJqPmn1tA6XU8g2Trli1yecTYKr+eIAihNEMT0EkFAzrrl6sA6lrTTnJyMlq0ei3PiQPZ9u7WzBsGXZrOZDAcP+7UVoVLl+9g5ordPN0mL0vUmF++fv0PLzP47aWBPiYmBvcfPEBo6G3cuxeG+/cfcNgnJSUhPj6On1ltyd61sUCIMXjun5dtZIWyUQZjoJ1oWUAkuwecnZ3h4uICJ2dnuLm68hxsZnVXrVoF1apWhZu7O8p6lS20Qi4lUY8ePUL/jwfkaanDxJYE8tnqMebgDx4yBMuWLpVzm+IKgGaCIGip9wjopIJDPQDAEGvbOXL0KN7t1s3kUao5tXLaQAz76G2IWh30egNsbAQe8AaVkp/ItnzjIazZcYyne+W3QKjf0A/r161FkyZNqDOzwZKB/MmTWF7Nj13HiMhIPHoUwRcB0THRSIhPwJMnT/jCQK/XI/lpMnT6dOh0uqwgKFOTvDVifcmgrlAq+QE43Kq2s4edRgNb9lCreVS5o5MjfH184eHhjrJly6J8+fJwdHTkQGeWdml1kxeW2L3wUf/++G3/PlniMYyu+nnz5mHokCFyf1zaPyegk6wA+lAAa+Ro68DBgxg2fATCH9zPKuKRUxlSkZkJQ7rw+u3OjvZIT9chLDwGvxy+iI27T0snOJm3yo1uQraA+H7VqmKVC1wSLf20NC0SExOg1Wr5Iy4+nscvpKSm8hiJ7NKmafEw/CGUSjPpgnodHB0cUda77HOvq1QqDmNDRgbUajXc3dz468zitrOz41X4inM6WGno58lTpmLpksVZi6sX8bAY9Dr4vdKYR9EXQgaJCKClIAhB1GMk0osB3U8UxWeiTLoVGioOHjJE9PbyFiHYiEq1ba6HQqni/+fh6Sk286slNqhdTVRr7NhgFm0USpN/Y3yw32F/P2XqNDEtLU0kkUiWa9PmzWKVqtX4ODI3Ps2NO/b7bGxHR8cU1sfbI20DkkikFwS6IIriGblHZmRkpNj2zXZ8IjA3SRjBbsnEwn8X4JPRnl9+oZmZVBp1VxTF2aIo9hZFMbGw3uT+/fvi6E/HiK5u7qJkFedaSBvHmxHk/s1bFPa4SxdFsTnNyORyJ1kP9ZEAvpO73Rs3buDNN98yeWhEQWQMwPmo/8f4Zt5cHgxFIpUWbziAPwAEAthjPJBEFMUBAH4ozLkzLCwMW7ZuxZ9/Hsb1q9cQE/fP0eMKpZIHGrZo0RzdunVDp44dC3tLZKYgCDPodiCgk6wHelkp2l328OAjR4+iZ8/38z2j3CTIpaCs+g39MGXyJPTu1auoLslNAD4AnOjuIBWSggAcBLBdEITrZsblMgBjCvuDGAwGni3x+PHjrPgJH19feHl6FlWVvCMA2lNlOAI6ST6oTwYwuzDaDg4OxtDhI3haGywIyDFa5N5e3hj92acYPWpUUU0sOmYpSN4KFwD9AHSQyuNSxBbJWl2QrPHdAC7ml5oliiIbKJsAvF+Kr8ljAG3NLWpIBHTSiwGdAeyUtTnp5hQXF4+FixZh/Q/ruQs+L9WpWw+9e/fGoIEDeIWvIlIYgJGmTngSRdEPwNsAegJoYG0hHtK/Rjopr9piiJuB+h5pYVka9ZEgCJvpViGgk+SH+jsAfinM/nr06BHfszt2/BhCb9/hBVCUCgUqVaqIxo0bw9/fH839/Yu6nnYQgL6WnO4kVddrC6AzgMaSa55EMioWwHVpHB1hVrkgCKKV49IdwCHpfitNWisIwlC6ZQjopMKDutUHtpQw7QMwQBCEJy9wrcoDaAbgDQnyVcl6/9cpDcB9AEclgAcXxrGfoihWlhYJDUrJdbsi5Zwn0y1EQCcVHtBtpcnp35BCMgfA13KUmZTyZxtKgGfXrg2ACgA0dFeVOoBHAjgO4CwDOICQogjoEkWxCYADhRG8WsQKBdCN9s0J6KSigbqfBHWX0voVAYwVBGFZIS+MagNoJblKX5X+TcF1JQ/goRK8L0gAv/qyao1LudqrS7ClfgTAKII5AZ1UtBOHbCVhi5kiAHxe1McziqLoIO23t5QA/4r0TC764qUEyR18UYI4ezwoToeFSO73rSXMi6YDsATANDp4hYBOejkTx2cAZpWifOwLUlTt9WJwbZkF7wmgEYDWAPwA1ARQhe68IoXMXQC3AZyXgiOvAogq7jnRUqDcBgBdSsB1jgQw2FQGCYmATiraiaO1ZKnXKuFfZSeAYYIgJBTzSbo8gPqSi74BgMrSa+Sqt05JAMIBPJTg/ZcE75jifE9YsCj8CsCkYnx/BEkwJxc7AZ1UjEAzX45jVl+CUqQJb7m16UMvGfJVJSu+nvSzp/SgoLvnFQvgibS1cktKIbsigTyyNEZVS+mmy4uZd4eNtRUAJlMkOwGdVDwnjpEAlpYga/GCFIATVAr7oiwAb2lfvqrkQaksTeoOAFyl/fnSZNkzSCQCeCo9GKTvSc+3mbVdmsFtwf3wbTGpKvdQKtL0K82aBHRS8Yf6dyXgo34vWQdP/oV95CJZ795SihOz8stKaXTGn12khx0AJQC1BH9lEY1XnfScCiBd+rdegjKDdpT0c7zkKn8iWd/sEf1v7FcL+l2QvGizpT5+GdoJYHxh5OKTCOikwpk4+gFYAMC3GH68SGlCoXKS+U/+CgnwdtKzvQR1T+nXNNl+NsoWgFc+zadJMM6uFAnKkAAeK/0cK0H9qQRyQ0ncGilmfVuDLWYBfFiEHporAOYUdfYIiUSSZ9KoI4ri8WJ2nvRP0mRGItEYFcXmoiiuEkXxUSGeYX5YFMWhUlomiSx0UgmeMJQAphSDKNtQ6TxlsspJpNzj1EWqedBGqmbYVNp+KahSAFwGEALgDIDTAG6TR4WATipdE8Y7ABYDKGrrOEHaz19Ce6okksXj1V0aq68B8JcCKk1VMYyVXOlXpMqRF6WAQyoMQ0An/QsmiWkABhZBIZpI6aCKZZTfSiJZPXYdJIvdR4qZSJfGWLggCOF0hUgE9H/v5MBW/gMAdJLSqeSqBx8q5RXvZzCniYZEIpEI6KSig3sdyZVnPH2sioXpNCkAHkkVvU4a3X4ltaIXiUQiEdBJpQ3w5aXa5X4AWgCoDsARgEEqEHJRKgZzCcC14l5Pm0QikUgkEolEIpFKpP4/AAD//6wv5ZvxN9JeAAAAAElFTkSuQmCC;" vertex="1" parent="pFgveg-31IJwDg-pSHKU-1">
          <mxGeometry x="20" y="730" width="110" height="110" as="geometry" />
        </mxCell>
        <mxCell id="pFgveg-31IJwDg-pSHKU-67" value="" style="shape=image;verticalLabelPosition=bottom;labelBackgroundColor=default;verticalAlign=top;aspect=fixed;imageAspect=0;image=data:image/png,iVBORw0KGgoAAAANSUhEUgAAAHwAAAB8CAMAAACcwCSMAAAAVFBMVEX///8ArNcAqNUAqtYApdS03+8nstrT7vdUt9zq9/vY7/chr9gAo9P4/f674/Hf8vlrxOJ0yOSm2u1fv+BQu96EzObH6PSY1uuM0Og9ttx+xuOs3u5bIaLDAAAD6UlEQVRoge2Y25asKAyGy4DSHvB8HN//PUesKk0QPPRes9dc5Ou7Ms1PQkiirxfDMAzDMAzDMAzDMAzD/N/Rhep7lcR/XTjOuykVIBaCqMyvNhAnqg/DXCX6j5V13qQAgQg+gEyr5GyfP1EAK8HU1H8UKV1HUmzCbwRA6VxU100gxb5PIWRQql9rh6m0lD/uQ36wjTtwGEPW/M77uHVLG7KO2urRZwty+IV2D15ps2ZJbFM4MW0ep159qr0siXwfzm1heqg+nLjyRm7n3skL04fq9aX2kvWfFatrW2geaOdXvqwrVvf8NjzIuthOXSFASrBPForFdjhqv4uhtUJBFUIXvXk02SppOeT9UEY0wCbjlaW9FJafsqqayNopDXycZvJIVh+dATHG3/1Om/xS6KIm1hGVhmku1lSI+5buVKCirMs0cmBub2ztuUUR02t2mS4zDf2iMpJ9woQr30ycB6sseaDZm430aSkhC7pPbytOTRVWF+kd7YQuWNvPh3mv1g22lb1tmuPH4G+GO8RxGM9MExxXOZ+vZZrR+OPnn5dJRByr6XSfHV67dBgU2I/hNWeAwZkOa6uiodoiqRN1BO1TpM7W2ewWS00ahvrNXM/zerNz8/fGXJIKO95u2q3rYiJTz/mgFiFcobGI0Ioy/P4aXtbvwrkaqkG7J140OFeMDmIU4ekcRXZiohOEOTWFxMXWCS8dB0/jwJ4fwt7JPfkyc1dwvu17vXLcccffoPb4aYI4Kijzs8TycRPvM4ceFfdMqeO+nC84iNkl3pxPVH5x3e4mjonXhpzuzzc+YscjHjpXwxl0o7z22PNP4YhTjFNc2Ad6CNmdxkLayjdSOt7Qldv3yVXgSPa6t0cg99xRFwrPpQNHW4lxlMBzHwhkhAL7KHXqOXQRHFyntuct6gMd2K0sjvEUBy22FPZsXgSk4boz0kJZ4cT/lKc0HYlrQI+9JiES7b3XBjq6CmjU+/90UtKg9C/6g0i393GtWjq93jrx17GOA7TVUA9VC+TBOjdbA+oyYs+qKPrRsr07PS67tqd2oy+t1QIRmXg09q+L5dL47RtxMRBhriu5UVm7re/i2Zt/8IFgvH77+p5heOdFTdyZWzfaC4fE3iSuX1FFcDPZPujpfEncoK42CtEjv4362ZKQ4sqj7aSzjJ1F/4LO94FHyFLfNDXGpy8dXpT7M5iMjifYR255IRv3THuDwZYXIFt3iR6O8suVb55lGiWe26W+mOFFiPV7Zqd8FXo3NbrGPOqeJtqBIh+bNoqmthnzi8WKsJpSM2ctL/7t4N3mf4culCr+vizDMAzDMAzDMAzDMAzDHPgXACotNlXpTfYAAAAASUVORK5CYII=;" vertex="1" parent="pFgveg-31IJwDg-pSHKU-1">
          <mxGeometry x="530" width="110" height="110" as="geometry" />
        </mxCell>
        <mxCell id="pFgveg-31IJwDg-pSHKU-68" value="Result Post" style="rounded=1;whiteSpace=wrap;html=1;sketch=1;" vertex="1" parent="pFgveg-31IJwDg-pSHKU-1">
          <mxGeometry x="370" y="730" width="130" height="60" as="geometry" />
        </mxCell>
        <mxCell id="pFgveg-31IJwDg-pSHKU-69" value="" style="shape=flexArrow;endArrow=classic;html=1;rounded=1;strokeColor=#330000;strokeWidth=1;entryX=0.5;entryY=0;entryDx=0;entryDy=0;shadow=0;sketch=1;" edge="1" parent="pFgveg-31IJwDg-pSHKU-1" target="pFgveg-31IJwDg-pSHKU-68">
          <mxGeometry width="50" height="50" relative="1" as="geometry">
            <mxPoint x="460" y="680" as="sourcePoint" />
            <mxPoint x="310" y="780" as="targetPoint" />
            <Array as="points">
              <mxPoint x="460" y="700" />
            </Array>
          </mxGeometry>
        </mxCell>
        <mxCell id="pFgveg-31IJwDg-pSHKU-70" value="" style="shape=flexArrow;endArrow=classic;html=1;rounded=1;strokeColor=#330000;strokeWidth=1;exitX=0.5;exitY=1;exitDx=0;exitDy=0;shadow=0;sketch=1;" edge="1" parent="pFgveg-31IJwDg-pSHKU-1">
          <mxGeometry width="50" height="50" relative="1" as="geometry">
            <mxPoint x="500" y="760.0000000000002" as="sourcePoint" />
            <mxPoint x="760" y="760" as="targetPoint" />
          </mxGeometry>
        </mxCell>
        <mxCell id="pFgveg-31IJwDg-pSHKU-72" value="&lt;div style=&quot;color: rgb(255, 255, 255); background-color: rgb(0, 36, 81); font-family: Consolas, &amp;quot;Courier New&amp;quot;, monospace; font-size: 14px; line-height: 19px;&quot;&gt;salesOrders&lt;/div&gt;" style="text;html=1;align=center;verticalAlign=middle;resizable=0;points=[];autosize=1;strokeColor=none;fillColor=none;" vertex="1" parent="pFgveg-31IJwDg-pSHKU-1">
          <mxGeometry x="470" y="645" width="110" height="30" as="geometry" />
        </mxCell>
        <mxCell id="pFgveg-31IJwDg-pSHKU-71" value="&lt;div style=&quot;color: rgb(255, 255, 255); background-color: rgb(0, 36, 81); font-family: Consolas, &amp;quot;Courier New&amp;quot;, monospace; font-size: 14px; line-height: 19px;&quot;&gt;omcsDetails&lt;/div&gt;" style="text;html=1;align=center;verticalAlign=middle;resizable=0;points=[];autosize=1;strokeColor=none;fillColor=none;" vertex="1" parent="pFgveg-31IJwDg-pSHKU-1">
          <mxGeometry x="465" y="415" width="110" height="30" as="geometry" />
        </mxCell>
        <mxCell id="pFgveg-31IJwDg-pSHKU-60" style="edgeStyle=orthogonalEdgeStyle;rounded=0;orthogonalLoop=1;jettySize=auto;html=1;entryX=0;entryY=0.5;entryDx=0;entryDy=0;strokeColor=#330000;strokeWidth=1;startArrow=classic;startFill=0;" edge="1" parent="1" source="pFgveg-31IJwDg-pSHKU-51" target="pFgveg-31IJwDg-pSHKU-59">
          <mxGeometry relative="1" as="geometry" />
        </mxCell>
        <mxCell id="pFgveg-31IJwDg-pSHKU-51" value="" style="shape=image;verticalLabelPosition=bottom;labelBackgroundColor=default;verticalAlign=top;aspect=fixed;imageAspect=0;image=data:image/png,iVBORw0KGgoAAAANSUhEUgAAAH4AAAB+CAMAAADV/VW6AAAAflBMVEX///+YzP1HiMebz/+ez/2Nx/1ChsY+gsKm0v2s1f1yn9Ht9v6d0f+HvfGTyv09g8WPxPb3+fxmmc4xfsNRkM1+tepgnNZzrOPk7PakwODw9fqPs9pYltJdlMyEq9bH2OtqpN15pdO4zebT4PAadb/C4P7N5f632v7c7f6Zud0AqYcXAAAGhElEQVRoge2baXeyOhCANWhwQRBZi7aKVsT//wfvZEGBBAxaknPPeedTVcqTzJZJGCaTf/J/k69VS7500v2dhxvi7XyN+NRDyK4JQl6qEX8MULipSYiCo0b83sMnqyYn7O014r+xHVnTh1gRxt/66ClYftoQsL4+4x/B85w63UHY02d8YvomXqvxQ4TrpmfGD3XRM9D9tmn7LWg/04Q/eyh0mngnRN5ZE55GfQuv0fhhM+qZ8W1dxk8DwfTE+CjQEPmXPQb6wWrjrQPw8X7U4E/vXuBhhO1YxMc2/AA/f42lg0uOKTuME0H3oP0kDukIUH4ZAZ7mAYQ7RvHGdYS50/k7bhTDBcjz8r/WQPYDcJh4NJWzqxFMI6ICL9j/afHzRWZux5s+djWCTUyKn+DvklC6I/DD9iWbj2B7sBEOVu9YIBUz9xmB3sPIUqQD34pCsAASozB7MSQfh/m5OYJ9gJF9cpXhdADuCYbsNavv7JyHuN8n7lBAB8Hu/oydVYAw3jivkU1xYAlGQf64zeW+CwIoyO999PUviS2SPn7zM1FUFnrIO0wHTZ0rYHoAA9DyPz3nvyRdkVv/rnvwOUZhcsA2jV4c3i/gdPZpOJsJGMDbXe4h9kjGsPEhgTol76ZD+Q56trZRHILqSPyC2ZM3ps4VkJAIACcA84VxtIWgxD0bAn+HMc3mkD42CYyAKCEZbPanOAmZNrCTDUtXVoxx53bsHCD7kc0dkkOx/Qmd8G0cR67zuMnWRl0JKYOBNjRtgR3e1jy/BWi8ccsEVCovCvdgpQ9pCuMBj5JWZVDE4HYNNQI+wvKyaAUuMjod+ODSK5FOg04HXhp8Pgwq/sjLVcWB4Avbwfcl7lzGElIUt46C/G/Aj+94RKwIktl3a/opSY2f5Rg1cRKSzgXfB+PD6jI63znBOiCYnuv/wxyrQIdVSNA8k4yurqPa34K5e7uOnbgPfDym/mEf3E0HofPv4s+5PL9xQehXritcJ6WTuXfCQVbA78g+7prL4vHV7VqW8EVaFtflYwQLdtVSpMev6FBugf5jKX5ZXXKrQLP6P66v/OsF+yziY9B8T6nF5KeD7xbVFYUUP5mU/XglOuFj5Lb/F/DlY56VXVv4Sen24Mnh089rOmR/+drzDNYu/ITqvwMPK42ncuift0quaUOnRCrf4/jbbMk1s+6ZPSmzFHSfhdiWLH3ulfxY+o9JPvEWRN+VM91u229tHL4++iMHRxLVM9MXdI9SNvEz+HPOblz04KdKh09Q9Rwk+CkF3+gg1iKex0XZhz+oPHP4Es8MibCbLhlFgmfaL+fdePLM4bXvQdxJPM+9kd/8GaMs3sInKpG3wp6k6plzrbPUx31PVH6f7a3Ik5W4LdlhW1LwutT06ZwRSwHPXe/Wh9/Y+EXGJ0WHNO5mPpvcnF60biuf2WbiE6t0uh5EnrzQqAkJezHl8tvf3Pn6MeEHfjrnLsG00ot/FfgdeGbaRfXHso73/WpOy168q5B35Hg26fWs8nC26LVzftG35HyCd+lvJN0wK7BFr73gsqWoT/kv8XLXY/FWkBqKKnpdVz7/xxtfCD9yPWngcYv7/sPMyyZ+Xd6exVYHXinwpGnnWWpUQgsujl8sZlat1vws7ciS7ly4qqjhZ01f+SzpypYcoaxhvlfLeip4pSVHsuDyaKuLX5+9Gl5twU0D3C43RNOzuw/EK5UbsmKLZdryWhTFtWC+Txa9YXi1YktSanLM0qXCxlIMxSuWmmKhzdcbXuOwlZ/63iC8aqEtbDM4MGNZrfLDobN31bYZ4iaLq5vXGLzgIbcfZnuyyXrJl2wxF09nI8Kh8HGg5yts8naSDfYya+6rS/oRfG9Gf8ja+Pc32NLjBbd1XsA+utOug4R3jxcyPYcrHYuu2aMlswdrZo8VzR6qmj5S1nugLmR/w48TDD9MMf0oyfSDNLrUanmMKF92DT9ENfwI2fQD9I72gbf5A9sH/rx5wh7WPCFpHYG1AGtrHZE0zuRgEFtT44ysbehOGnfeahsKmiyFtiFZ09RRX9OUfEisZUx1QfqkZUwuZ5MNcyD+Xqld0BqnXXCi1iy5OY3ULEmEt4ri7lZRPF6rKBGjjbJUjnvPWJswE5NN0kRC8eBTY4u4+G6E3gZ5w68HZJCB2i9HQK7R9XKE9NUQpO3VENMvxhwh9xh8LcjwS1GGXwkz/UKc4dcBDb8MafhVUMMvwv6TP5H/ACrWlyujUyGAAAAAAElFTkSuQmCC;" vertex="1" parent="1">
          <mxGeometry x="27" y="197" width="126" height="126" as="geometry" />
        </mxCell>
        <mxCell id="pFgveg-31IJwDg-pSHKU-52" value="SRE Sales application" style="shape=image;verticalLabelPosition=bottom;labelBackgroundColor=default;verticalAlign=top;aspect=fixed;imageAspect=0;image=data:image/png,iVBORw0KGgoAAAANSUhEUgAAAH4AAAB+CAMAAADV/VW6AAAAflBMVEX///+YzP1HiMebz/+ez/2Nx/1ChsY+gsKm0v2s1f1yn9Ht9v6d0f+HvfGTyv09g8WPxPb3+fxmmc4xfsNRkM1+tepgnNZzrOPk7PakwODw9fqPs9pYltJdlMyEq9bH2OtqpN15pdO4zebT4PAadb/C4P7N5f632v7c7f6Zud0AqYcXAAAGhElEQVRoge2baXeyOhCANWhwQRBZi7aKVsT//wfvZEGBBAxaknPPeedTVcqTzJZJGCaTf/J/k69VS7500v2dhxvi7XyN+NRDyK4JQl6qEX8MULipSYiCo0b83sMnqyYn7O014r+xHVnTh1gRxt/66ClYftoQsL4+4x/B85w63UHY02d8YvomXqvxQ4TrpmfGD3XRM9D9tmn7LWg/04Q/eyh0mngnRN5ZE55GfQuv0fhhM+qZ8W1dxk8DwfTE+CjQEPmXPQb6wWrjrQPw8X7U4E/vXuBhhO1YxMc2/AA/f42lg0uOKTuME0H3oP0kDukIUH4ZAZ7mAYQ7RvHGdYS50/k7bhTDBcjz8r/WQPYDcJh4NJWzqxFMI6ICL9j/afHzRWZux5s+djWCTUyKn+DvklC6I/DD9iWbj2B7sBEOVu9YIBUz9xmB3sPIUqQD34pCsAASozB7MSQfh/m5OYJ9gJF9cpXhdADuCYbsNavv7JyHuN8n7lBAB8Hu/oydVYAw3jivkU1xYAlGQf64zeW+CwIoyO999PUviS2SPn7zM1FUFnrIO0wHTZ0rYHoAA9DyPz3nvyRdkVv/rnvwOUZhcsA2jV4c3i/gdPZpOJsJGMDbXe4h9kjGsPEhgTol76ZD+Q56trZRHILqSPyC2ZM3ps4VkJAIACcA84VxtIWgxD0bAn+HMc3mkD42CYyAKCEZbPanOAmZNrCTDUtXVoxx53bsHCD7kc0dkkOx/Qmd8G0cR67zuMnWRl0JKYOBNjRtgR3e1jy/BWi8ccsEVCovCvdgpQ9pCuMBj5JWZVDE4HYNNQI+wvKyaAUuMjod+ODSK5FOg04HXhp8Pgwq/sjLVcWB4Avbwfcl7lzGElIUt46C/G/Aj+94RKwIktl3a/opSY2f5Rg1cRKSzgXfB+PD6jI63znBOiCYnuv/wxyrQIdVSNA8k4yurqPa34K5e7uOnbgPfDym/mEf3E0HofPv4s+5PL9xQehXritcJ6WTuXfCQVbA78g+7prL4vHV7VqW8EVaFtflYwQLdtVSpMev6FBugf5jKX5ZXXKrQLP6P66v/OsF+yziY9B8T6nF5KeD7xbVFYUUP5mU/XglOuFj5Lb/F/DlY56VXVv4Sen24Mnh089rOmR/+drzDNYu/ITqvwMPK42ncuift0quaUOnRCrf4/jbbMk1s+6ZPSmzFHSfhdiWLH3ulfxY+o9JPvEWRN+VM91u229tHL4++iMHRxLVM9MXdI9SNvEz+HPOblz04KdKh09Q9Rwk+CkF3+gg1iKex0XZhz+oPHP4Es8MibCbLhlFgmfaL+fdePLM4bXvQdxJPM+9kd/8GaMs3sInKpG3wp6k6plzrbPUx31PVH6f7a3Ik5W4LdlhW1LwutT06ZwRSwHPXe/Wh9/Y+EXGJ0WHNO5mPpvcnF60biuf2WbiE6t0uh5EnrzQqAkJezHl8tvf3Pn6MeEHfjrnLsG00ot/FfgdeGbaRfXHso73/WpOy168q5B35Hg26fWs8nC26LVzftG35HyCd+lvJN0wK7BFr73gsqWoT/kv8XLXY/FWkBqKKnpdVz7/xxtfCD9yPWngcYv7/sPMyyZ+Xd6exVYHXinwpGnnWWpUQgsujl8sZlat1vws7ciS7ly4qqjhZ01f+SzpypYcoaxhvlfLeip4pSVHsuDyaKuLX5+9Gl5twU0D3C43RNOzuw/EK5UbsmKLZdryWhTFtWC+Txa9YXi1YktSanLM0qXCxlIMxSuWmmKhzdcbXuOwlZ/63iC8aqEtbDM4MGNZrfLDobN31bYZ4iaLq5vXGLzgIbcfZnuyyXrJl2wxF09nI8Kh8HGg5yts8naSDfYya+6rS/oRfG9Gf8ja+Pc32NLjBbd1XsA+utOug4R3jxcyPYcrHYuu2aMlswdrZo8VzR6qmj5S1nugLmR/w48TDD9MMf0oyfSDNLrUanmMKF92DT9ENfwI2fQD9I72gbf5A9sH/rx5wh7WPCFpHYG1AGtrHZE0zuRgEFtT44ysbehOGnfeahsKmiyFtiFZ09RRX9OUfEisZUx1QfqkZUwuZ5MNcyD+Xqld0BqnXXCi1iy5OY3ULEmEt4ri7lZRPF6rKBGjjbJUjnvPWJswE5NN0kRC8eBTY4u4+G6E3gZ5w68HZJCB2i9HQK7R9XKE9NUQpO3VENMvxhwh9xh8LcjwS1GGXwkz/UKc4dcBDb8MafhVUMMvwv6TP5H/ACrWlyujUyGAAAAAAElFTkSuQmCC;" vertex="1" parent="1">
          <mxGeometry x="1027" y="660" width="126" height="126" as="geometry" />
        </mxCell>
        <mxCell id="pFgveg-31IJwDg-pSHKU-56" style="edgeStyle=orthogonalEdgeStyle;rounded=0;orthogonalLoop=1;jettySize=auto;html=1;exitX=1;exitY=0.5;exitDx=0;exitDy=0;entryX=0;entryY=0.5;entryDx=0;entryDy=0;startArrow=none;startFill=0;strokeWidth=1;strokeColor=#330000;endSize=6;" edge="1" parent="1" source="pFgveg-31IJwDg-pSHKU-53" target="pFgveg-31IJwDg-pSHKU-54">
          <mxGeometry relative="1" as="geometry" />
        </mxCell>
        <mxCell id="pFgveg-31IJwDg-pSHKU-53" value="" style="shape=image;verticalLabelPosition=bottom;labelBackgroundColor=default;verticalAlign=top;aspect=fixed;imageAspect=0;image=data:image/png,iVBORw0KGgoAAAANSUhEUgAAAgAAAAIACAYAAAD0eNT6AAAABGdBTUEAALGPC/xhBQAAyWFJREFUeNrsvQecHMdxLk4QBIiccwZIOUmWLFtyePbflv3k92T7L1m2Hx1FBVIkRYIEiJxzjgQYRJmSngJFUQRFMWdKJEWRYAQIEkTO4RLCJdzt7e3u1evqmb7r6+2ZntmZ3duZqfr9Cn3YnZ2Zmq6u7+vqMJddRkJCQkJCQkJCQkJCQkJCQkJCQkJCQkJCQkJCQkJCQkJCQkJCQkJCQkJCQkJCQkJCQkJCQkJCQkJCQkJCQkJCQkJCQkJCQkJCQkJCQkJCQkJCQkJCQkJCQkJCQkJCQkJCQkJCQkJCQkJCQkJCQkJCQkJCQkJCQkJCQkJCQkJCQkJCQkJCQkJCQkJCQkJCQkJCQkJCQkJCQkJCQkJCQkJCQkJCQkJCQkJCQkJCQkJCQkJCQkJCQkJCQkJCQkJCQkJCQkJCQkJCQkJCQkJCQkJCQkJCQkJCQkJCQkJCQkJCQkJCQkJCQkJCQkJCQkJCQkJCQkJCQkJCQkJCkkRJp9OfyGazX89kMutZeQ/THzHdwfQppi+1tbX9huk77PsPWLk/l8sdZeUpVPvv/fZ37+Cx+Bv7tzvsc91jn/vreC164iQkJCQkJEWQurq6wQDwzdbW1gcY6L7JQPoQ0yqm9QygU0wzTHPsmDZUJvgPsO+1ys7hS53OI64jXTdn30sK782+x0N4z3jvaAPaQjVKQkJCQkLCpKqqqi8Dyf9k+j0ESwagZxhwNtpg2g7qMnizHjhXBqztynrjnlT+jRct5Lzi/mQSIciCLRnbxjNos237f+KzII8gISEhIYmVvPzyy1cwkLuO6ZMM/E4wMGwSPXcZ4GVwDwPAu1qdbJBJgkIQ8Jk04TPCZ4XPDJ8deRAJCQkJSdkLA7g/YsB1LwOxPQzQarHHqwJ9VwG8AF6v2lUEQUMMMCNSi88Uny0+Y/I0EhISEpIu7dkzUJrH9D0GUA0MrHI6oG9paWlXr2n1uGYAvKr6zDTEAJ91AyMqu7AOKFNAQkJCQlI0YWB0FQOh+5jijPkU9k5lsA8C9FED964iCfIzlkmBnSlIYd1gHWFdkceSkJCQkBQkDHB+h4HJIzirXaTyEWwwPS6DUamB3m8qv9RaamIg1wNeXyIEOOGwCusQ65I8moSEhITEURhgzGL6EQOPFgQRXSq/mEBf7uDe1STBLyEQWQKbELRg3WIdk6eTkJCQUC8fN895lIHDOZyFLnr4CCCpVIqrnHZ2Ukr3d82wgJe6ketRZAjsvQuwzh+lTY1ISEhIEiK4k52ul+8V8Lsa7JMwBFBMUiDqWc0OMN2LvkEthISEhCReoP8fDPT3siDf6reXT+P70Z4nUEB2AH0EycB/UMshISEhiSbo/yML6rtZDy/tB/RLAfZJAfpSE4MghEBHBtB30IfQl6hFkZCQkJSxsGD9BRas32bBOw/0g/TyCejjOWnQlB2QyQD6FPoW+hi1NBISEpIykIaGhmEsMD/R1tbWjIO5Yjy/ubm5vVen07DG+WlyX3Q2GvIyHKBT4Ut4XfudBs3oc+h71AJJSEhISiwAcAPrlZ3EXeFETx8DtRvwhwn6BMLx2VTIKxkQ/iUyA+h7tg/eQC2ShISEpIjCgvAE1vN6xn71LA/kpQL9cga/OM34L7eVAyYygL+3Jw/iToTPoI9SSyUhISEJSRjYzGQB9jTf3o0BjynFXy6z+mllQCZyhKBQMoAl2msPEZxGn6WWS0JCQlKAHD9+vBfrUT2Ea7RxvTYG56amJq6i9yVroeP9YbyoJwwNShJa0ylobayG1gsHIVP5JmTOvgqZUy9C5sSTkDnyc2g9+AC0Hvi/kPnoXsh8sA0yu9dD5t1lluLf+Bn7Do/BY/E3/Ld4DjwXOyeem18jnQoM7l39vP1sIuSWAZBV+CeeH33W9t2H0JepRZOQkJAYhAXeKSxo/hoAMSbTHlh1AbfQLEBXgr5vUK87zgD41xZ4v7cSMr++GbIv/Ctkf/E3kP3xH0DuO+Mht7kf5NZcBrDW1nVM10u6QdKNkm6yVf5MHL9eOo84J5arL+PXym1i1/z2eH4P/F7YPeG9Zd5bZd3r2dfYvZ/wTRaiRgac/FL4rD1XIIM+jb5NLZyEhIQkP83/V6zHtB+3aUUgcAP+qIC+J5Cvr4BMxRsMNH8CmXeWMiD9T8j+7M8gd88YBrSXA6xRgBwBe7OtW5luY3oH0+1M79TodqlUFT+/y+W3d7qcc5uteA9b7PsRhGJ9B3FAG9AWtAlty7yzxLIVba4/64kcRJkMCB+2VxDgFsT70depxZOQkCReWM/o+lwuV4EDp4Wk+csJ9F2BLFUPmap3oXX/9yDzyjcZIP4p5LYO4D3q9p72RhtMt9jgqgLzXYreLek93Rz0Mqm8TPmsW8dv775Mr/Ix8t/yPcj3dqdCOHQkQWQXMJOwpT9/FvhMWj/6LmSq3+XPqhwIQaFkwDQ80Ga9eKICfZ8iAAkJSRJ7/GtYHKzHGdQYSMPu7XcV4PMebUMlZI49Dpm3FkL2sb+H3HcmQm61nUIXqfetUi/6TgXsnUCeazep7KZ85gPAnc53j1Teo3ymu556flWFDXdpMg7b7ezFVvuZbLCzBjjMgMML7Nll3l7InuVj1jN1yBaUAxnwmxXA39irB+qxLVBEICEhib2wYLqYBb1GnCSFATLM3n7XgD777NxHkPnoPsg+dw3k7hnb0avfqKTqZZDXgbQXQDUd7xvgfZ4v73sDQTAREjmLIJ6PGNbYImUMMFvw7XHsGf8f/qxbz+1lz74lMmTAiQjgd/aEwUZsGxQhSEhIYicsMM7C3k7UgD8/ld/AJ7hl3lkG2Uc+xyfD8XH6DS5g396b99LDNqjp90HPb1QV4NWMRMD7v7ubfjhBHkoQmYLN/Vgd/DVk3l1uTTpMNZaUEBSJCNRjW6GIQUJCEgfgvyWXy9WGDfylAn2edsYe/q71kP3Z/4DcmiusVL4A/Ds0k+ruuqxwAA0dwAMCduhaoP0yKdguDR9slggBqxusI6wrXmfKkEFXkYFCiAC2GWw7FEFISEgiJyyIfY0FsfNRAf5OPcemWj7unH3xWsjdNcru4TMQ2tLN6oVu79YBQhyYZIC7XCovVz4rRP2er8jXv6tbRyns7ir71SwBHzboZhGCNd143WEd8jkErE5LQQaKQASwDX2NIgoJCUkUgP9LLGhV40xnp8l95ZLmz+vlv7casg/+idXLX6dM1us0ft/NBQDVdHY35XgJRD0Bqul8Aa+fpwbADvv6Ydp/l2bIYKM1HyO3ujtkf/onvI5bazpnB8p1eEBMFrRXDVRj26IIQ0JCUo6p/iksSH2EsSos4C96T//8fsi8uQBy903pGMfHHuQddi//zm4h9PDV4xXNA0C/AGm6n7AzCBGxv33IwM7W3NGtc3aA1TnWPfpAsTMDIRIBfPnQR7ShEAkJSVnIjh07urOeyWO425lYx+8l1d9lwH/xMJ/Al/veb3Eg4ICw1QZ9uacvAOeuy6VSgJIfAJPKTufyeLx6vcAAavg+T2Nif/vcAbuusc43drN2NmS+gD6BvlEuRMBpaADPY+8s+Bi2PYpAJCQkXSL2kr4UplOdNvDpSuDvAP1jkHl3FeS+/3EW8FnQX2/3Brd1swDhLtHbLwBwVDWl2E0AZwI00/lUgDUCeEDAjaL9d0p1LjID6BOrunEfQV9prT1WNDIQhAiIdma/eChFSwdJSEhKKqwH8nkWfGpwkpLTlr1dDvy4JOzAjyF7/2d4YG+fxHdHt470/p3dzIARFFD9nr/YPeig9xc3+++0hwnE3gObu1n7DjCfQd9BHxLLC8uNCGBpLx2swTZJkYmEhKRowgLO2Fwu976fcf5SAX97b796D2R++Q3IbegHsI4F80026G+TQf9y72oEuMvjdb4k2y/8Y5vtM5uszAD6EvpUa82eomQFghIBaX7A+9hGKVKRkJCEKizobWNBxnGc388Ev9CBv7kOMnvvg9wPft9K8W9UUvydQL+7VHZXPusKLfX9kP2ernen7TvbbF/i8wW6cR9DX0OfKxUR8DpR0H7PQAbbKkUsEhKSMID/06xnURVGuj9s4M9U74bsC/8FuXV9rN4+pm+32oGbA78I5kEAIWyAUs535+UdpfZ+1eurqtyPfA6yPxz7ORlgf99xueVj6y5nPteb+x76YFcRAbdhAWyz2HYpgpGQkBQkLJDsYD2KbNB0f7jAn4bM8acg+5M/7ujtb3Xq7RcBQIwAYwCUvN9LIFiUHjDZH5r9YnhAZAU2WFmB7P1/zH0SfbNciIA9LJDFNkyRjISExLNkMpkv2G8p087u7xLgT12y0vzfntwZ+LFnxmfyewzoqhoByAAgeT1Y9XwhH+/3/sn+4tiPv0HfQx/cdLk1PMB8M7P3u9xXu5oIKKsFsC1/gSIbCQmJo7z77rs9WI/hFZxN5LR9bynBn4/vN9ZA5s2FkNsyhKdeebDdZut2EcC7uwCIVN7ZPf949XsODC4AZQIwv4DlGxAN9pD9pbUflWcFcHiA6dpu3FczOxdy3w1reCBINgA/xzaNbRvbOEU6EhISNd3/DdZTaMaAVQ7pftyUJfviNyC3upc9vm+PwQrgdwrYnT7TBXw1gJuOVwHCoKbf+wUg9f7ylOwvC/u3S8QUfXX95ZBb04v7MPpyOQwLYNvGNo5tnSIeCQmJ2MnvVadef8mBv/YYZJ/5N8itYkF1AwukWyTQ3365f8AJDFCmHm9QACuyPWR/ae3fLiYMig2GGBFYeTn3afTtrh4WkLIBr9JOgiQkCRYA+AsWCxqC9PpDA/66U5B94VoG/D3ygf/O7jHSK6TyCuWzJGiC7BdZAfRl5tPo29kXvsp9vZhEwGs2ANs+xgCKhCQkCRMWAL6Ls4S7utff2lABmZeug9zqHry3BFu628DfXQ8Q26Vyu/KZNgibjg8KSD5/H/R+yP7o2S8TAVxCyHwdfR59v6uzARgDMBZQRCQhSYDgTmGs0Z8UM/y7qtff2lgNmVduZr2iXh3Af4cdLDsFUFOAVb83qQlQrpDIh0blY0IBFL/2kf2RtV/sJbDFniOwuhdrA7fwttCV2QB7pcBJ2kWQhCTGwgLCNNbQ07p1/aXq9fNd+34zE3Lr+rIg2N2e3Cf3+g0BNS8AKwFb/V5V3wHecP6g1/cLKGR/9O3fZvs8kl6+qVBf3iawbXRVNsDeNwBjwzSKlCQkMRJ7ot/OXC7XptvNrxS9ftwkpXX/jyC3ZQQLegj83TuA31dAvUIqxTFyAJfKQr7PA4RiH9+d7E+q/WjH1suttrCWEYHNw3gbCWNDoUJIAJYYIzBW0ARBEpIYCAsGnxQT/S5duuSa8i9Wrz9T8SZkv/dJgNUs0G3EzVOkHr8a0E2aF9DD7rEZ7sf39RVA6HQNsp/stzMC2CY2dudtJPf9T/I2YwJ4Gejlz+TP5bYtl14mCGLsoAhKQhLtlH9roRP9QpnZ/+SXAVbZwe0OMc4fYg/Orxb7ekF7iGR/Mu3HNrHNHhbAtrKyO2Se+MdQVgwEmCDYSkMCJCTRk26ZTOZxXO+LjRl7/mJrUEEERKOXA4IcGHQ9ClOPo/37pjrIvLEQcqt6W+l+McFvW/fgAbrc9M4eHaX8d7EAiuyPt/3b7baCGYEN3Xkbwl0F0831ru3RpDrCryMAcpxAxRiCsQRjCoVVEpIyl7q6usG6Wf6C1asZAJUAOAG8KQUp/p85/Cjk7hgDsIYFsE12IOsE/D2ksofyWSEa9vmKfX6yn+z3cL5tdtvBNsTaErYpbFtq2/OTBcDSaUhA7hSIuKG8T+AkxhaKsCQk5dvr/5+MsDdjo9b1+r0MARTaw0jXn4XsI3/HU5ew8QppWR8GswABcZtUbrsi+PmKHdC3XdFRhnG/ZH+y7ZeyAdi2so98ge8f4Ld9umUD5CyA+FsmARhL8HcYWzDGUDaAhKTMwJ8Fg7WMpWew0YrJfmq636nhFxJERPDBCUP8LX3rBgKsu8Ke3W8HLjkYtgc4RY0BUw2QBs07n3p9EyCY1PB74/XJfrLfp/3b7Da15QrexrCttX54nysBMA3hOREB3RsFBQnAzzDGYKwhEkBCUibgn81mf8O0Te31m4YA5DkAul6C0yzi9iBz/hBkf/ynUq9f9NTkACeV23p0fO8UIH0f7zPgmgKwqqbrdbpHxQayn+wP036eDbjCXi1wBW972Aa99vp17dmJBIjYgTFFxBXxN8YajDlEAkhIulAqKir65HK5M8jsTSl/GfR1cwB8aXMTtL65HHKre1u9fgR+DEx3XJEfAPMCrhLgjMf7DdCGgOv396HbQ/aT/QHsF0MCmGlb1523wdY3l/E2WQgB8JIJ0GUDMOZg7MEYRJGYhKTEvX4AuKqtra0eG2tjYyPIs/2dNvsRpanxuw0TtFbuhuy9v8t7ILzXf4cE/KH0eBQ19aj8Bly/6vf6ZD/ZXwr777BJ96YrrGwAa5Ppyvc8Z/C87AkgA7/IBoj/Y8yxdw+sx1hE2QASktKB/+dZw0vJjdIpA6Cb4OME8G4BoiXVDK07l0FuRU+A9TjWbwN/6AEzZPV7ve09O0r575IBBtlP9vvQO+y2yNoktk1soyl7aM8E+KZlgU6rAuThAHteQApjEpEAEpIig39ra+vUbDabESxcnaRjGgIoRFtqj0P2h38MsAp7/T3sdD8GIBEYe4YYtOVzeji/74BtOn/Q78l+sr/E9t9ht8dNPXgbzf74T3ibLbS9u2UCZPBHxRiEJW4XgLGJSAAJSfHA/27W0LJyw3Ob+BcY+DHlf+AhyK3FGf4suGy2exzbihlggwZIv+cv9/OR/WS/x/PzbEAPa6XA2kG87foZ5vMzD0AmAhIJwFcL300kgIQkZPDPZDIvMm2TgV8Gf90QgJj5r6b0dEsD875vOA+ZJ68BWMmCygZ7op8u5e834InMAZZ3iDSmj/PJv9H+Xk2Rmo4vMSCR/WR/Me0XywWxzbK2m3niGkg1XvDd/nVzAFTwF1lIEZMaGhpw06A2jFVEAkhIQgB+fCsXY9YHcdataGy63r+u4bo1eLdNQFpO74TctokAa+xe/9YenQNXpwAmfRaGGs9v6lGZ1BRQDfaQ/WR/udt/h91mse2yNoxtOX3mTWNv3yle6IYE5LlHIh6J2MR3BM1kDtpvFCQiQEJSCPgfP368VzabPStm+ut6/7ohAKdhADPjb4LW1xdaE/3WiYl+PToHIFOAukMq7xDHuR3vM6CGfX3f5yf7yf6I2M9JwBV8+C63vCdv26mUGdxNcwCc5gIIxUwAnhtjF8YwIgEkJD7Bv6amph/r+ddg48MGJTNtt5S/F/aunSBYXwOZB/8GYBULGhukXr8a0OQgow14iqrH5wU00/mVgNcpqHq4n6D3S/aT/VG2H4/d0sOavMvaNrZxbOvGeKDpMLjNA1BJAKq9QqAGYxmRABISj+DPAH8YA/9aAf661L+XyX9etaVyD2TvsFP+mwT4Fxggi61BA3TQ+yf7yf4o2r/Vbttre/C2jm2+0HjhJxOAx2Msw5hGJICExAD+rMGMZw2mARtWfX19UcGfv/b3o/sht7Jvxyz/rSKYXGlrT6n0olcqv1fV5/m2XdlRyn8XHEBN57uS7Cf742k/koAtPa0hAdbmse37yRIWSgLs1wo3YGwjEkBC4gD+LS0tv8UayiUZ/LEBuQ0BOM0BMGlzUyO0vnA9wHI75b/F0PP3HPD8Bkyf59sqlVvt77a6XT/s+yP7yf4I2y9IALZ51vYxBmAsUGf6q7uJ6r5XVyHJ4C/iFirGMpsEXMIYRySAhEQB/9bW1k/j6zax8WCDEY1HHVdTJwC6NVCnBpy6eBqy3/8swKqe1tjglp4S+Jt6MKYejSkg+v3e5/XkoLhVCZqhXJ/sJ/sjbr8gARt78nkBGAswJjhN9nOLJ3LPXyYAukyAvVdAM8Y6IgEkJFYjwDX+f84aRosM/qa0v7rzn6deP473n34dchtGAaxhjX9TT6vn7xYw8nochoCaF4CUHorp+9B7PH7vh+wn+xNi/1a7A8BiAcaEllOvu27/66ROJEDNBoisJsY6jHki/hEMkCQd/NNuPX+1gRWS9sfGnN7/IOSW9QFYJ8BfBIIrffR4DGoMcAGPD3r9rVK59Uqyn+xPtv1b7VjAYkJueR8eI7wAv5oRUF8ZrMsAKCQgTSSAJNHgb6f9U6JhFBP8W99YDrAcx/5s4N/a0zkgbJUCSKfPPHyvBtS88yta6uPzAibZT/Yn3H68/834ki+mS3vwWKH27r3MN9LFKicSgGU2m22RhgOIBJAkB/xxMgxrAM3YEOrq6jqxYx34+9kEqBP4X2qA1ie/0gH+mwUB8BhQfAdQnwGr2Oc3KdlP9pP9FgnYYscIfKsgixkYO7x2MnRbAzvNBRAxD/+PMVCaGEgkgCT+4G8v9WuU2bA6699t8p+6CkBHCPgcgfpzkLn/c9ZkPwH+W68MV4MGIOP5e3WU8t9ddT9kP9kfZ/s327FiZU8eO5rqahzji1P80WUCREyTY55EAi5JSwSJBJDEF/ztTX7qxZi/UNE4nNizrlG5afP5Y5C95/cY+F9pzfbdgg1cBI5e4QUc37+X78HD/QRWn9cj+8n+pNuPmYBN7O/VV/IYgrHERABMEwFlEiDPdxIkAGOitFkQkQCS+IG/vb3vRXR4dHwB/vKaWbXh+AV/vszv7C7IbRxjz/S/0k7593JQNSAoAUMQByzlvwsOYKaApH7v837DPh/ZT/Yn0X60kZOAniyWjOUxxQ3wdQTBbUWAyASgSiTgorRtMJEAkviAv/1inxpsFEUF/2MvQ27lQIC1VyrgH1JAMgbEsAOW34Bmuj7ZT/aT/Z6uJzIBa3vymIKxxY0EeMkEuJEAPB5jpPQCISIBJNEHf3wtJr4ZCx28trZWSwB0jUS3sYZbY2s58gzklvezwH/zlflBykvA2iKVW5TPPH1vuJ76/ZZeUqk5X979+fw92U/2k/2F2y8yAeuu5LEFY4yY7Oc1PsnDmyr4O5CAs9KrhIkEkEQX/C+z1voflMFfJQBeev5uDQ4bZMv+n9tr/CXw99rAt/gJEH4DkCFghh2ATUr2k/1kvz/7t9gxBUnA0t481jjt/OcUr2TgFzFPJQCCBGA8w5gpx1CCE5JIEgDmyC+iQ6vALzu/zI7dltA4EYWWD37EGmavjrT/ZikgqVrsAJQXYAzXD/t4k5L9ZD/Z799+QQJYjMkt68Vjjpf45DQJUB0CEOCvkIAXiQCQRBb8W1pa7k6n020y+OtIgGkegBPD5j3/XXdDbglu4sEa6eZeViPd2ju8ABE44PXuKOW/u+p4sp/sJ/sLs3+znAnoyWOPEwlwygio8U4lAEIxW4qxE2MokQCSyIF/c3PzrYzBZkTaX07/+5kE6EYI0m9tAEDwX9fLnvCHDbW3VPZWPvPyvSlAhBxwfGtQ+8h+sp/sD2Q/xhrscCy9ksWg9Z4yAbp9AJyGAGQSgDEUYymRAJIo9fz/NpvNpp1AX9fzVyfJyI1GVez5p19ZwBsgH/PfFCSA+FVTwDCdP2jA8ns/ZD/ZT/aHbr89MRCW9uSxSN4F0IuqsU/OkMqdJlSMpYxkfJ5IAEkUwP9q3N4SHffixYvtTiyn/72k/Z0IAe/5I/jznr8N/pt7FR7ANkvlZuUz7fe9/V1P/o329z4DYtD7IfvJfrI/HPsx9ohMAItJuhS/W4fGbThAQwJwy+CriQSQlC3479mzp28ul6uTHdjrmL8pAyDAv+XNtVbPf71Y568EjLyAozTowD0Avz2asNVwPbKf7Cf7S2d/+3BATx6b/EwM1L0gSI6Z6vApIwF1GGOJBJCUHfijMgc9hU4s9/ydhgCchgHcGHPLe3eznv+V9mx/0dB7d5Ty31t6F/a9X807n6HH4/t+ekllCOcj+8l+sj9c+zf2suYhsdiEMUrXu3dTNS7KwwFCMaba7w04dRktDyQpN/BvbW19HdlvGOCvIwOpPT+CHII/n/DnwuCDBgRjSjPk8we9H7Kf7Cf7u97+TRYJyC2+kseqMEiAPBlQDKlijMVYSySApGzAP5VKrW1paWmTwd9pCKAQ8G/Z93PWsFgjW9vLYtu+GHqfjpJrb6kMoQdgup78maceVJHvh+wn+8n+4lyPZwJ681iFMSssEiDHVIyxGGsx5hIJIOlyAoCzUzOZTPrChQvtDooqj13pwF9dAiN/JoN/84GnWM+/L8AaJ/DvI5V9lM+8qOH3eQFNKr1czxQQg56f7Cf7yf7ysR9jFItVGLMwdjmRAKf455QFEJ0rLDHWYsyllQEkXQr+p0+fHpLNZhsF6Asn1aX+3XYB1DUIvtzvyC8ht3QAa1DYsDDN1lvTwNUGrKrp+KABptjn82sP2U/2k/1ddr84FICxCknA0v7QfPRX2m1/neKfumma01AAKsZejMFEAki6IvV/eWtr60l0TGSkMgFwmwPgJQPAwf/U25BbNqij57+pVxcFnKAByK+G3eMh+8l+sr+k9m+yOyys44IxrOn0O51IgCn+qRMB1SEAOcuKMRhjMZEAkpKCf0tLy5M4IUWAvxPoO80DcNNLNUchu24cwGq55++VgffuKOW/C23Qfs+Xd7ycuSjD+yX7yX6yP3z7sdOygenqXpBdO5bHND8x0Kn3L5MAjL18aTSLxUQCSEo26Y853PR0Op2Ve/5OJMAv+DderILM9k8ArGQNaYNNAHjDsnWzVHpR+Tc6DXo+v7/3q0GvR/aT/WR/19i/yY5hLJZhTMPYFgYJEOCP5fnz55EAZDEm06RAkqKDP3PAT2UymRZ0POGI8gRAJ/DXZQTU7xvqa6H1R38NsJw1mvW99Uzb1KDztLdUemHwhgYe+HulR9HpHj0EJLKf7Cf7o2M/Xmsd0xW9eWxrqLvoGP/cQN9tKMCeFNiCsZlIAEnRCMCOHTt6ZrPZWsE8ZSaqEgB5+1+dqg0Ax8jST1wLgK/1XS9S/wU0wM19pbKv8lkhPQLlfJv6dJRefu/3ekEDENlP9pP95WW/IAEstrU8/pW8cX4vmQBBAuRsq4i9osTYjDGaCABJsSb97UQnRPAXPX/dEIDbfAAd48UG0fLaMoAlDPzXSuBfSEAxadAGHjjgSdcoRkAl+8l+sr/87MeYhrFtaW8e62QSYIqP6pbA8ntWRBzGmGxPCtxJ8wFIijHpb1oqlcp5BX+vKS78rHnPTwAW9bKX+/XxGSBMAaWvVPZVPtOp6Xif58u7P6nU/d53gCT7yX6yPxL2Y2xbw3Rxbx7z3DKkOpU7Veq+ACIrizEaYzWRAJLQxv2Zg41jzLL53Llz7eDvtPRPNwlQ94pL8XnTsVcht7if1TA29PHQ4FT120D9BoQiBwjf5yP7yX6yP7L2b7CXB7KYd+noq75IgNNKANEpwxIVYzXGbJoPQBIY/O3U/wnBME29fxN7lY9rqD4G2TVjAVb1tsG/kADgNyAEVb8BLeyARfaT/WR/pO3HWMdiXnbNGGisOeYYH3Xx1G0ioCAB+H+M2UoWgEgAif/Uf1NT0/dwrano/QsSIJxOdkY1E6ASg07vB6i9AK3f+WN7xr/NjDfaDWejSwOSj/FyfN7vpXKjOI/L+QJfz/B7v+cn+8l+sj/a9m+wY96KPtB672d5LFTjoxMhUOOtnJEVGQCM1XwzNRa7aSiApGDwZ070l4xJpuWevwr+bpkAp4wAToBJP/VNgGU4O7ZPsAYsf6Zt4IqqxwdVv/cT9PpkP9lP9kfffox5GPtYDMRYqNv1z0nl8X91OEAmAxi7MYYTCSDxnfpfvnz5Fdls9qJglUJ1QwCm3r9KDJp3/whgYW9r3F8wcK8N2KTGBtivo5T/Ltr1An5P9pP9ZH887cehgLV9eCzEmOhlCEA3CVAdApAVYzjGchoKIPE76/81ZKWYTlLBX+7965aouIH/pVPvQW7xwI5Jf0bGrjTYPO0rlQUEkKABI2gPhOwn+8n+5Nq/3loZgDERY6PXLIDTHAB1KABjOMZyygKQeAb/VCp1PW4viQ4kVDf+r9sIyM1hG86fheyGKQAr+1iOzxtFP6nsp3ymU5/HmwJI0B6A6XrG85P9ZD/Zn2j7MRau7Mti49U8RhZCANxIAMbypqam64kEkBjB/84777wyk8nUyz1/L6l/NSWlan19HaR/+HmAZTj21Vfq/asNRiqLERB8/179vrO2MTty6/tCZl0faGXasrYv0z6QWtPXQftIJdO1fTvKtfYxa12Oz1PrenjdNFO8hyy7nzbxfItsf+DjfdR/bj3aZj3nNLe5j/KMvDyv/Ofn/vvO33c85778Oec4kS2N/eXo/6Ws/9jaj22V+RIs78NjZF1d/sRqNb46xVrdUADGcozpGNuJBJC4LvljbPEVdK6ampr23r+8zlR2NJ1D6pgqpqFSv1rAN8CAtQL8C21AYWthAcYC/j4cDC5tmQiNT06D5gPPQuv5o5BLN0Eppa2tDbKXzkG6Yg9ceus+aLj/S9C8ph8jJX05OSmG/cXrweXXP9qAgNu0YTg0/vzr0LTnYUhXH4Bscx2UWvCa6er97B52QOPDX+X3hISk4zmHb385+n8p6z8R9ov5AIv78FiJMdMto6rbCMgpA4CxHIcWMLbT0kASx94/c6K/T6VSGRn4nTIAulUAOsVjcMOL3ELm5KsR/A2NW3y/oW/nv7vqeG2vvy8H18YNI6HxlQ0lB3wv0lK5F+p/8k+815qVSUAI9hdVpXtqW29lM5pW94OGJ6dDpqGq7J5zpqES6p+4jd+jlXnpG5r95er/par/xNmP97GqD4+VGDPlvf/dVAZ+3cZAqEgCMLZjjKcsAEke+DPtnslkzss9f6cJgE5DAbqUVf2FChYYpwCs6Gul/rmjy04vlRv65X+f10gMx4d+vs4BA3t66TV9oG77J6Claj+Uu9S/tg0urerXmQQEsN8cYJXzqeqxvgTJqls/BpoOvlD2z7npwHNQv2E0ZNbaJCCg/eXq/6Wq/8Taj+10RV8+VwpjpxcC4EQCRAZAKMZ2jPEY64kEkKip/4eRcaqpfx0B8OqUPO300DUAS/tYqX8OQv1tp+/f+e+wGnQRAxIG9jTrUV/Y9gnINJ6DqEjDrgehEScZresbPCAHDrDm+m9bb4F/7doRkDr7QWSec+rM++yeh/N7b88EFGB/ufp/qeo/0faj32CsZDGz5eFrPGcBnIYAZBIgDQU8TEMBJO3gz5ziD9PpdIuu96/OAdCtAlA/E73/pt34kp8+nVP/xgZpaiAhq8frcVBiDfPimpGQikDPX5ULzy6FplV9IaeSgKDPO2hA15wPiUr9yn7QsPepyD3nhg8ehwZ27+1kqwD7y9H/S1n/ibcfO0pr2N+L+vIYKgN8IVkAMQSAsby6uhoJQAvGfMoCEPjz1D8D/7PoIOgcWKIK8HdK/ZsIQEPlQcgtG86Xt8B6t0bUXyr7K595aaDK7zdK5UblM935Tfdj/zbHbGhc1Q/Ov7QBoii5TBqqN/8ez2C0+amPvOdpCJC+A2rn6yFBaV7dD6rv/0+IqlT/+N/4JMzc+n6+7S9X/y9V/ZP99t9IIFnsxBjaUHVIO9FPtzurOg9AHQIQRIBxgLM0FECp/8svXbq0HWecyuCvmwOgmwfgpLUXcZ///wGwrG9H6t9rg8/7XlXT8WE38P68959mAb1q7STIluGEP69y8e0HoG656J16t99fffl8/srxmbX94NxSRgJY0IuqNFce4DZk1vb1D3hl6P+lrH+y3/4bySNrCxhDMZbW1V507YCZ0v9yFgBLjPkY+2koIMG9/6NHj05gvf9mGfyFk6igL5YAGsEfU/8vL+XLWWCN3PsvUYM2qv+Ak1vXj4+hVzx8G0RZsi1NcGbpEE5mwgu44R2PRCvFev9n7vpLiLqc3v7nzBY52xJd/+/a4xNsP/oOxtDFfVlMXZK39a9TBlZdCaBmAES2F2M/YgBlAZKb+t8lxoXU3r/TOwDcFJ2v8cROyM1jjrvKZrGqw6+XnFv+23MD9tngjNczN1jRK73w4bORB6ZT3/tnaFopgKmQgBWwPl2OR6KFGYrK59dH/jlXPLuG24I2Rd3/S1X/ZL/D8SyW5hb057HVSydM904AlQRgzMf/IwbQUEACU//MSf53KpVqDTf1fx4y2z4JsIw57boCG/V6qVyvfFaK32u0lRGA0wsYC68+Gn0C8MhcqOXDACHVj6oBnjcSrWrW26l595HIP+fqdx6G6iV9uU1R9/9S1T/Z73D/6EOszWJsxRjrNR7rCIBKApqbm1sRC2goIIET/6qqqvIYoTwEoFsBIJMCdYMgK/WPM1hlpmtokH6/D9rg/J6P/d2yph8cncOCeUtT9FPTz2+FGgQmHAbwaL97QB0glQOUz/zVbyu7pzML+8LFQ29E/jlfPPgbbkvrmn6R9/9S1T/Z7/A9xtLV9qqAXy3lQwGmeGwCflHaQwE0ITBJ4F9fX78UJ4HIBECeIOK0EZDqYLKjNZz+AHILBlmpf7l3mefgAzpK+W+vDdrv+QIz9AGcABxiBCAOcvpX90LlIj8907ADnHN9pVmQOzG/L9Sd2B3551x7/D1uC9oUdf8vVf2T/S731z4UMIjHWlM8dtsLQCYCqIgFiAlEAhJAAK655pqera2tdQj+wgHk3r/sMLqxJJ0iI03f++c8TcXTVW4NMK9B+mzAxvMFbIAaTbGGd3BWPAjAqV9+ByqwZ7q2f0jPO2D9Sb9Jr+kPx+f2hdo4EIBj73FbOAGIuP+Xqv7JfsPv+aqAftDKYi3GXK/x2SkLIBSxADEBsYEIQMx7/83NzY+j48gEQDcHQDcRUJ0XIFYGNL95DwDf67+/1ftfLzvwAKnUaX/34zdIpU7lY7ycz/i9ouzcqVX94cDseBCAky99G86yumptHwIw29/p+ecFqIDPVzoGwfLY3H6s9xwPAnCME4D+kff/UtU/2W+wHz/H4dVF/aDpzbsLIgA6EoBYgOdCbKAsQHwn/nU/ffr01SkmlZWV7RWvDgHodgJU5wTIWl95BHJLhgOsQIbaX9Ng/DZQnw3EbwAx3o+qA3gG4MCsuBCAe+HsIiQA/T3bX9zn3fEZgmWsCMC8fhYBiLj/l6r+yX4P9mOMXdGPxdwRPPZ6IQDqHgDqHACBBYgNiBE2CaAJgTHr/V+RTqc/FJUdpPcvp/5bfvwPAEv7WVtXdur9DwhJ/TbQsH9vZwBiQwDugbNicppH+/3VT+Hnix0BmGsTgIj7f6nqn+z3cP51dqxd2pfHXjEhMIwsgD0h8EPECsoCxCz1z5zgny9dupQRFS16/yoR0JEBpwzApT07ABYwZ1yJjung9Oukcp3yWUQ0XgRADAEUGKT81qeP42NJAFb1j7z/l6r+yX6v98B8Cv2Kxd5Lex7qBPLq37qdAOW9XwQWoGJmGDECsYKGAmLW+29paTmNFSwqW5cF8EMALtZUQHb1pI7Uf7uDDpTKgcpnZdDAjMfn339q1YD4EIAX77EIAJ+v4c1+X/UX4PecAMyJCwHYxQhAfzsDEG3/L1X9k/0+7OFDAf0hs3Iij8W6mO3U69f1/mUSgFhBWYAY9f4bGhqur6+vb5MJgDz+YwJ/VXHCSNML8wAW9bcn/g3wrqpD5zn8wI5S14BMx8ufeWngpuPX2RmAmTEjAGsGeLbf1/MOUP/YW0bQjE0GYI6dAYi4/5eq/sl+H/avtWMvi8EYi9UX/3ghAeocAEEAECsQMygLEH0C0N3u/Z+tqKhor2CvkwCdtL7iIOTmD7Z6/+v6+2xgPhus3wZiun4BDTK1EocA+sWEANwNFQtcMgBFD7DO57MIQMwyAKv6R97/S1X/ZL/P+8GSxabcgiE8JrvFcC+TAJUswFk7C9CdCECEU/+1tbW31dXVgUwAdOl/eS8AnYrvkGm2PPDPAEvsZX9GRjxQKgcqn+kapHo+qfTye6Mq9yNfw+H+OQGYGTcCMMCz/a71F2L9xzMDMCDy/l+q+if7C7AfYzCLxRiTMTY7bermRAB08wAQK+zJhbfRUECEU/9277/SBP6q07jtCthw6BWAefbEP0xDGRuU6sAmVRuIqQEFvb75fKmVA+KTAXjhLkYA+ncQAN/P0xDgAtQ/gmXs5gCsGhB5/y9V/ZP9Bdi/1soCwNx+PDaLuVqmeK4OBcgEQChih5QFIBIQtd4/6/nPRSYnEwB17F/dCVDHGIUiw2zd9hmApfaGFIUwXL8NOnCAoAxAPgEIMQMQYv3zDMCcmM8BiKD/l6r+yf4C7cdYvGwAj81yFsBtm3fTMIDIAiCGUBYgmr3/HozB1WBFyqzONAnQbQig8a37AObjEhSbea4bWHxdK5Vrlc9KpDwDEBMCcOL5O5UMQPmolQHoH58MwBw7AxBx/+9SJfvN9mMsRj9jsbnxre+6DuV6mQQoFLEDMQSxhLIA0Rv7X47b9J49exZkEqCCv1cCUFtzFrLLJwAsZ462ZkDhDTTsBm06X9Dv40gA5ksEIGh9hFj/iSAAEfT/UtU/2R/AfmzPywbwGI2xWu3hy2P+OgKgIwGIG4ghiCWUBYhe7/+cCvyF9v75pj/P3G4t+xO9/7UD9Zrn0IOkcpD93SAfDVL6TadzFdrAlPvJO1/+96mVA+MzBPD8djsDMNCz/Z2+V59viPXPCcDsuBGAgZH3/1LVP9kfwH6MyUgCFvbnsVps/FNIFkAlAYgllAWI1tj/ehwLEr1/HRFQlwG6McbayqOQWzDM6v0L8C+0wfh1eLXB5DU4UwMxNEAPmloxAA7MiAkBeA4JwABoXTXA1zMoOKD6qP/0yhhmAFYOiLz/l6r+yf6A9mPJYlVu4XC4yGK22sN3mv8lbwWsDgGgIpYgplAWIDq9/yoV9E27ADoRAGSSTU/cDLAYGSZOOBHOJnSgVHpwYKODy+fUqc/r5al6fsP5mFoZgP7xGAJ4bps1BLBqoGf7O+naQUWrf04AZseRAETb/0tV/2R/QPuxRGLPYnXTE9/qlAVw6+DpCICYCChlAaooCxCB3v/FixdvNPX+nYYCdISgtuIQ5OYN7hj7NzFwo0MXuQGHfr14ZQDaCcDqgSH1iMKrf0yXx4oAzEYCMDDy/l+q+if7Q7AfO2gsVufmDeGx2y0LoPb+5VLOAiCWIKYgtlAWoMx7/6lU6pgM/l7mATgpziZteuR6gEV271/LgA0M1S+jNR0v34MXRm68vkExA7AiRhmAZ5EADJAyAGb73Z93ePUfuwyAlgBEz/9LVf9kf0j2Y9vGLYIfua59yZ8XEqAb/xeKmILYQlmA8iQAfNOfEydO/E1DQ0NW1/uXhwLkrYDdHKL29D7IzRW9/4EhNbCQG2jomn9/VgYgKQTAZ48qxPpHsIwnAYi2/5eq/sn+kJRnAQby2F17en9e717t8asEQE7/I5YIra+vzyLGXEZbBJdn77+5uXmPU+9fnQtgIgC897/j2o7ev6OzSeUa5TNPOlgqByufac6vqul6QX+/1s4AxIUAPHMHVMxjBACBqaD6Kl79p1cOsgnA+zEmANHz/1LVP9kfov0Ys1nsbnroWh7LTQTAaxYAMYayAGXY+9+9e/fHLl26lBIEAEu5Ap3AX2V+QmtP7oXc7EGcSXYiACaH9+uwxgZkaCB+G1QBASK1PGYEQM4AhF1fAc6XXhGzDMCs/tymqPt/qeqf7A/RfjzH8kGQmzOIx3Jdj98J9HXAj+WZM2egqakphVhDWYAy6/0z8P8VVhxWkjoEoFsFoJsQKEpkjM0P/jvAYgH+g0N02JAZr/H4wR2l/LeP+0+tGBQbAnD8ma2MAAx0yQD4rJ8Q658PAcyK0xDAADsDEG3/T3r7j6z9SPJZDMdYLuYCmOK/LgMgEwD8DLGGsgBl1Ptfvnz5AMbMGuXxGrdhAJPWnnif9f5xTemgDgLgtUGZ1Nggle9VNR2fdz+DpVIc4+98nADcHiMCMI8RgFWDCnueRax/KwMwIOYZgOj5f9Lbf2Ttx9iNWYBZA3hM9xL73bIAqHYWoBExh7IAZdL7b2xs/AlW3unTp/MIgFyZcgU7ZQX42P/D3wBYiLNJpYbTrnKjCqOBSaVWleuZfm+6fp4q96/R1HIkAAPiMQTw9BaonD8AMiID4MH+UtV/mhGtYxisYjMHYIBFACLu/0lv/5G2n68IGAiXdnyNx3ZT/HciATIBwGMQcygLUAbr/ple2dzcfEGAvzwEIOYBeCEA4u8LZ49Abu4wgGV2+t/UQIwNTv293wakNhDD78NusJwADIwhARhUYP0Vr/45AZgdIwLAMwCDIu//SW//kbYfY/gynAswFC5WHDXGf6eevxgCkLIAFxB7aF+AriEA7b3/mpqaacjsROU4TQI0DQHgd7jxT+Nz8wEW4DumBxXWoCKnZnvilAE4/vRmRgAGdhCAsANqAI1dBmDWAJsARNv/k97+I28/tvUFA3lsxxjvFP9lAqCWahbA3jBumiYLQFLK3v+lS5f2Y+8fK0Wobh6AG+MTer7qLGQXjwdYiszRwalXS+Vq5bNCjg/7fL6PHyKVQ5TPYkoA5skEwGx/qeo/vTyGBGD5oMj7f9Lbf+Ttx1i+ZBBkF42H89UVjvHfy/i/UMQcxB7KAnRh7/+ll16a0tjYmJLT/+rkP91EQJ2iMzS8fjcAAwfOGFeHxWp9NjD1+NWDO8owGnABGisC8NQmJQNQbPVeP1YGYGDMMgCDI+//SW//kbcfYzm2dxbbMca7Ab9KAsTf8jCAIACIPYhBlAXomt5/z4aGhl9gxcgZANMqAKcxoHPnaqB1ze8CLLadxavDGR00IIP13UCkz7zcn3o/qiIBWBYzAiBnADzYX6r6T8QQQAT9P+ntPxb2Y3tnsb117e/yWO8lI+yWBRCdTsQgxCLKApR26R8yrl5NTU01OvD3QgBUMlD3/iMAcxnIrRDp/yF6VR0ur8EoDmj6vbHB+jyfSfPOpzJmlVEPgdTywYwADIwHAXhSEIDBnu0vVf1jb/nYzDgRgIF2BiDa/p/09h8L+1dZGwPB3IE81nvJAugIgEoCLl26VINYJGUBiACUovfPKuI6nPx36tQpXhFeiIBueABLPE/LnX/Bl4t06v1rdYhUCieUHVIqOx3r8Hv1e1ODMDU49fp59+czYKy2MwDTY5IBeHIjVM4fBJkVg3w9g1LUvzUHIEZDADMHWnMAIu7/SW//sbF/1WAe41vu+v94zFeXiatDxk4ZAIE1iD14HsQiygKUcOMfnHjBev8fYgWoKRm3ZYC6CuYb/xx8DWAWLhcZbDnJ6iE+HNynBj6f3wajNjj/95taFqMMwBOMAMxDAjC4RPXl/Xzp5YM5aMaLAAyOvP8nvf3Hxn6M7RjjkWSzmK8b71c7ik7LAGUSgFgkTQakLECRN/7pef/9949uaGhoFj1/p96/WwZAKG4BeenBa/kyEav3b2Coxgbl8/jADLrYAWOwRQDilAGQhwA82F+q+reGAOJEAAbYBCDa/p/09h8r+5EEsFiPMR9jvy4jLP+t4onc4URFAoBYhJhkZwFoY6BiL/2rr69/ULCvQtL/sp6vPAW5uSOspX+rAjDlQnWVVK5SPiuH8622MwDT45IB2OAvA1DC+k8vS0AGIIL+n/T2Hyv7McazWI8xH2O/F4zQEQCZBNivCn6QlgSWYOmfPfmvUgf+fgkApv/rX7sbYO4ga/IfOofRgUwOO1QqhyqfdUUDNdyPhwaUWho3AjDYmQB0Yf3HbwhgkE0Aou3/SW//sbIfY/yKITzmY+xHDHACfVHKqX8dAbCHASqVyYC0JLAYk/+OHTv2t+fPn2/Dhy5IgBfwlytU/I27OaW3fBZgES79G+yxASm6akhHWUiD8Ht+VeVjvDS4vN+bGuBQOwMwKB4E4PH1UMkaf2b5YM/2l6r+08uHcNCMVwZgSOT9P+ntP3b2I/lnMT+9+bPtkwELyQLIBAAxCbGJJgMWd+nflY2NjS/hAz958mT7w3cjAerfcqXWHnwDYCa+MWqIRQC8OFiewxu+932+kBuQ6XgP92tlAGJCAJ5Ybw8BDAmpvsKr/1gNARy1CcCywZH3/6S3/9jZj1kAjPmzBsGFg6/nAbyTqpMABf4gFmFZX1//kj0MQEsCi9H7Z9qbEYBq8cDlYQC3oQCd8jc67bgOYP5gO/0/1NLVUrla+WyVcFSXBpDHYJXf+z1/nsrHeDje2ECV82nuL7VsCByYFg8CcOyxddYQgMgAeLC/VPWfXjYkfkMAy4ZE3v+T3v5jaT/G/PmDGAZc3z4MIHcQ1Q6kjgCIeWiCBCA2IUZRFqBIk/8OHz78JUzb6wiAH/BHrak8Ddl5owGWDA7IeEN2YGOD8svATQ3cfD6LAMRjDsCxxxkBmDvYOQPQhfVvZQAGxTsDEEH/T3r7j6X9+NnSIZCdO5pjgdcMgC79LxSxCTGKJgMWafJfQ0PDyzL4+yEAMntDZlf3+ncB5gyy0/+yQ5pUdXDVoQ1qZMABr+f7/GZNLY1TBmAtVPEMwJACn0fx6t/KAMSJANgZgIj7f9Lbfyztx5iPMYBhQN0b39Mu+fNLABCbEKNoMmBx0v99Ghsba5zS/4IEiFIGfZUA4PrPlu1/AbDQnhG6amgJ1eDQvlNkpgYYsMHGkgAMCkAAilf/iSAAEfT/pLf/2NqPsZ9hAGIB9t6dOozib7mjKfBHngNw4sQJHAbArYH70DBAyJP/2MP9FwRufMj4wFUiIO8G6FSBorxwjAXYGYN4CqidAKy0dZVUch0mlcPs74Z5P77TZ6VQn9eXbXCwJ1YE4FElA+DB/lLVf/wIwGCbAETb/5Pe/mNrP2YBlgzhWHD+2O68LLIum6zLAMgEwMaof6HJgOGl//nkv4aGhl/jA5bTLfIqAN1QgK5CMdVT//xygHmYApIdxaODmxqM+r2q8jU8NSifDdbv9T3Yn1oSMwKAcwCWD/Vsf6nqP700ZgSABVa0Ker+n/T2H2v7MQ4wLEBMkF/366Qy1shYJBQxqr6+/tfSZEAaBgg6+c9O/5+TCYAO+N0yAEKRoaU3/KGV/ld7gZ4YpOH7PAf12+AMDcTYoENm/HwIYGiMCMAaKwOwbEiBPZji1b9FAAbHiwAsGxp5/096+4+1/fYwAGICYoMfAqAjAfYwwDl7GIAmA4aQ/u91+PDhr+BSDTn972UyoKp8618WmOB2BmbLNE6k1WFSKZwyRAdWz9/psyI0oALuL14ZgDWdMwBlVP9pRrQQNGM1BLB0SOT9P+ntP9b2IwFALGCYcP7Ie4GzAIhRiFWIWZfRa4IDpf/b1/7X1tby9L/T+L8X8G9P/z+zCGCulP6XnVrn4CaHC5xi89tglfvNU6UBGRuw2f5YZQB+sZoRgCESASif+sfecuwIwLKhkff/pLf/2NuPsYDFBMQGxIigBAAVMcthTwASn+n/vg0NDWdkAiBPvHAaEtApMrP02j8AWIST/4Z6c5igDcrv+Y0ObzqfoiHcX2pJzAjAPEYAlpVf/cdvCMDOAETc/5Pe/mNvP2IBDgMwbECMUFeUyX/L887UJYCCABw/fhyXA55B7KJhgIDp/5deeumT586dy+JDVUmA0zwAXQXy2f+H3wG4Hd8GNVQiACVWo0MGPZ/K0A0NxIPGigA8ssrKACwrv/q3hgDiRgCGRt7/k97+Y28/YgH6KcOG84febl/y57TEXLcMUO79I1adP38+i9hFwwDB0v99Lly48H2xxEJO/8urALz0/nFsp/6peQBzh9rj/8NtHSaVIegKqVyhfKZV+R409+P7fCY1XC8xBGBY2dV/eumweBGA220CEHH/T3r7T4T9y6xhgIan5/NhALVD6TT5z4kA4P8ZCfi/DnsCkHhN/9fW1n6k9v7dJgG6pv9X/b6S/vfSIHw2GKPDKudbMayj9HJ8ngZtMGb7LQIwOBYE4OgjK5UMQPnUf3qJnQE4FmcCED3/T3r7T4T9eMyioRwjxDCAm+oIgEoCELtoGCBA+p9p/4sXLzboCIAf8Ecmd+7gToDbcf/nYR1Op3NAVVUH8uvgRgcd3vl+/DJy3/ejqAf7U4vjkwGwCMDQjgxAGdV/7DIAM4bYQwDR9v+kt/9E2I8TARkBh+mDOVaoQK/bc8aUBUDsQgyjYYAC0//swd6M4zH4MGUSIPYDEETARADwHPXPrQCYbS/5WOHHAX02oLzzhXx8XgMd7o/QmH4f9wzAz1dA1ZwhkGnvmZZP/VsEYEjMCMCwyPt/0tt/YuxfzkoWGxArdPMA3LIAonMqsArVnitwMw0DFJ7+/5VT+l9dDaAyNPkzHNNp3vZXAAuGWpW8IkQH8+uAxuOHS6U4Rr5fqdR9n9eADMd7uF8rAxAnAuAnA1C6+udDALcPidcQwJKhkff/pLf/xNiPncMFQxhWfI5jhpplVvFFl/7XDAP8ioYBCkv/96urqztz7NixvAyAjgg4KVZW9eljkLudVfASe81nEIczqV+HzTu/fE+a+8tTw/HGBm+2P8We24HbYkIAHl5uDQGIDEAZ1X+aPWcEzdgQAMwALBkWef9PevtPjP3LLYzITR/GMcNtCMA0/o+K2MUIAC4H7EfDAD7T/7/4xS8+ce7cuYyJALiBPyqmYS6+9SDATHv837eDmhhvUAf22YCKfbzGfosADIoPAeiUASif+ucEYEbcMgDDIu//SW//ibIf4wLDiotvP9i+3M9NZRySMwACsxDDEMtoGMA7AeDpf/bg7sMH6UQAdERARwhwLKfxga8BzBtqVe6K4V2sI6RyhPJZeWpqcZwyAMugGgnA0mFlV/9WBiBOBMDOAETc/5Pe/hNlP2IEwwrEDMQOrwTAKQOA/2dY9t8OwwAkTun/2traXUePHuUPUTxIQQJ0GQCZBMif45KOzOKrARYO6yAAy8N0SJ+/Xy6Vy4f7vx/j70O+XhwJwGyZAJRP/VsEYGi8CUAE/T/p7T9R9uMwwKJh0Lro6vZ5ALoOptzrlycAOgwD7KJhAHPvv/3Vv/byv0q596+uAhCMy42Z4VhNzQFc/odLPOSKHxHAQYZ3lKE0KNP5pc+051OvZ1L/9lsEYEg8CMAOzAAM6yAAZVT/aeajx6bHJQOwm5MZiwBE2/+T3v4TZT8SABbvcMk4Yoc629+NAMj4JLALO7GIZfZyQHpFsIf0f58f/OAHv1NdXZ0VvX85AyCnW9QUjKpYeXXPrwKYNcSeAKhzKEVNDuj3e1WN5/PbAANe34P9qUUxIwA8AzC87Oo/vThmQwCMzKBNUff/pLf/xNmPsYFhBmIHYogbxqjAL/f8UZEAIJYhpl2mf0Uwpf9tRiQIQD/20Nfjw9QNAfghALj9b9Od/xNgPqb/hzs4yAipFE4gO4RUevleVfX4oA0u8P36P19q8XA4cGtMCMBDS60MgCCEZVT/FgEYGp8MwPShPKsRdf9PevtPnP1IABYM49iBGFIIAZBJAH6OmGYPAwgCQMMAmvF/nv6/cOHCqzL464YBBBlwmxhYdfYk5KaxylxsT+4oxMFMDu33952O8XK8z+sHZuz595NaFCMCsGNp5wxAGdV/evFwDpqxIgCLh0fe/5Pe/hNnP2IFi3mIHYghpo6miQAgliGmScMANA/Aafkf0wG1tbUn8KEJEqCbA6DbD0BN/59//xlp/L9IDNc34w14Pr+/93u+mGcAjjy0hBGAYRIBKJ/6jx0BuN3OAETc/5Pe/hNpP8aHGUM5hpiGAVRc0hEAhmnHEdtoOaBh+d+4ceOG1NTUpI4cOdL+8JxIgO7hy1sF1z29BGD2UKsyl48ojobtoGWoccoAHPmZTQCWDC+7+k9GBiBmmoD2n0j7ETMYdtQ/vZQTABVv1IyzwCYV+FERyxDTENtoOaBh+R97cFPF+L8M/vI8ADn9r2NkYv1/011fAJg3LCABGCmVI5XP4ni+/PNbBGBoPIYAfrbYJwEoXX0lgwBEz/+T3v4TaT9iBsOOprv+rn0/ANO2v3LPX6wAEEQAj0Vso+WAhuV/586de0J+cKYhAF3v35oAeBays8cDLMDx/xEdis6xzIfDLJPKZcpnOgeUr6E93qcDG69vOF/e/fi3nxOAqTGZA9CeARhRdvWfXjwiXgRgmk0AIu7/SW//ibQfJ40vHM4wZBzHErdss9vYv6yIbbQc0GX5H9OBFy5cOIApEzkD4DYZ0Cn9X7P/DQAWgGDxCEOFqw5oUsPvjQ6nqLHB+Lw/3w5vPn9q0YjYZACOPLiIEYDhUgagfOo/dhkATgBGRN7/k97+E2s/+i5rjzX7d3Za8+91CEAdBkBsQ4yj5YAO4/9MB7GHVKsjAF7BXxCA2pfvApiFL3cY4c9hVFUdKO/4kVIpjpHPL5WdjnU6v9/jfTa4AuyP0xDAkQcX2wRgRNnVP88ATBsWoyGAYRYBiLj/J739J9Z+zF4xDLn4y+0cU0zY45YFsAnARcQ4mgfgMP6/Y8eOP8YJF4cPH25/aGoGQJTy1sAqM8OXODT+4D8A5gy3VgAs8+PgigOqDm10IJ8Nwvf5fd6/2oAKsD9eGYCFHXMAyqz+rSGAGBGAaTYBiLj/J739J9Z+7CTMHc6xBDHFbRjADfiFIrYhxtE8AIfxf8ayVuHD0xEANQMgl/LfYgOg9JKPW+P/S9UeSMjql/GqDSTw+QMe70E5AZgatyGAEWVX/7HLAHACMDzy/p/09p9Y+xE75uMGXR/nmKICvoo/Mk6pRAAxDT9HjKN5APr1/wNramqeFOl/eRmg21wAVbEiqo59BIA91kUjrEoM1aED/r7UDTSEBh0rAvDThe4EoAvrPxFDABH0/6S3/8Taj0QFMeS2oRxT3AiA09i/wDJBAhDjpHkAid0PQDv+f+7cuffxIYmUifwQVQKgDgHIbwo8v/OnALcPsycAqpU8SipHKZ+F8X1Q9Xv+sI/P/z61aGSMCIDIAIwsu/qPZwZgROT9P+ntP9H2o//ePpxjipjs59TxlDun8ko2gWc2AdhD8wA04/9Mh5w/f/6MjgB47f2LIYC6J+YBzMLx/5ElaBDFPl/X36+VARgWDwLwwAKo6ZQBKJ/6jy8BiLb/J739J9p+xJBZwximzHclAG5ZAJkAIMYh1jnMA0ju/v+jRo0aXlVV1XLo0CH+oFQiIB6o24MXKwAa7/1HPnmDT+JYKsZzRnb+u1gOuXRkRyn/7fi9z/sx2qOOYwW3P1ZDAEgAZvkhAKWr/9gRgNuQAIyMvP8nvf0n2n57IuCl//6n9qWA8mR0dYK6EwEQmFZZWdmCWJfk9wJo9/9/5513/gMfriAAOvBXH7AuM4C7NqWXfgJg/ojOjufZoUY5/M6jg5uul+dwfs/v83wh2G8NAcQlAzAfamaP6CAAZVT/CJYImrXH9iQoA1D+/p/09p9o+/HvBSM4piC2eCUAOvBHbMPjEOuS/F4A7fj/mTNn/ls8LFHKEyjUDIDuoeP/K04ehdytDKwW2OkbXrGjwnNwv9+rajx+lFSKY/zcn1R2Olfh9qcWxmwIYJY8B6B86j+9aIRNAGKUAVg0IvL+n/T2n2j7bQKAmFJxSt/Td5v8J2MaEgD8HLEuyfMAVAKAYyGDq6urX9Wl/70SADERo+aDXwJMx9c5Sk7kR/McTnEo0/em8+U5nOn8fhuI4X4KsJ9nAG6JCQH4yXxGAEZAZvHIsqv/NHvO1hDAnvgQAPGcI+z/SW//ibcffZi1S8QWMdnPRADwb3kem0wCEOsQ82zsSxQB0G0AhGMhQ86dO3fQafzfaTWAbmXAhV/dDTBjuFVpYTiE0UEMDhq2ht1APWhqYYIIQBfWPycAt8WMACwaGXn/T3r7T7z96MMMUy788m7tdr9OGQA1CyCGARDr7ImA/ZO2IZBuAyAcCxnGWNF5fDhC5WEAE/gLAoCzNOsfvBFg1giLAGgdaHRHKf/dfsxoqRytfFaIBjyf8X79NiD/9qcWjooPAbh/nkUAlowqu/qPJwEYFXn/T3r7T7z9i0dxTEFsESsBChkGEASgpqbmPGKejX2J2hBIuwHQ5z73uXEVFRXZgwcPtj8o3TCATALkYQHxN87SvLT5rwHmivF/Dw64RCqXKJ+VwsH9ni/vfkd3lNrrB7c/VhkAQQAEQSyj+rcIwPCEZwDKz/+T3v4Tbz9iydwR0LT1bzjGqBik4pGMWzKeic4tYh1iXhI3BNJOAHz11Vf/FR+cnAFwIwFOKwNwlmZmxiSA+SOtDIC2Qk0Oq35vUp8OF/h7Q4ORG0VI9lsZgOExGwIYVXb1LwhA3YkPY0IAhtsEINr+n/T2n3j78fcMUzKzJnGMUTf60aX9nYgAYhv+DjEviRMBtRMA2UNZjQ8JMwBehwDUCuArAA5/ADAV3+M80sUhFMZochiVIapqPJ/P78NmvCHYzzMAN8cjA3DisY1QPXN4BwEoo/pvYUTrKOs1p2qrIv+cG86yQHerPQQQcf9Pevsn+0dZq8puGcYxRhAAJ3UCflTEOHsy4OokTgTUTgA8derUQ7rev1sGQFWslOpdzwHchisA3BxUKpcon3lR0++NDj46n136Od54fyaH929/nDIA1W8/ARUzRkDrwlFlVf9ti0dCM+tlHFnwcWhra4v8c86kLsHh20ZyUhN1/096+yf7R1uYMm041DCMEXMACh0CQEXMc5kImJwdAJkOraysfFXu/fslAGIS4PlXvwswfQSACO5eKlh1iCWjpHKU8pmH7/MahHp+RUt9fAH2pxZgBiAeBCCTaoQTsydxYGpbMqps6j/HzlE/byScfnABxEWOb/sXuMRsynV6ftHz/6S3f7J/lIUpDFvOv3pfJwLgNQOgZgEQ8xD7NG8GjO1KAO0OgDgbsqqq6kN8KIIE6MBfHVdRNwnCSql9fCHAjBHWrE0nh1ArOChDDOqwxT5/CPanFsQnA4BS9cQGaJg7ArJifLqL67+N+Wsr62FUzmPEpLYyNs+5bt+rcG72SMgsGhVp/096+yf7R1uYMnMEw5hFWgLgNO7vNAyAmCetBEjEREB1/L+PPQtyeHV19ckDBw60PxxdJkB+yOoDxxKXZzT84FoAFnDALeBETZeO6Sjlv0NrEGblBODm+BCAXCYNVVv/ntuVcyWLxVcEfwTI2jkjoW7XUxA3qX5oAc8CZBeNiqz/J739k/32EMCskRxjEGvU3r4On2QiIIM/Yt25c+dOIPZJKwGuTBoB6GvPghxZUVFRq2YA5ImAumyAmhnASmna/DcAc0YqGYAxUjlG+Uynfo/3+/ug5/erwe1PLRgdKwLAhwIu1cL5b18DzfNHcXBqa/eZ0tR/2+LRjHyMhvRCBv6Lr4aG95+BOEpbLgsXHlkCjfOsTADaHDX/T3r7J/vHWJjCsAUxBpcC6oDeLfWPpcA3LBHzEPuStBJAEAD5FcCDv/zlL191+vTpHLIimQS4zQXQEQB2DkjP/zjAPCQAbhWqqsFBF4/uKOW/nX6/WCoXK58V1EB83m/Y51scTwJggVMOGt56COq3fh6aGBFoWTCKAbIFylbJVHyGpfy3+H6h/BtxzCjpeKtsadfRvGyePxoa1n4G6h5fBpn6Goi7NB97B+p+8A1oXDKFZ16s5zC60zPp/PdoBzUdH/L55o/qKOW/nX4/XyrnK5+FcL/oT63M3ywyNYoTyWK3/6THP15iBmDuSI4xiDUq+KsZADn9L/f+RQYAMQ+xT1oJICYCxpoA5K0AeOONN76KDyowATh5AnK3MPCfP9rdQYMyVmODCNlhfV/PdH3/9ltDACNiDVCZuipIHX8Xmve/DM0HXmH6KqQOvgapQ79h+jqkDr8BqSM7mb4JqaNvQ+oY6jvQwn7Tcvw9aDm5m+n70HJqD9MPoOX0h5A+sxfSZz9iug/SFfuZHoB05SFIVx+FbHM9JFWyjReg9eIZyJD6VvSp5r0vQuOTK6Fxw59yUpBdNNomAsVp/0mPf+0khmFLjsVBxBq33r/b5D9BAPAYxL4krQTopmwBzFcAsAezCR/S/v372x+OSgTk4QAd+PNNgA68C3ALA6kFWFljCnegxVK5WPnM0/eG66nfLx4jlZrz5d2fz9+HYH9q/ujYEwASkihmsC69vQMaVn0SWlncyy0aXZT2n/T4114itjCMqTz4XqeevtzbdyIAMvgj1tmfb3RZCRDrdwC0rwA4derUT52AX36I6oxKeaMgJADV7z4JcBsuATSwQ7WCOzmRFwfx64CGBhN2AzRpAfZbQwBEAEhIylFa66qgdvvf8WxAbjHFv6LZj9hy63CONSYCIM9lk8FfEAD8/4kTJ36qWQkQy3cCaN8BgLMgT58+/ZTc+5fTJXL6RCUD8oPHijj/0j0A00Z2ZACc1K8DmtTkoKU+3u/9erCfMgAkJGU+rJJqhPMb/grSLP61LRpN8a8Y9iO2MIxBrBFDAE64JGev5cl/QhHzEPuUlQCxXQrotAJgREVFxa/xYQh2JD8ktyEA9ZXBFx9fCjBjlJ0BGBueg/hlpHnnG9tRyn+H1kB8nr8A+ykDQEJS/tJScxwuzJsImUVjKP4Vw37Elhkj4eJjS4wEQJ79L5MAOQuA2IcYmISVADoCMNheAviejgDI4K/LAMifYWXUPTiVVw4sFJU51tYxUjlG+Uz3vUmD/j6ojg1on//7pwwACUk0pOaR5XBp7ijILRpD8S9s+zkBGMWxBoedvWYABPCLnr9QxD57KeDgJBCA7uoSQKajKisr94kHIkiAuimQG8vCSsCdmRq+918AM+0MQKgOpKrJYfz+vtj3E9z+1PwxRABISKKQBTh/BqpZRyjjGAcp/hV8PexcMoxp+N5XOOZ4yQAYCMA+xEDNUsDucScA/e3lD6PZQzi+b9++TpMj5CyAujmQLgOAldG4/f8HmDXazgCM9e4wi6RykfKZ9vuxHaUXlX+j+73pe+P9+ryfAuznGYBvEQEgIYmCnFr3eU7a27RxgeJfwfbjHACGMY3b/gEn8Dmm+9Vlf+okQFTEPMQ+xMAkLAXUvgSI6ZizZ89WeckAqA9Y3i2Q7wK45i8A5oy2MwBjnSvUyCj9atiMNuwGFdx+ygCQkERHTn5/KjTMHgU5kQWg+BfO9fE8DGOa1v0lJwBitr9O5Z3/nFYCMOyrRAxUlgLGmgCIPQAG2Msfxpw+fboe2ZBKAkwEQH7QSADSiz5lEQBe8XKlSeUi5TPd93k6RirHKJ/pzmdyUL/3o1w/6PkKsD81bwxlAEhIokIAdqyCC6ynml04huJfmPYjoWIYk170SY45OjxyygDIwI+KmHfq1Kl6mwCIpYCx3AvA8S2ATMeyB5nREQCnoQDdXgG4N3NmxmSAedIQQKEOYWSBY8M9v9pgTA2s1PdHGQASkkjJiV9sgJrbR0FmwRiKf2Haj/c1dzTHGsQcpwl/XgkAYh9iYNzfCuj4FsBNmzb9GaZRvBAApzQLzwCcOA457KHOG5PP4BaP6yi5jpVKLwzQp/plmL4Zqd/7CW4/ZQBISKIjxx/ZAFXTBQGg+Beq/SwWItYg5gQlAIh9iIFxfyugjgDwPQCef/75/8IH9dFHH7U/FL8ZAHyIZw59CHDzKFY5oqLG+XCScVI5Lv/3qgMtkkrd8eV2/hDs5wTg5pEUWUlIIiDHZAJA8S9c+xFjbhnFMUd+2Y9usx95TpsM/qiIefhbxEBpL4BEEID21wC/8847c/GhIfDLWQD1vQBO7EowsLMf/oZXikUAximqOoRfhzEdH/b5gl4/fPutDAARABKS6BCA0YwAjKX4F/b9YpaZYQ1ijpgEqHZSdRkAkd0WWCc6u4iBcX8tsOMmQLt27VqKD0GXARDgr2YDdBmAynefY5UysmMIYKFLBS4c21HKfzs6kF+H8qvK+RZK5cKxBdgTvv0pRqyIAJCQRIQA/FzOAFD8C9X++eyZTh0FFe8824kA6NSUAcBjEAPjvhmQTAA6bQK0Z8+etYIAqFkAlQg4kQDMAFS+9TjAraNY5Yz1X8Gm4wOfL2yHNDTAItjPCcBNNAeAhCQyGYBpjADMH0PxL2z7EWOmjuSYo77sx40AyGP/qIh5+DlioGYzoNgRAHUXQNz4YNTevXu3FkoA5BcHVb7+cAcByKtgqdSpfIwXVc9n+r3f44v9+wLspwwACUlEhwAo/oVrPw4zM6ypev3noRAAxECbAAyJ626AjrsAMuPvEekQmQSo8wGchgNEBqD6tZ9aBGDeWE0lj5VKL4zQ4HCBv1cYZad7LKBBGTW4/am5RABISCI1BDCNEYD5Yyn+hW0/YsxtjAC8+kD7Zj9O+KTu/CdjncA7xMC47wbouAsgezDfcyIAgjWpD1fNCnAC8MoPeaVoMwCBGeF4qRxvfzfe++/9Xi9oAyuC/VYGYBRFVhKSqGUAKP6Faz8nAKOh8uUfuBIAt56/jHeIgXHfDdCRALAH8yPxUJx6/k4ZAHkIoOql+1wyACE7eFD120CKfX0P9vMMwE2UASAhiV4GgOJfqPaLIQCGOSL9r0720036EyRAlALzEAOTQgDytgFmDOpnKiPyOgQgE4DqF+7irAzmj9NU4HipHK98plPT8T7PJzvVIvs3oizK+cO3PzV3HBEAEpLIZAA2SgSA4l+o9s8bx7Gm+oW7XQmAvPRPHgJQswCIgXHfDvhyiQB02gaYPaRHvBIAHbsSZKDm2a0WAZg3NnwHNjnIgnEdpfx30Rqcqn7t828/ZQBISKKWARjDCMA4in9h228TAMQcPxkAgW9Y7t27t71k53jEYTvg7jZ2xoIAaN8DcOTIkcflhyGzIzll4vSAxUTAmqc3ADCH55Xj24H8ql+HDtth/d5fcPutDADNASAhiQYBcMsAUPwLpNjJZFiDmBMGAUAMNLwPIHYEYKC99/G4Y8eOPfvhhx+2PxBdFkAmATIZkDMA5x5baRGA+R4qeoFULhDM1YXBGhmu6XqG3xu/93m/RbCfE4AbKQNAQhIdAiAyABT/QrV/vpUBOPf4yk7D0TJGqRP/5AmAMglAPXz48HOIhcr7AGJDALq5EYATJ0686JQBcBoO0L02+PzPl3QQgLwKVlR2gjBUvZ56ftP3xb5eCPZTBoCEJIIEYN44in9h248Yw57tuZ8v5tijm+wnb/urIwMC4xDzEAMNBKBbXAiA/CZAfPnB+GPHjr0gMgByFsDLEECnDMDDixkrE0MAPh3Q5DAmDXq+Ut9PAddLzcEMABEAEpLIZQAo/oVrP58DMIZjjtz716kO9OXeP2IfYiBioY2JsXsjoNOLgDgBYA/waScCYMoAyKsDasQQwLxx4Tvgwgkdpfx3WAzUeLxy/TwdL5Xji2I/JwA3jabISkIS9QwAxb9g9s/FDMBYOPf4Kl9DAE4EADFQIgCxeyGQKwE4fPjwY+JhBCIAT26wMgBzx5kdaIFULhCOPKFwxmm8ntJg8lS+By/34/P4EOynDAAJSUQJAMW/cO2fa2UAap5c377UT52v5pUA2HMAHkssAWAP6WFkQULlB6NsltCplB80JwDPbAW4FQnA+AIc2uRQ6veqBjw+sIP6bUD+7bcIAGUASEhilwGg+OfPfsQYhjU1z9zRqfev4pMK+ursf4F37Dc7kkgA8PWHE9hDelBOh8jsSCUAuvEVMR+g6vm7JQIwwacGdbCwGaypAYWt5vslAkBCEjUCMJYRgPEU/8K2HzMADGsQc/xkAHTgjyU77qeIhTYmJoIADBYEgD2EH8kPRDcMoA4HqEMDSAAqX/xvgFsYQM0ZZ1XSfBcHEt9hKf9dMoczqN/7K/bxnACMJwJAQhIHAkDxL5j92MmcOoZjjkwAdGrKANh//0giAIMTRQB27979XXwYH3zwQd4wgNN8AC0B+NUPeKXwypkvKnpC578dHcJwvG8HU86nat75w77f8O3nBOAGmgNAQhIZAnAbIwAiI0rxLzz78ZneYr0MSJf+d3r5j5zpRkXMw/8jBiaWALz77rvfDoUAvPpABwEotkOW2mH9Xq8I9qdmUwaAhCSSGQCKf+HaP8fOADDMkQmAKQPgRAAQAxNLAN56662t+HDwYcgkQJ0Q6DQcIAhAxWsPA9w8xqqc+RP86YKJHaX8t+ffB3TosO+nCPZzAnADEQASkshlACj+hWs/YgzDmjOv7Wjf7McJn2QCIDBNYJ0gAIiBSSIA/WQCsHPnzvVOBEAeM1EfspwZQBJw9vVHWaWMZZUjKm+iVKFSOV9UrJtDycdM1JzP4CC+HVi5nnp/xvOZ7je4/anZE+DAjWMospKQRIIAbIKqaeMgM28Cxb+w7UcCcMtYjjluBMCt5y8TAMRAhQD0SwoBmPjaa68tw4e0Z8+eTmkRuefvlAEQuwWinnnzSYBv2QQgdAc3OKjxe58O7/v4gOfzYL+VASACQEISGQLgmAGg+BfIfiQADGvOvPW09vW+Tuv9ZRKAipiHv0UMRCxMJAF48cUX5wsCoGYBTEMAMgE4tftVVikMoGbLjuCkJgcqt+P9NpDw7ecZABoCICGJEAEYxwjABIp/Yd8fYgzDGsQcNwIgL/3TDQEg5uHniIFJJQATHnjgga/ig/JCAHTsSpCB4x/tAsCtamePz69QkQbDUv7b8Xup9OIgpvMHPT6oQ4dgP2UASEiiRAA2dhAAin/h2o8E4KYxcGLfbl8ZAIFtiHVC8RjEwCQNAXSaBHj77bd/Dh+ieCDq+Ij6qmAdy8LfHz18GHI32BmAeaJiJ3b+e35Iqp5fVdP1TPcX9P6LYL+VASACQEISmQzArYwAzJlA8S9s+2dN4FiDmOOHAKhzABDv8PdTp079y8SuAmD6W+whZN5///32h6KuBJBJgEwG5N0Cjxw5AplbP8YqZ7yZTZoc2KR5DjVJKicpn4Xg8EEbXAj2p5jTH/gmEQASksgPAVD8K9x+fJ4MYzJTPwZHjx7tNDQtY5RuzF8GflTEPMQ+xMBEE4CDBw/W6TIATksC1QmCWAFIAFrmfhpg5gSrktABvTqMkTGG7eCTOkr574IZtOF8IdhvZQDGUmQlIYlaBoDiX3j24+czx3OsQcwR4/xO+CRjl44IIPYlngAcOnToLLIhlQSYhgDkz9k5oHH5XwHcjjs1icqcZOtEqSzAYYyMOOD5wr6fTjaHYz9lAEhIIkQAHkYCwHqqcyZS/AvTfuxcMoxBrEHM0c3095MBQOxLIgEYJBOAw4cPH9ERAFMGQGZauCdz/cYvAkwfby0FlCvc5BB53ys6Xyq1DhPw/IHvRyo9nc//9TgBoAwACUmECIDIAFD8C81+7FxOHwf1m7/IMScoAUDsUwhAsl4HzPRj7EHuDUoAcEOG2nu/AjBtHCMASgbAt8P4ZJTG4/06fND7mRS6/VYGgAgACUnkMgAU/8KzH58nw5jae6/lmBOUACD2IQYm8XXA7QTg0KFDb+/evbv9oegIgDopUP5b7Adw/odTAW4bbxMAlwqeK5Vz7e/mujmsSf0y3qDnD9jgCrCfCAAJSUyGACj+FW4/Pk+GMYg1iDnqTn860HciAIh5iH1JIwB9VALAHuQrCPxyFsC0LFD9Gydj1Dy8BGDqOA0B8KlzpXKu8pmX74t9vmKr5n5SM4kAkJBEkwBQ/AvNfnyet4xjWLO0ffa/bsWajggIPBNYZ68CeEVDAPrEnQAMlAjA1ewBPaXLAMjbAztlBORJgpVP3wVwMyMAsycGc8h5k6VysvJZCL/364CqFrtBau4/NWsiEQASkjgQAIp/hd8/YgvDmMpn7+60w59O5c6r3KkV4I+Yh9iHGCgRgIFxJgA9JQIwnOk4NH7Xrl0PiAeiZgKclgXqCMCp3zwK8C1GAGZNtCrMawXPneR+fJ7DSL/R/d6kfs9vbICG+wnBfj4EcD0RABKSyBCAqYwAzJ5I8S9M+xFbGMYg1oj0v1MGQGCWOu4vYx1in00AxtmYKAhAz7gQgMtMBODVV1/dhA/JLwFQtw0+vmcnwI0MpGZNcq/goIzSyFBNDunTYf02EJODF2A/DQGQkEQtAzABMnMmUfwL034kADeM5VijEgAvGQCZAODniH0eCMBlcSMAA5gOYzqW6VU//OEPr8cHydgQOGUC5OEA3cPGyjh88ADkvjkOYMYEa6zGMyM1MdrJUjlZ+SyE3/u+n5DVw/1zAkAZABKS6GUAKP6FYz+SqRkTOcYcPnSwHfzlDqpu0p8gADL4I9bh7xH7EANtLBxmY2MsCUB3JwLwiU984jMHDhzImTIA8kNWHzg+zMOHD0PL7Z/ilcQrq71CpdKLA6oOK5/Dk4MHVfX+TA3IdL/B7U/NpDkAJMWVtrY2uHSxBqqP7IWqA7sL14NSKf99aA801JyFXCaTsAwAxb9Q7J9rEQDEGMQaFehVAiDwSwV/QQD279+fQ+xzIQDd40IAukkEoLdEAMYwncL091gP/oJ4OIIAyO8H0JEBlRjgusyGVf8LYPoEiwB4reCwHdCvgxnPF/T+gttPGQCSYkhd5Sl472fb4ckZfwcPfHEkPPSl4fDIl0fAo18eznSEgw6XyuHKZ7rvLX2E6Q52/ge+OAIeufHPYOf3V0L14Q8SmAGg+FfQ+RFTpk9kGPO3HGvUXr6q6sQ/sfRPEAHEPMQ+GwPHSASgt0QAusWJAPSwjevPdKhCAI4iK5JJgGkIQGVduCzjwre/CnAbvrM5TEbaxSpY/JxJnf8u4T3wDAARAJKQpKnuPLx+z3x4+J/GwEv/OgrevnYMfHTdWDj0zXFw9MZxcEzWG8Z2lPLf6nEGxfMevmEc7GN+/N5Xx8DL/z4KfsGIwosrvwYXTh6KIQGYwAjAJIp/YSk+S4YtiDGINSYCIC/90w0BIOYpBGCojY29baxMBAGYzPR32cPYZSIAbg8XS5wHUP3gQoCpE6yJgO0OJJVzlM9036uqHp/noIbzBz3e2EB82leA/akZRABIwpGKvW/Do9f+HrzCAHgfA/2zN4+HWhZYm5iPIdFsmTkJ0rN86EypnKl8Jv3dMsNSvE7dtIlQect4Tjhe/8/R8Oj/GQcHXvhZPAkAxb9w7MdnyZ5p9c8Wti//85MBkNP/7733Hp5jF2KfjYGJIQC9bCOHMB1tG/87e/fufQkfinhAcqrEjQTIQwA4D6Di2XsBvjUeYOYkFwebIpVTlM88fO+7wSjnmzO5o/TksNJvinE/HuxPsedJBIAkqBx59XF46prx8P7Xx0IFA/7G6ROhlYFzlmlbe++uuP7fxv7OsWu1zprMyMAkqGZB/aPrxsFz14yEd3+0Pj4E4BZGAGZNovgXlv34LJnPIsaoEwBN4K8jAIh5iH02Bo62MbG/jZGxJgD9bGNHMZ3E9LffeuutB+x1kZ3AX941SSUBcgZADBGc/M3jADfhXgA+HNCv+nVw0+9NDm88n6GBhGA/ZQBIgkrV/vfg2X+fAPuZH11kPX7slefmTOpS/8+xXl0rI7f10ybCkW+O48MRB59/IAYEYLM0BEDxLxT7sVN54ziGMY/l7e7nlO6XgV/FN8Q8xD4bA0fZmNgvrgRALAUUBGCwbfREfAjPPPPMBnxw+ICEqhkA3aRA9fXBRz94GwCXAsoZgDydIpVTlM90DqXoHKnU/d7v+fMcUv29qn7PF9x+KwMwjlCMpCBJNzXAc9f9Pk/5102fxHumbaqvdZH/t83GDMRkno04esM4eP4/xsP5Yx9FnwCIDADFv3DsR0z55niGMe9wrFE7oLpJfzoigNiGv0PMswnARBsLB0sEIDabADm9EGiw/Erg7du3fw1ZFaZGnAiAOgSgywDgO5ozt/w2n60JsyeH5DAmNThU4AbR1dejDABJMNlz/1rY9dWxcOHWiRb4z55cdv6PwxCYCUCS8pvl/xaTIYDJFP/CsH+2tQIgc8tvcYwRy/yc1An4Rfoff4+Yp7wKeHDcXgRkeiOgIAAfmzBhwh/t27cvKxMAdUKg/L4AmWHJ5ADf0NSw8m8Bpk2yKs0TozSozHq1DNjAUP0yWtPxxvvxe32z/akZlAEgKUxS9RfglWsnw9mbJ0DLjMk2+Jen/7fOnAw1UyfCzv8aA1Uf7oxJBoDiX2D70WenT2LY8r84xjj1/L0SAMQ6xDz7RUCCAAxKCgHIeyMg09/fu3dvlRsB0L0tUM0O4OzMc/fdCMAaMZ8HUFClGxxIBDAs5b/DOn+Xa/79WRkAIgAk/uXoiw/Ch18fBw0sgOZmTy5r/8f7a759Ihz+5njY89/zYkAAJlP8C8N+JFIMUxBbEGOCEgDEOsS8uL8J0PMLgZh+gj24D959913XDIBKBtQMAF8J8MQ2ANbbgJnCOad0lDqVjylE1fP7Pt9VUnmV8lkI9x+C/ZQBIClUdm34Opy6aQKkZ+p6/+Xn/wia1bdMhDdv+aN4EACKf8HtRyxhmILYIl704zTuL3BLBX4B/qiIdYh5SXgRkBMB6LQdMNOPswfzvHhAuiWBahZAnWghSMDJN54GuBGXAk7RO1RQBzE5fNjnMzUQvw2qAPtTtxMBIClM3p32WTjPek/ZmZMj4f85BpoN0ybB7q+O5cMX0SUAON9iCsW/MOyfMZljygmGLWL8X4c/Mk7JvX9Ukd3GTi5iHWKeh/cAxIIAeNoO+OWXX/6O/KBUEqAbElAVCcChfR9C7rpxfMzGGga4yq7Iqzr/XajDBXbYkBmv8fjg9qdYAyACQFLQBMDrJkHD9Ml2+r/8/b+N/d3MCe94qD2+L5oEYAcjAKzHmplJ8S+w/ei3tzP/ZfEPscWJAOhAX+75C/DHzxHrkrINsOfdAL/97W/fiABuMyTQzQdQdwlUMwL4e9ynuXnGZ6yJgDwFJir7KkvnSKXWIUwOY/jepH7Pr6rv+wluPycA1xEBIPEn6cY62PeNcdDMyHhbezq6/P2/hQX8ozdMgOr3fx3dDIAgABT/gtmPfssIbPOMP+TYogN907I/gWeIbYhRiHVJ2QXQy26AuBHC7/To0ePTH330UcorAZA3DJI/x0kadZv/BeBWJABTPDio4iCdPivke1WV4/06rPH3UunFwQuwnw8BXDeeEI3El7TUX4CDjDimbp8cKf9Pz5gCx28YD9W7Xo5uBkAMAVD8C2Y/DiVPncgxBbHFiQCYMgCCACDGIdbZuwBOivsugG67AXbaDIjpp9jDPf7OO+/wB6USAfFA3R68yAJU3T8H4OaJVuUFddjQG4j6vYkhKw5u+n3YDZYIAEkAAnDo+vG8Rx0l/0cCcCLqBIDFvwzFv+D24zO8eQJU/2Qexxa3DqjTBEAB/qjsuOOIdS6bAMWWALhuBsT0k4wAvCkIgJoFkEmA+qDlCsBKOv3CDwBuZARghltFhweQ7seXu5rtwR4cEQCSwgnAlEj5f3rGZDh54wSo2R0HAkDxL5D9iCEMSxBTTARAxiZ5LpsAf8Q2xDjEuqRsAmTaDKjTXgBvvPHGL+R0iZw+0b0oSMe6MEVz+P23AFjgwckbIBrBLFtnSyXXq6XyauUzjcrn0J7P5/Fhn8/38Wb7iQCQFEwArrMJQIT8Pz3jqvgQgBDaf2LjHw6hIIYwLEFM0S3zMy35E1gmyp07d/7CYQ+AxBAAx70AnnjiifX4IHXDACYCIO8WyCcCTv80wLTJ9jyArmSYhgaW56BXd5Ty32E14AKUCABJ4RmACXYGIDr+j0MAyckAUPxzJg9TOIa03P6HfAdAPwRAJQGIaYhRiHFJ2gNAJQDdXfYC+L2bbrrpi5hmcZoHoJsUqBsKwM0aLtz5FYCpk+1hgKu9M1BVTQ5nclDf5/fZoPKu77MBebi/1HQiACQhZQAi4P9pdr8nb2AEINJzACYxAnBVEeJTguIfYsfUSXBh+39xTNFlnE0ZADn9j9iGGGcvAXTaA6B7HAmAp6WATD/NWNa5t99+u/2h+SUAYh5AxaNbAG6aCKAGH9VB8hijyigVVR0qz6HV8xt+b3RYw/2aGpjx/sz2p9gzPHDdBEI0kgIzAFdFyv+tDMDEaGcAvjURMjOmhNL+Exv/ZrDyW5Og4rEtHFNMuONGABDTPvzww3OIcUlbAuh5KSDTP2APbRcCv5wFME0KVBWZ2rGdLwJcjwQAK96HAxv1aqkU55TPL5WdjnX4vfq9qUGYHFq9ft79+befZwC+QRkAkgIzANOvipT/xyIDwIArM+OqUNp/YuPfdEagGIE99tZL7b1/pwnpukl/ohMr6XuIcUlbAqgOA7gtBfzka6+9tkN5aHkkQLdLoLpU8MD+/ZC58beseQAzp7g4oEEDO7jf85k0YIMpwP7UdMoAkBRKACbYBCA6/p9mnYaTN0yMOAFwyABQ/PNmPw6fTJsCmW/9Nuzft4+P/zvhjdOkP7UTi9hmrwBwWwJ4edwJgONrgXF25Pe///05YiKg25JAtwwAfo5jNnWrv8jHcHgqxysD9f29wUH9NrjQzxfUvqssAkAZAJKCCcCUSPm/lQGYGI8MQAjtP5HxD5/d1MkcQxBLnLDGiQDIvX9M/+PvEdukFQCxfw2wl9cCi5UA48VKgB49enz2ww8/bMaH5pYBcKsMVGRsVT9ZxMdw2ocBylFnSuVM5bNyON8sOwPwDcoAkISQAYiA/8ciA3ATIwAi7s28muKf3/PY4/+IIaL377YnjdO6f0EAENMQ26QVAOOVFQCJIgCOKwGY/iF7oPtMBMBEAnAY4MQrjwDcIAjAx2y9WioLcCCjg8nX0FyvCADtrob78WB/ahoRAJKQCEAE/J8TgG/GJQMQvP0nMv6hzzIfOP7yw5329Df1/p0IADtuH2KbYQVA7AmAp5UAr7/++vP40AQJEA/TNClQJQAH9u6B3Dcm87EczuhmXp2vRgdUHUjRmVd3lF4aRN7x0mdeGkze/Qf9vdl+KwMwkRCNpAACMNEmANHx/+hnALZ0EIAQ2n/i4p89/p+7bjLHELHLn1v6Xx73l4Ef9a233oI33njjeR8rAGJJALyuBPjUo48+uhkfJj448RDVZYHqToEqQ8O/8eUN9cu/ADDVJgBeGK/JwUwOrH5vcji/jNrYgFT1yfg19lsZACIAJAUQgG9MgJZpV0XK/9PTo54BQAIwmRGAq0Np/4mLf5gxvmUy1C/7Ah//d8IXFfx1s//t3j8gptnvAEjkCgCneQD9dO8E+PznP/+/P/jgg6wAf91wgG5IQFVkbhUPLge4EYcBrnZw0I9JpXAymeFKZadjC/y97/OrqlzPdLyxgZrvP8UC4oGvEwEgKYQA2BmACPl/evrVcPKGSdElAA/JcwCCt//ExT9W/3DTZKj82QqOIV4IgA74Re8fsQwxzeEdAP2SMP7v550AOEniM+zhnpQzADoCYCIBOHZzdOcLANcx8MJeyIyrNQ7ok9HmfR+yA/s9f+AGbrbfIgA0B4AkhAxABPyfZwCiTAAwAyAIQAjtP1HxDxX99fpJHDvEBD8nlXFIxiWBWYhhiGWIaTa2JeodAH7fCYCTIz6OkyXYA/yNjgD4yQIgQ9u3bx+03PwpgFvFPADVAf2qgQGb1MiAQ75e4N/jEABlAEgCZACmXRUp/+cZgG9GOQOABGAyIwBXh9L+ExX/sJN461UcMxA7dJP8dARA3fRHzgAgltkTAD9uY1xi3gFgeidAb2klAE6KmCImAj799NPfwQf55ptvgkoEdARAZWHib9zC8dz2rwPcPNka2wncAIJqwBSa7wZBBICkjAhABPyfCECC4x8+s5unwLk7v8GX/6l4otvsR2CSwCcZ/PFzxDJpAuAUG+vECoDecX8HgNtKAMeJgF/60pf+4f+19yVgVhTX/vf7k+XFp+8ZE03y9HsiMMOsMDPsqBH3PS7Ivg0zrDNsLhETYl5MjJoQF9SoSdwQMfo0KAgqKg4wCxBQ4LlExQUVjHEHQZYZqH+dvlUz555b3dV9u+/MvTPnfN/5eubevt1d3VXn96tzTp2WD6BRgz9s9c11qxJoekDgwnnv6XviywFnGh78pWh7KfnM0Vy0zVXf5Xrs39ZKrjfhs5yU2h8nAJ0Z0VgiIACZ3//3zWgPBKCLJAA5kYz/DmX/ACPkswfM8HL/2wgA4BUoYBhgWYAEwHZNAHwnAkrt89JLL72pPQBu4QBTXgBWcOG8vmmDODC+i+Paaem4uWa1dXDbgKHfU8XnSGVARX1+H+3fM509ACwpEgDZb/ZO75pV/X/fzBzxXmWWE4BJx4lGALMIxn+HsX/wucSIAxVdHMwA7PDCFopDeOYPCtglScKbgGWcAOg/EbCbTgRcvXr1Yi/wN9UHMOnLL78sdlx9phBVXVq8ACkzXtqBCMNM6qAh96fnt3bo6Bn/Hjkjen0cEwCWVDwAneMEIIv6fzwEcJwkACvbQQgg6hl/O7Z/cL+qujpYAZhhwxUT+KO4v7Otra1dghIAu3XkBMDAFQHvvPPOK8HNYvICYHeLjQyAK+fDBb8QYiLkAeQE62CBGWzADnxpLtrmks8M31+GtqmcP/D1KQ8AEwCWgLJ/9864B2BGt6zq/xAC2FrZWXyyuTb7QwARjP8OY/9gcigxArACMCMVAkBm/wIwrKNXAEy1IiC8NrHfpk2bvrCFAWwPClw5b9UvF0LORgQYo1m4A6CtsYOR75M6aFgXW9AOS6+HatABZG9/3APAOQAsweXNifH+k039f9+MHPFu5XFix3uvt4MQQPjx3yHsH2DCdHm/Kjo7WGFz//shAIBdgGEKyzp0BUBbRcBDVVJEwquBpfZds2bNOk0AYItvNL7xNB5DFSo67Z7VPx4G8GS5YRmpbcBYjm/t8LbjEbUxZh/t3zOdQwAsKRKAy08Qu6d1Ewdndcua/g8hi7flZGHfV19kMQHoIglATiTjv0PYP8f930XsntnfwQrqUcZeZgz6OOkPtoBRWhsaGtYBhhleAXwEeQVwp44E/n4LAsFrE3svWbLkL3o5oFZbToApJAAunX/ef6UQcmCIGR4dJt1qHTBhNeAA8aFxAsAeAJbg8u6tVWJndTdxYFZOVvT/g/I6v5b9/e0rfpy199zTA9DWmqnPHzBBYsM/7/upwK+jd8MTU8Y/xij4DrBLxf+LO3oBoJQLAl0oZfPmzU3YC+CWD+ClEI/ZAlUB4eVA4OqZBQ++u+oA3aPrgLPQdhb5LBOOl9Bmf+1nAsCSqnxct1h8MrlrfDaaBf0fiMqOqq5i24O/yXIC0MXlngcf/+3e/sHxABPGdxZvrX3Ocf+bZvxeSX+UAGzatKkJsIsLAPkvCGR8MyDEUORNfmvNmjXOjdVbGhLwGwbYdelAJ9NTzMpJD2AG7bDW/en5qZLrScOAiROA4xjNWFJKBHy/uofYO72bM7vO9P4PoAngufOdl7ObAEyUBEB7OltzwpCN9g/6pcQEwAbACBuOmMCfEgDALBX/93oDYIcpAOSnIJApDwCKJ/RduXLlMnqDg3oB4HtnNcD8nwkxCV73qDrOLLQ1Ke1AgTusrYOia0ilQ4cdQD7av2caewBYQngBlt7pzKqdMEAG9/8DEvx3V3cTH95endX3O9EDEH78t3v7B1ggCdM/JTZo9z+t6mf6zG32D/8DZqn4f0+f8f8ORQC88gB+QPMArrvuuhl6OSB4AEBT8QDAMd5c+7wQUNVOgprQAwR3QDogkjqoZQDZOmDY4ycNUMv129RH++MEgD0ALKlJ07494p8/P0XsnZ4jDuIxl0H9/6DU/RIIPp5eJPb8c2uWE4CbWjwAEYz/dm3/QAELxh/nYAOu7hfEA4A91HAMwCxD/P8HHP93JwCueQBSB8ibug2zLOwFoOWCvRgcFHj46vIThZjaLc78nE7QPboBErrDdkdbvQ8eEGhr+j5pAJH9k9TefiYALGFlz7Yt4rOZPR2QbSYBGdT/ASy/nNpV7Hjx2ay/1w4BmAR5F7mRjP92bf+AJEks+OryE5z3xmBwN9WcocV+MB5pEgBYBZhlif8zAfCZB+DUA1ixYsWT2AOgb7aJCHgpJHhsf2CO4/IR03OCdzibBu2wScenA5Jcn3UA29oTfMDtkffp9bFMAFjCyVev1IvPLy0R+6fHZ9yZ0P8PSpAE8N9Z3V188fwD7eI+x3MAJAGYkRvJ+G/X9m963P2/ff4cBxuCEADthaaYBFjlY/1/h43/2/IAvmuoB9DnV7/6VRW4VsISAHiQb66tEaL8uDgBmJkbjCEnMdiIO7D1+AEHXNj9Z0EOABAAzgFgCS97t20Rn//iFLFX9qkDM5U3oI36/wF5nn0SAL6QpGTX5pXt5h7HQwCKAEQw/tut/XPc/znK/V+TBPImNSX9YUwCjAKsQvX/cfz/uxz/T/G9AFIHygf0vr7RDQ0NxpwANxKAwwTwmseds08TYooOA3RvRc1D2zzyWWZqnACwB4AlGjmwb4/YsfQOsfOyUgeAm2Z0V2Qg/WMRztM0Iw78u6bniS8X/lLs//LjdnV/PQlAm2sG2T+4PxIDdl51uqf735bxjwkAYBRgFdf/j+a9AF1UDWVYStH/2WefXewWBqB1AjDoUwIA6zvfX3SLEJUQBuge9wKk3CEDduiZaDuTfObneNbfR3w+JgAs6UoO3LVD7GpYJHbeWSW++tkJ4usZeWLvtFzHOxDf4r9z4lqNttXkM5Oifb6WuuvKfmLnTWPEV8/fL/Z/9mG7vK8JBCCC8d8u7d9M5f6v7Cref3xec3EfDPLUs4y9zRp7YCIKqvEIMAqwSmFWgcKwDl//P+h7AWCpBLwzuXMs/g5lWErRb/bs2ZPBxaJvuPYCuCUE4geKPwNXz2ubN4rGynwhpqowgN8OObN7yzaSAWU7PvosleMladABlccEgKVV5OCBA6Jxxyei8fOPotcvPhYHG/d3iPsYJwDdJAHoHsn4b5f2D2x+VY5orMh3sIDO8ukEkpIDEwEAbAKMUvH/ngq7OissO6Kj1/+3EQAdBtB5ALBkAt6dnKuXA0o9XoL3Vg3+2BNg8ga4kQKdDPivWycIMQnCAAE6YNDvqVqPF3IA0gFtOz9VQ/v2VDMBYGHJKgIwoatonJ4byfhvl/YPbL60/YABgAVuM3+by18TAFC531bAKLT8L1dh2A9Q/F+7/5kApLIc8LnnnntcMy9KBLwIAFUnGXD1UiHKuwghAc7pEDN1J8MDAm39fD+zO9qmYcBZB5Tteunx8DWb27dnWi4TABaWrCIA3SQB6B7J+G939g8UbH75cQ4GABakQgAw+MP/y5cvX8TL/9K8HHDmzJmVkrEdrK+vd2683nrlBJjeIwAKiR87rzhJiCk58XiQaUBQDTqgkpQMEOv+Ac8fmrEnX8+eaiYALCxZQwAeRiGACMZ/u7N/YOulzd/500EOBrgBvgn43QgAYNK0adMqeflfepYD5urlgOBikQ9hC2VfqXgBnGTA/50rxISuQkzr3hIK8GS4ATXs8Vr7etgDwMKS/QRAewAiGP/tyv4BCQBbL20+2H7AgCjc/4BJyv2vl//l8vK/aJcDgkulFyyxWLRo0T06DAAeAO0F8CIDblUEX924XjSOjyeEOMtCQjPSsB3URwcOw6BTOB57AFhY2gkBSPuMPMPtH0zyqnIdm//KSy2v8/XyGOPZPwZ9jTuwD2CSWv7XS2EVL/+LaDlg0tsBCwsLz3rppZd2mYDfDejdHjC8/OHjP4wVYmI3tSSQdpp8tM0nn6WiaT7ejLyW7Qzd6fNCHT9OALqwZWVhySYCMK17JOO/Xdk/sPHS1oPNx8l/bvhAVeMMDkG/+OKLuwCTXN7+x8v/Inw7oA4DnFBTU7MSewBS8QLolwm9uXKxEABwVblxhog7DO5ERkANC8CWAWE9v43x0t+ja/RzvTOUB2AMewBYWLLOAxDB+G839g/uR3V3x9aDzce1/GmOmP7b5PLHmAMKWASY5FL9j9/+F4AA+KkK6IQBbrjhhivgAYYlAKCbNm0SO2afIcRkKA6BO6NJKWO1DQAy4KhaBwwdIBa1nt9y/QbdIwcNewBYWLLRAxB+/Lcb+we2fXKOY+vB5vvBBhsBgBUEgEXI/e+3+h8TgIBhgC44DCD1RPmAtuoHUVdXl/Bw8BJBUwYn/gyIxDtL7xOivGvcC6CZs6P5aJtPPjN8PxNtZ5LPTL9PYuRB9ycd3nY9tgGTpJIAVIEHgAkAC0v2EIAcSQDyIhn/7cL+wWcw+x/fzbH1YPO9JoimRD/s9ge8UTgDa/9PJO7/Luz+jyYMcJhXGODxxx9foOMxNi+AFwFw3g8gGeHu6gEtXoCUATTggAg7QIMOoKC/Bw9AFXsAWFiykgBEMP7bhf0Db4ic/e+u7i82bdyYUM0v1dk/fL548eIFFvf/Yez+jzYM0LwaYMCAAReuX79+j2Zj2guASQBappHwwCkhAEb43sO/dxiiqM5LJAEzImSwSYzaolZGHXJ/H+oQAPYAsLBkFwHQNizk+M96++fM/vMc2/7+I3Mdtz21/1QxjpjAH7Bmw4YNewCDUsj+ZwIQcjVAiQ4DrFixoh4eBlabJ8CkTmGglzaIfROKhZiSizp3wAGUBgBuVTVcv5MDwASAhSULPQDhx3/W2z8gQtKm76ssdmy8CQfoBBFPIDWeaGzRBOCFF16oR+7/Es7+b53VAAlFgW688carYfZOCQAmASYyYFJghtv//FMhKnMkY4TOUyA7D9pOJ585mo+2USg+pp/jR70/+X46eADyxOujmQCwsGQHAbjZgwAEH/9Zb/9g9i9t+vY/X9E8+/dSt5k/xhjAHMAej+I/nP2fhjDAMSgMUKbqLp8kGdv78FBqa2sTCAAmATgx0PQeAc3+Xvl7vWgalyvE1O4qDJBmgA08gNJ9/OTzxUMAXdmysrBkjQcgVxKA/EjGf1bbP7DhU/Mcmw62Hdt9t0mhl9tfK2AOYA+p/d9NYRS7/yMMA3xHuVLwuwHycBjgkUce+Yt20QAJAKU5ATYCoP+G0pAf3VQphGTQwpcLLSBjTvoebf10cPwb4++p+8u2v31Acg4AC0uWhgAiGP9Zbf9g9i/vxUc3VQj9Knkv++8F+nqCCfsB5hD3fx6p/f8fqPY/u/8jejeA6RXBA7/3ve+dJoH7c/2AcCgA5wRoEkAfOKnpLP5Ru1wcGNvNYY6J7q4IOnDS9wWW49tcbpbjJaltQBUktdkJAbAHgIUli0IA2gMQfvxnrf2D30kbDrb89bpnk5b3ebn7TTF/rYA1gDkq+c/r1b/s/o8oDIBfEXx0LP6axQK17rK/1B8/9thjf4MHpT0AmAwEIQCg4AX4+PpRyguQb2GwFoZL1bp/AdrqfQr875/wmY/z+xiAe6ZyCICFJasIQGWOaKzOi2T8Z639U7P/j383unn275cAYNDHmAKfA9YA5ijsKVVY1FVhk9erf5kABAwDmF4R/COpndV6y55S+8I6zBNPPHGwBO6v8UPDD9GUF+Cmjheg/jlxAHIBpuRZOiTamjT0/kEHiOX4NjUcL54EyASAhSV7CECuJAD5kYz/BHuSLfYPJm5TYPafK15Ts3+b3aclfrEXWU8oAWMAa9Ta/74Kg7orTPpRjF/9m5YwgE4G/K5baWBIyHj66adXUMaWCgHQXoB/zS0XQg4kUR2GkVKlM3Tb/mEHaNDrS9Y9U5kAsLBkZQgggvEfCqDbyv5B2+U9ABsOttyPzbfN/uF/wBiV/OdW+ve7KPmP3f8RhQG8SgM3JwNOmDChUj7sRhsBwESA/o2TRF5tqBFNY8ALkK9CAakMmkK0LSSftcbvgx4v+fs9U/OZALCwtAsPQPDxn157k4bfq9k/2G6w4W6ufhPoexGA9evXNwLGGNb++yn9ywQgRBjAqyaATgaE9ZiDVqxY8eLq1asFVkoG8HsD3DoE/A1rPT+6aULcCzAVSIDuYG0I0PgapqnvpoUY0EnHI+2bpjwAo5gAsLBkHwEIP/49v89E+1dV4Njsj26eIOgL49wmfCZ3P8YO+FtiywbAGIU1OPnPa+0/u/8jrgmgkwGPQcmAZToZ8Nprr/05xHv0Q9MP0y0nwIsRwv+vrF0pmsZ2V14A3NFSZdBRM3CyPx4UKQ1Y+n2h8gB0Y8vKwpItBKBCEoCq/EjGv7dmmP0D0iNtNdhssN20mp+JAJji/Ro/tEKlWMAWlPxXhpL/jkHJf7z2P41hAGsyoNST5QN7048XwIsRYi/AP+dNFaJCeQGq81vA1cRAkwA45PdUkwZ0UEJgux72ALCwZL8HoLtorC6IZPwnzLiT7FEG2T9w/avZ/z/nVbnO/r2S/bRqzEAY8iZgS4DkPyYAaU4G/IEhGdCpDHjnnXf+AZifjQC45QYkewFqReM42bkmw0sldAdVOh1t/XRwqkH3t6l1gBV6X79B2QPAwpKtHoDw4z/RvhRmrv2D303Kc2w12GxTZr8J/GmxHzr7BywBTEGV/2jy3w84+a/tkgGTXhAk9RT5MN82eQFMYQEbKwT3z7Y7ZgoxXnsBMCstRFvTgCADJuE3PgA6rNoGuO365N97poAHgAkAC0tWEIC/AgHoLglAQSTjP8G+2b5vK/sHNhlss7TRYKvp7J/O8r3AH3TVqlUOVsAWsAQwJZbai3+YAKQpGdC1MiAkatx0003XYy8APEgTAfDrBdi8fq3YW1mS6AXw02FtAyLwAA14/CS1DfDk4++Zwh4AFpbs8gAoAhDB+E+rfYrq+GCTpW0GGw222i3DHxMA6hF2m/3feOON16nkvyCV/zj5rxUrA3ZBlQGbvQAQtwHgx2yOLhE0hQVMComFUGNbjMuJJwRWF0Q3S58WIcAHJgR2dQgAewBYWLLHA9CcAxCxR7G11Y89g3aCTZa2GWw0eGzdZvxuy/zwRBGriv3j2b+u/NeFK/+1PgGglQHxkkBIyGh+TTAwthtuuOEaYHDkgSbkBLjlBlAFRvnihg1i5/RBQkzoHk82MXbaIrQtIp/5+T5qDXq+5P33TClgAsDCko0hgAjGfzD71Ab2D9opbTLYZrDRJve+l7vfjQAAdgCGoKV/+rW/3cnSP7fKf0wA0pAM6Paa4KQlgVJPXbly5T8MrC6JBPjxAgAJeGP5/woxOkeIybLTVRcmd+BqtK0mn5kGQHVhyxb/3TxAqFoGVNLxLOf3cTyHAIxkAsDCkjUEYLwkAFMLIhn/3vapje0f7DtZzv7H5Di2Wa/pD0IA3Gb/gB2AIR5L/0yv/eXkvzZeEoi9ACf/5je/uRqYnHyY+qGGIgHr168XH/96hBAVUBugIDxghx6AFo2AEMRDADlsWVlYssYDkCcaqwrTMiGIdMIS9nxT5d+VeY5NhsQ/L8DXW5oQ7jb7B+xQS//o7J+X/mXAksB/i5nfD1ComNoA7QWoqal5GRMAUJoTAP+bXEM0XwAY5qv1L4imMZJ1TsxXHbPIf4el31cXoa3eJwCg098nKd7Hx4A1XP+eyUwAWFiyywMgCcDUwkjGf6L9QluTvWpN+weuf2mDm8bkiVfqVji22S2/y40AaKX4AJiBZv8DFKYUxsx1//m1v228JPB7aElgHi0MdPXVV1+1bt26g/ohYw8AZYN+EgQhyeSDuy4Tojw37gWAjug6IMiAoWrbP+j3Vo8AvR67gYjnADABYGHJOg9ABOM/0ASktewftA1sb3l3aYuvaE78MwE+/duU7Y8JwNq1aw8CZhgK/+Tx0r/MXhJoLAwETG7FihWbMAHAXgC3qoFe3oCN69aIryt7xb0AUwuj6/Bh97eplWEnH3/PZMgBYALAwpJ9HoDw4z+QPWkt+wdtm5Dv2GCwxV7eW7fa/tr+61m/1ueff36Tmv3bCv/w0r8MWRJICwMleQGmT58+Q7LE/fhBmxID/RAAHQrY8thdQsDbAiEhsMrFDT+tuGWL/84WglCtPABMAFhYsp8ARA3o1uOlwf6BrQWbK23vlkV/SnD9eym28STZr1kBIwArAsz+eelfBnoBcgxegNOefPLJFfSBmwiAXy8AJAR+8ovBQlTACygK3UlApFqMtsXkMz/fB1f2ALCwZCMBKIpk/AezP2nWqqK4rZU2F2wvJP5hgKd/U9CnBIBigcSI5wErDLP/HJ79Z35hIOoFKMFegOOPP37Y2rVrd0blBYD1pi831Ij944paQgFJA4RqUMAOeryoCUSxJACFkgDksmVlYcl6D0C67U2a7R+QmokF0uYWO7ZXV/SLYvYP2AAYQWb/JYbZPxf+yaDCQG7lgY1egAcffPABnfRRU1OTkPyBOwclApRR6r9huci7C38vBLwyeLL2AhQnMla9rVIduQp1aPyZ6Xs6IGzHs6rteGir/nY8ACPYA8DCkh0E4BbkAQg//oPZm6L02T+wrZMKpK3NFe8suEHQF765qWF9v7PV9l/bfsAGj9m/n7K/TADasDCQyQuQT70A3/jGN86oq6vbjgmAlzfAi1HqvyEU8PllZ8VDATDoqtCAqELbKvJZKmobMPT7qmK0Te387AFgYckyAlAuCYATlgw//r3tkcW+RWn/wLZW5Dm2dsOGDb5m/tpWa5uO7T22//X19dsBGwyz/3zL7J+X/mWZF+DU66+//jpwHUEH0EqLBJnyAtwU8gFeqXm6pTZAlRfjDThgEkDcAOhUk45nIwz0fFSLxJ5JhewBYGHJFgLwEPIARDD+Pe1PWHvj1/5BOAPW/I/Ol7b2qeas/iCzfwr+WgELABNcMv959p/lXoCkFQFST3/++ec3406A2aBb6WAvBXfUe3+eLcTYvHiSytSi1AA6LGO3Hc92PewBYGFpvx6AFMZ/qBl/FPZvqkr8G5cn3vvTlU7Wv59Jmsn1T8EfFLAAMMFH5j/P/tuLF6CioqJadqT9JgKAiYBfrwC4mjb8fa3YWfXjllCAL4adZq3u0bJ1tBht/V0feADekASgce8etq4sLBkub91/vSIARZGM/2D2JiAh8KPQDmlTd079sWNjaVKfHwKg7TtsX3jhheatnLjtByzg2X8H9AIsWrToWcoIU/UCwD7glnp1+WPiwOh8J1M17gVQA9DZ4r9dALoKbU37J6nl+KG1h9g7uVC8ObK7+Gr7VrauLCwZLq/ffKn4eHx+nABEMP4T7QvVkPbJZv+crP9Cx6a+tvxvDvj7mZBR+61tO4C+JgCggAE8+2/fXgDXdwSUlJQMqa+v/0J3Cto5vOoF4E6I/167dq147y4VCphkCgUEBWzb/kEHaPDz75ME4J3ReWLb6mVsXVlYMlw2zzpLfFZRIJqmFEcy/oPZnwgnLGA7JxU5thRsKthWm/3F1f30FoO/tu3wd0NDwxeAATHvmv88+29n1QGb3xQISz5uvPHGecAqsWvIa4WAWwfE369bt1Z8PutMIcYXCDEZylYGGABT0XYq+cz0+6nFLduU9kefuRCI/ZOLxTY5CDfPncnWlYUlg2XntnfE5qHdxM4JBeKAyQOZwvgPBughJyBTkdsfwH98vvh85hmOTXUDfC/wp3F/PckDmw+2Xy37w2/846p/HcALAO92PlHqKVLPePbZZzfavAAmQmAKFeg3DG5e9azYP0Z25AmKBEQIyJ4DKujxbPvLv2Em8akciOuG5ouv/vkBW1kWlgyVTbf+XLw9qrvYM7FQHJxSFMn497YnUU9g1N/gvZhQKPaP7SE2r1zu2FQ3e+uW6W8Cfq3Lly/fCLZfYcCJChN49t8OvQDwpkB4d3PnWPxdzj0U0xsodRAwwHPPPXfcmjVrdpkIgFtyoE1hacmWh28VYlRenMlCh56qOz0egGibyvc2pb+n6uN8B+S1755Y5OQBrPvtVLayLCwZKJ9ueVXUD84VH48vEI1TiiMb/4nfB51gpGDf4NrBZo7Oc2wo2FK3Yj7YJlNbjW34ihUrHLsO24aGhl1g89Xsf5DCgj4KG7orrPiRwg6e/We5F+DwWPzdzcdI7Sq1QGqp1H7YC3D33XffBy4k6CBaMSEwVQ6kHZCGCuAVlf+6ZpQQ4/JbQgF0AE3tgbY+BkhgxedI/XyNk4vFx+UFYu3F3cQrj9zF1paFJYPk6y8+EyvKjxdbJEnfPaHIIe1Rjv+0EQh6PVMV+JfnO7YT4v4U9L1m/hj0cba/tuewL9h6MvvvpzChQGHEMQozDufZf/Z6AeAdzd+RehjyAhwrNVdqsdTeivmdpJjgmbIDvYnBH7ZuXgAbAYC/naWB9avlgOwnRAWEAoojGEBp9gi4XN8BOTC/lgPz/TF5ouaCLmLj/JvZ6rKwZIB88f7bYnnlKWLz0BzxRWVhy+w/wvEfmUfRtj/YSGkrd1f2c2ynzvr3Y2+xavCn9hxsPNj6WEvJ34EKC4oVNhyLZv+HKQz5Fs/+s9MLAG6bf1dM7kipR0vtEmspEdwPLwscP378tIaGhr1uXgC3wkFeCh34taceFgdG5TsxLTFFd/6eSnugbWtoz8TzV6Ftlfquynw9TXJw7pKzi3dH5YmVkgQ8d8Vw8a/XN7MFZmFpA4G6HBsf+qNYdnGR2DQkR3xSXiD2SZJ+cEpxWsZ/WuwP/kzF/cFWgs2EZdVegI+z/OnMXyu242DbwcaTZX/9Yi0lf7sojDhSYca/Kwzh2X878AIcIfWHLsWBfqyWgpz54IMPLtIMUncc7E7ySwBwJ3WqBN5+hRBOqeBiRQLcCEDPgAShZ8SEwvt4TZN7OCTgA9mW9YNzxJNndxbLqs4TG+bPE2++8KTYtnmd+PDVl1hZWdOg7659Qby69CFR89uZ4vGLi0XNT7qK14fnis/GF0rwL1au//SN//D2iar6Dq57YpFjI8FWQrU/r6Rr0zI/EwnQBAC+B9uuZv942R8t+vNDhRU8+28HXgA/xYH0skAnIfDb3/72OatXr/7g+eefdzoObEFpSMCUKOgVKlgjO/SnV14gxNj8eIxrMiICgQiBywBy2x+fw9f57AYCjMweSWTA6LwzMk+8dEmOWPWTLuLpc44TSyQheOLMY8UTZ3VWeizaHqu+U1u9n9f+CZ+Z1LI/Poev89k05PG5/dz+FNu/WOpSOcaeO7+LWHNRN/Ha8O7iQ2lPvpKEHHJ0DiaAf/rGf6jjT0FbvR/YQklexLgCx0aulRMmk1vf9CIf7J3FM39qv2traz8A244S/7yW/ZmK/jAByGIvQKBlgZdddtnPoExwlKEA6NAv1q8Suyv7C1FRiPIBgjJuGwEIysADqhq0B+X1N04CIlAkvpRE4F9y8H4wJk9sHZ3vhAjeHZXvonlom0c+8/O97XhUbb8PqCPzWrYj1TlG5oW4Xm4/t99f+2FsvS9nyB+OlUApxxx44sDlf0COSXe3f3rGfwuAo22qExYn7l8obeMAsaEueWbvRQJsrn+V9b8fbHoKy/549p/lJKCTj2WBxoTAhQsXPo6TSLAXQHsCTIWDaKfEJAFWBrzy3BOiaZQkAJXgBehhZ9BT0HaK3s+LcdsGcMDjWa7v4JQejgFqlG3ZP6mH44ZM0IlFLVv8t+/v0Xai3s9jf5sGPZ7t+qzn4/Zz+6Nt//6JPUQTuPudWX+PNh3/wQkD+T3M/KUtBJv48vJFzev9qT2lhMDN1Y9n/aCwz4IFCx73SPyzLfvjkr8dYFlgUkJgp06dzpad5y3dkTAJMLmdTIBvYrCwpvWthTfH6wNMKI6TADwg8SD1M4Dp/kkDnKjt+IFnBAGvJ+j33H5uP7e/fbYfiEBlsWMLtyy8SdBXtNsU213tpaX2Gmw42HKXxD9e9scJga4JgWcMGTJkkuyUuzGj1J2LhgVMJMDNEwAJLtt/N1GIMQVxBjy5h/8BbNOwBijq86X799x+bj+3P/vaDzYPEqLHFji2UCf9+cmpMq3xpzN/ULDdYMOV658T/9gL0Lws0FdCILiN5s2bdwfEpCgBsCUF2kjAujUN4ovpZwgxrlCSgB4qHOCHsZegbQn5LA0GCI49BZ0Pf9YaBoPbz+3n9rev9oOtA5tXXujYQLCFXuFTtzi/l+sfbDbYbuT695P4x8v+OogXwJQQSCsEnqzcRmctXbp0PXSw5557LokIuBECm0IH3bjqWbF3XG8hxsOLL2CA6IEVYoAlDTg6gNG2Vc5nMxj4Grj93H5uf7tvP4C/tHl7x/WSNvC55jK+QQmACfy1jV62bNk6sN3I9U8r/pkS/3j2304JgC0hEFcI1KGAk3QooKioaGhtbe0nXqEAujWFB+jrKCEp8NUlC0XTyAIhKooRCQgyQMMaENvv6fe260v3/tx+bj+3P2vbD+AvbR3YvFeffMgBf7/2khb2oUv90JK/T8BmI9f/Scj1b6r455X4xwSgnSYEmioE6lBAXxoKuOKKK/5HdqwmkwcArxBwywcwJQ3CFqpdvfnXW4UYmRdfGTCpp2XARa1hDYzl+8loO1l9NzmMweH2c/u5/VnZ/okq6W9EnmPz9GvYTfbRpNi+msAfZv9go8FWG1z/fZHr31TxjxP/OnBCIK0NQF8W5IQCFixYsBQ6KWWc1CPgVjuAMlq9hezXrXfMFmKU8gRM9jIYRPE+6di/tTXd7eH2c/u5/a3ffjhHZQ/HxoGt0xn/fuwjtasm2wvgD/suXLjwSeT6py/7oWv+OfGvg3oBaCjg+6g2gOllQU6Z4G9/+9vnyg74FnQ2t3wAzFZtjBZ3fmdlwK/HCTG6ID5Q3AblZLSdTD7z833g41kMBv29sx/aP+Gz1rhebj+3n9ufUe0Htz/YNGnbtv9mnGPr/NpGr0Q/DP6gYJs7dep0Tqyl3K/pZT96zf/3XVz/TAA6aG0A+rIgYyhg0KBB5XV1dV9SAuDHC2AjAWsb6sSnl58vxJjCuLtMD6AgA9o2wKkGNSCtbbC4/dx+bn/2tn+Scv1Lm/bppec7Ni5V8PciAGCTwTZ7uP5NL/vhNf8dNCEwlVBA86qAyy+//Jeyw+2PmgTAUpi/164UOyafJMQ4eDmGGkBTSt0HcFjVx4Yt/tv370MakKivh9vP7ef2Z0b7HfCXOrZI7JhykmPbcP3+CMF/P9hkj6z/oK5/JgAdrDaAVyggqUCQ1LP//Oc/PwidOWoS4CwPrFkuvh7bR4hySApEJMA4QEvRVu9TivZH24R93Qa17XgWAxHYoJDz0euzHo/bz+3n9mdc+x0CUOLYsK/H9XVsmlvGfxjwBxsMthhscsxc8Mfm+ufZfwdPCPQKBbgWCIIOt3Tp0nWm+gBRkICXn/6baBwFxTJ6xFn0pBKXAWwxIKEHuO34Ic8fen9uP7ef259R7QdbBTarvNixYWDL0gH+8B3YYAX+XgV/vFz/nPjHoQDPUAAuEHQCDgUcc8wxgyUD3WZKCgxLAqBGwGuLHxCNI4oQCejpw0DY1DaAM23/oAaS28/t5/a3WXsct39JHPyl7QIbBrYsavBXs/9tYIOJ6/+EmHvBH3b9s/gKBdACQfRdAacod9NZw4YNq6qtrd3lRgAoCfA7EEBhnew/HrtbNA2XJGB8j/jACjpAtedgUkni367fo62vAW85ftj9wxo0bj+3n9vfeu1X4A82C2wX2LAgNs8G/mi9/y6wvQr89Wt+aa1/r4I/7PpnEuCrQJB+V0AP09JAcD/9+te/nis75IGovQCaBLzx8B/FgRGFHiQAD0i0nUQ+i0Lp8anazme7vrDXz+3n9nP726b9E0ocG3VgeKFjs8KAv9fsH2wt2Fzk+qdL/nrEWmr9c8EflpRCAfhdAfi1wX0N+QDnzJ8/fzF04nSQAKgWuGXBTXJgFcRJAAy0qAxEUI3aIAX9Purr4fZz+7n94dsPE5OKHo6NAlsFNisd4A/7gq0Fm+uy5A+/5hfX+mfXP4vVC2B6VwB+bTAsJykzLQ2EDrl06dIN6UgKhHWzMKDeuudaISgJmFzWssV/+x3A6Z5xJH1vud7ABpDbz+3n9rdp+yfGZ/5gm96691rHVqVjrb9K+tugwN+05K9M2Wj8ml+3Wv88+2fxzAegrw2GZSTdDUsDm/MBDjvssJ/ITvo2fitVlCQAyme+c+cvhBhh8AQ0axnalpHPUjAY1hlByONFfT3cfm4/t7/12j+xNG6LRhZK2/TLpBK/UYG/sp1vg431iPsXKxvdOcav+WUJGQrASwOPIksDe6hlJjgfwKkPUFZWNmrVqlUfpWNlgCYBW+dd4Qw4UdFTkgA9gF0GvM0gJH1PdDLaGg1GyOMn7W8xaEnXU8bt5/Zz+9ui/U7Mv6czIQGblA7w1wQAbCrY1ljien8d9++D4v56yd9RsZbX/P4bu/5ZgoYC3JYG2vIBzh48eHB1bW3tTr8rA4KSAKil7ZAAnRg4oTSAwQlpgDJ+f24/t5/bn/b2q4S/OPhfFqq+v4+M/51gU2Pm9f5ucX/Tkj+e/bOEWhpI8wFMpYKdpMBZs2ZdXVdXtzddJKA5HDAckwAfA3wi2k5U300MYjBsBiSoAYraQHH7uf3c/rS2H2wNzPyHFzo2KJ0zf7ChYEtR0p9bqV+vuD+7/lkCk4BvkKWBNB8AlwruHyOvDoYOO3fu3HleywOjIAGQGAjLbkS5CgcEHcwT0dakeB/T/rbvHUNT5m5wbMdLt3L7uf3cfn/th+uuLHVszYFhhY7tSSf4g+0EG0qS/vQrfvvHkkv90rg/V/tjiTwfANcH6B5LrA+A3xfgkIB77733Ua93BkSxOsBZIjisSIhxPeMDdEJp6gYsqMGI2mCFNchhDTi3n9vP7Tdcl7Ir0sYcGF7k2Jx0gj/YTLCdCPxxnX+83r97LHm9P8f9WdKWD6DrAxyjYk761cE0KfBMFbM6Z9GiRauC1AhIhQS88fCdoml4cZwETChrIQFJA7wX2vZS3/UKYDDQb0y/t2lYgxT0erj93H5uf7j265m/tC1gY6DIT9ilfra1/mAzFfibiv3oOv/5ygYfE3Nf78+uf5bI8wGOULEm+r4AY1Jgp06dzlu2bNnGIDUCUiob/Ld7ROPwHiocYDASaXFx0uPZDFJYA0p+n2DUfBg4bj+3n9sfLISh3P6NEvzBxoSt8Odjrf9GsJkeSX+0zv8PlU3muD9LWkIBbvUB9PsCaFKgfmlQc6XAQw455CfPPPPMK+kmAa89sUA0jigRYmyP5HBAKgYrqEFK+n0vtO1FPkvD9QRVbj+3n9tvPt8EBf7SloBNAduSbvAHGwm2MpZY6Y++5Ecn/ek6/37W+zMBYIksH0C/L8CWFJhQKfDwww+/UHb0N4IUCgpKAuDNWy8/vUh8PaafEGN6ClFRqrwBPg0QNViT0NaXgQur9PpsBjTo+bn93H5uv7X9YDPAdozt6dgSsClB3uoXFPzV9g2wkTFzpT+vpD9c55/j/iytkg9wqIo5HUWSAotVggquFNhMAo4++uhLampq3kknCYB3b298YbnYMfFkIUYVCzG+BHkCbAYjrAEKaGADG7Soz8/t5/Zz+xN+D+APNkPajh0TT3FsCdiUdII/2ESwjYaMf13pr3espdKfTvrDxX447s/SaiTg2y5JgbhSIF4ZcApeGZCXlzdCdvgP0k0C/r56pfh01oVCjAQSAO68KGcqraTaezGhLPHvbGsHt5/bnw3tBxsBtkLaDLAdYENaAfw/AJtIMv5PMWT860p/pqQ/rvPP0qZJgbhSoNvKgDP0yoCysrLRq1ev/jBIyeCgJACW0qytrxPbrxkvhLNCoCQ+wDERmIC2JsX7GA0U+X3U+1sNpOV4Qb/n9nP7O2L7wSZUlMVthLQV2/9nvGM7wIakC/xBwQaCLUQZ/2dYMv5xpT9O+mNp86RAU6VAvTKAlgtOWB540kknjZcD4ON0koDm0sG3/0yIoVAroDQ+0J2B31sZgt6pG5yoDWbS973RtRqu13Y9SddnOR63n9vf0do/QREAAP9hRWLrH38WuLRvKuC/atWqj8EGxpKX++GM/xKU8R+k0h8TAJa0JwWaKgV6rQwYhFYGOCTg7LPPnlRfX/9ZukkAFO1446FbRdPQYiHGlsRJQGWZf8Ph16Dgz/wYSJvBa+3jcfu5/R2p/XrmP6anYxveePDWwAV+UgH/urq6z8H2EfDXy/38Zvy7Vfpj8Gdp1aRAXCmQrgwoirkvD4SOf64cCBOBDXuRgDAVA/EywVcX/1XsHd1PiFE9hRivSQA2ML3RVhuN3siAoG3Cvi6/p99bDRz9PdWgx6NquT5uP7e/o7S/slc83i9tAdgEsA1Bl/kFrfCnwP+TM888cyLYPgL+dLlfkUvGP630x65/loxZGaDLBVMSUBZLXB6YQAJUOOBDr8TAKEgAJPS8VPOs+Hzq2UKMhKJBpXFDkLI3IKBBbW0DHvp83H5ufztrv5MHpMB/RLFjC8AmBE32Cwr+sAUbp9z+JvDXy/3KDOCPy/xyxj9Lxq8MMC0P7OVFAiAZxrY6IAoS4CQHNtSLbddOFmIYhAQgL6BX3Ci4zjz8qs0ghd0/6vNHrdx+bn8Gtx/GOIx1GPNy7IMNAFsQNNkvFfCX53hfJfx5gb9e629a7scZ/ywZTwIOISTgGAsJOB2TgJycnBG2OgFRkACdF/DmgptF49CeQowu8RcSqETuQ/x31hjoCAwot5/bn43td2b9Zc5YhzEPYz+VeH8q4A82DWwbAf/TLeB/DAH/Qxj8WbJlZQB0WL080FQjYICBBEBCzLlHH330EKiK5VU2OCoSADG//3tmkdg17vh4XkB5WTCDVom2leSzSIwWOT5V2/nC/p7bz+1vD+2HWf84ObZH9hS7xh7vjHkY++kGf2XD3gCbpsD/HAP460I/prX+RxDw54x/lqwhAbRGgG8ScPjhh1/0zDPPvBqUBKSaF7BhdY349NKLhRjWI+4eHK9chdTA2AxeUINlNaB90LYP+awNDCy3n9ufTe3XLn9Y/ju8h/j08ovFhtqaSOL9fsAfavuDLQsI/kHW+jP4s2QUCfhGzFwjgBYKwiQAlwxuJgGHHHLIBU899dRGr1cJR0UCIAbYUF8vts67UhwYKknAGEwC+gSYgRCDVdk78ff4M9P3Nm1tg2u7Pm4/tz9T21/R4vKHMQ1je01DQyTxfhv4w2/grX5gwwzgT0v89oglF/oxrfXn5X4sGZ8PYKoRgAsF0WqBniSgU6dO5y9atGg1DNp0kwBwB8J7vl9d+ojYPe4EIUaWxN2GFcqYRGHAKvugbR/ymeH4VAMbVHK+CWibyvG4/dz+TG8/6Hjl8h9RInaPPd4Z0zC2o3D528AfbBXYLLBdPsCfVvnDhX5Ma/057s+SNUmB+O2B/5kqCZB63r333vtobW3tAS8SEEVeQPN7BGpXiY9+MUaIBG9A72SDlWTQqFoMnM1gBz2fzcAHNchhr4fbz+1vzfZr8B9b5oTzYAzDWE7F5R8k3q/BH2zU3Xff/b9gs0KAPy70w8v9WDo0CThbk4DrrrvuVsni96W7YFBzSKChQbzx4G1i/3BpUEaBN0CFBEIZSPo9dXFSA4m2fn4ftcGOHCC4/dz+NLXfifX3cpJ59w/v7YzdhhRd/ikW+NkHNgqB/9kM/ixMApJJwPdjie8NMJGAk00kYNq0aVdLlr0zKAlINSQA7wDf9MJy8XnVeUIM76kSBFFIwGpQg2pQg93a50v39XH7uf0Bjw+eORiTMOuXYxTGKoxZGLut4fJXM/+dYJtcwP9kF/DH9f2/z+DPwiTAfXVAMwmQUr1q1aqPgtYKCOMNWNNQL7be+jPRdAnUDCiNzzTGK8NUgY0R2prUtj/9PsnYtfH+Qb/n9nP709l+AH8Yi3JMNg3p6YzRNSkW9kkF/GELtghskgf4n8jgz8IkwJsEdPUgAQkvEIKBVlxcPEoOzrdbY5kgThB8ZdljYkflqcobUKa8Ab09DFrflq2jfdDWx/74M6OBxMc0HD8sIARVbj+3vzXa3zzr7+WMRRiTMDZTTfRLdZkf2CCwRQr86Yt93MC/K4M/S0chAH5JgNsSQVcScNhhh1345JNPbrAtE4ySCEAy0Vp4vfCtPxdNQ0vVSgFpiMp7t5JHgBj8JAMZEEBs15d0vREfn9vP7Q/qYYBxBmNuFMz6S5yxCGMyqkQ/P8l+8DuwPWCDfIJ/D0PM3y/4MwFg6bAkoL8HCXBCAvPnz1+cygqBMN4AqCK2+bll4rMp56mVAmWSBPRKNJQmDWywA86gghrwpBmjZUZpNeh9uf3c/vS03wF/OcbG9HIy/D+bep4zBlOt6Jcq+IOtAZsTS8z0d6vtz+DPwiQgFnx1gK4YiN8dMEgNsDMoCZgzZ85cOTB3tUZyYEJuwJo14q17fi/2D5fGaWSpEGPBE9AnrhXakCGDlvCZ4XubQUxSejyilWjr63g2JedLOj7acvu5/VG0H7RcuftHlIj9w3rLMfc7Z+ylGusPkey3C2yNAfzPULZpUCyxtr+u8JdKtj+DP0uHJQG6bLB+gRC8I/sENcBOVQPuLEwCzj///CppELbZ8gKi9gZAtvHGlc+Jj386TIghOkmwNyIBfQMYTJumGTACq83Ac/u5/SHaD2MIxtLoMmdswRiDsZZqhn+qs37YB2wL2BgC/mcpW3Sqsk0nKFulX+yDy/sy+LMwCfBBAvC7A/RbBMv8kIAjjzzykiVLlvzdVjkwHd4Ap27AX+8SX485Pp4k6IQFVG5AqgYz8P5Bfx/2+6jPx+3n9ivgh7EDY2h4iRxTA52xFWZdf6rgD+cDmwK2xSf4l8Va3uqHa/sz+LMwCbCQAPzuAPwq4SKppWqAHS/1pFhLwaAEEiD1/D/96U8L6+rq9qcSEghDBJwqgvW1YutNPxWNg0uFGCF1DCQJ9jF7BMaj7XjyWSoa9fHSfX5uP7cf7+/M+PvEQ2ly7DReUiq23vxTZ0ylmuTnBvw+i/vsB1sCNsUA/rrAz0nKJvVTNqoolvhKX1zbn8GfhUmADxJwBCEBuYgE9JU6MGauGniOGqhQNOh/5AD+0kYCovYG6CTBjS8sF/+6arQQUDtgVFnclTlOEYFWM/j90LYf+cxkgInS40V9Pm4/t18Df7ly98NYuaSHM3ZgDIVJ8kt11q/i/V+ADdH2hCT74ep+A5VN0uCfS8D/CAZ/Fhb/JAC/SvgoqUdL7awGVqHUEql9EAlwXSFwwgknVMgB/1aqSwXDhgXq6+vFq0seFjsmni3E0BJp3HrFSUC5IgFgHMeHMdDk9/gzP2oFoLCARn5Pr4/bz+0vV7P+0XJsDO3pjBUYMzB2onb3+13iBzajX79+42Pemf4a/Psom1SobFRnZbOOiiW+0pfBn4XFQgLwq4QPk/pdNZD+Sw2sHKkFMe+CQQkhgW9961sXPPDAA8sko29qbW9Ac+2ANWvElvtuFHtHDRBiWEl8KVO5Cg2EMqAh9w89AwwIQGFnlNz+9tN+neDnLOsrEXtHDhBb5t/ojJUw7v6Qs/4msBVgMwwuf68CPwXKNnVWtuooZbsOiyW/0pfBn4UlIAk4Ug2sY2MtpYNxrQDP5ECI4VVXV/9SDvBPbCWE0+EN0KsFNtStFu/PvUw0DoNXlZbFZz3lyCNg1X5o2498lsoMkRyvAm0ryGfG8wX8fdL3AWes3P7sb39533h/h9yY4aXOWHhv7qXO2AiT3R9m1g9bsA1gI1zi/TTZj67x76Zs038pW8Xgz8ISkAjo912bSMDhsXjxjB/FWkoH02WCOjnw1JjhHQKgnTt3Hr506dL1flYJpMMboPMDXlpdIz64rlo0DSmVRlARAWfpYF9isC0GOLSBt7ikrd/bACIggAU9Prc/e9qPXf2yzzcNKZNjoEq8tOqF0HH+VGb9OMsfbALYBhTvpzX9TyXJfniZny7t+yNlow53Af//F+PyviwsvkhAJ0QCviP1UEQCcK0AvUzQT3Jgszfg97///R11dXW7Uw0JhCUCYHSgbjmsad72m8mi6ZKSOBGAWdG4vvFZkp8Zl1XD/j7i41lnmFFfP7e/zdsPfRn6NPTtEWVOX4c+D30fxkCYOH+YWb/K8t8NtsAw67cl+9Flfj9E4H+oslka/Dsx+LOwpB4SwCQA1wrAKwQK1cDUyYGeeQEw4E877bRJ8DIPPwmC6fAGYCKwueZZsf2XE0TT4JJ4aCCJCKRogPXvy/sm/p0yAITU0NfD7c+a9lPgl30b+jj09SiAP8ysX/32bbABLi5/Gu/XyX6lsZZkP7rM7z8J+LPLn4UlIhLgtkxQrxCgyYG4fLBbXsB5nTp1+sn999+/WBqkxrbyBmAisGnF0+LDX4wXBy7uKQTkCYyGEqh9Eg14pEYabcvJZ472R9v+6rv+Hvun+3q4/Rndft1PHVd/b8erdWBwT6dPQ99OJ/AHmPU3wpiHsU9c/qZ4P67pT5P9jo7xMj8WllYnAXqZIF4hQJMDaV6AZ0igoqLiqpqamm1hvAFREQFY/rTp2WVi+zWT48WEhpW2EIGxysC6GmBi0KmGNvAWwAh6/qCAF/X5uf3RtL95tq+Af2ip03e3/2qy05fDLukLA/x41g9jvLKycrYPlz+N95uS/XSmPy/zY2FpJRJgWiFAkwPd8gI8QwKw9Oe+++57XM4Q9vnxBrQGEYBkwa23XCX2DpdGdkiJECN7xY3sWGVwsdFOMObpmvFZzpd0/JD70/MnARq3v03b7wB/vzg5hRoXQ0qdvrr15tlO380E4Fez/n0wttXyPpvL3y3eT5P9ONOfhaUNSYApOZDmBeiiQQNcQgIJqwTAOFxwwQXV0rhsgazktgwL4OWD69fUi7fumSu+GneyEJeUSiIA66f7Ko9AAAAJCjA2wEn6fX+07U8+M6ltf/L9eLRNpX3c/mjaDwrAP7pPvC9eUuL0Teij0FfDLueLyt0P1wBjGcY0An6c5W9y+Q+IJRf30fF+r2Q/Bn8WljQSAbcVAvpFQm55AYFDAqC33Xbb/XLmsKutvQGaCOiCQq8/crf4fMoFQlwMKwfkrGtUH0UG+qnEwSAAgrZ+vrcBWtKMlGhQwEwCLHo9VPtx+9PVfmem3zfe10bF4/vi4p6yL/7E6ZO6gE9bAj+Z9e+CMazHcwouf7d4v36hD2f6s7BkSF7Av6O8AF00iNYLKHMJCRgTBMFoDBw4cPzTTz+9WdcNyBQiAO9Cf2XZY2L71RNE4xB4VSoUFoLXpmoi0M8nQEQ9I7UBZsDjBwU4q3L7A7dfAz/M9qGPDSmVfa6X0/egD67JMOCHsQpjFsauYdaPE/1MLn/9Jj+8vh8X9+FkPxaWDCQBpqJBtF6ADgnoEsK4eqCnN+C3v/3tLfByED9VBFuDCOA8gQ11tY7rdceEs4UY3FN5BXqrXAHsFegIGhYguf0ts/1+arbfJ96nBpc4fQz6GvS5qOL7YYGfVPP74pprrrnFx6wfV/XTJX21y99tfT+O9zP4s7BkcF4ArhdgCwn48gZApbCHH374OT+vGbaRgCiJgM4TWLt2rXj5qcfFtmumiP1D+zgzNTFceQXGIM/AuCBAgLbjyGdR7B/1+dv699nc/nF4tt83Ptu/pNTpS9CnoG9BH4syvu8F/AHd/fthbKpqfn5n/X5c/qb1/RzvZ2HJIBKA8wJM9QKOMoQE9KuFTQmCnt6Ac889t+qpp556GdyemUQEcD2B9Q31Ysv8W8Tnk88X4qKeQgwtiydrjVaJg+O8wgRYB6DtAPJZawAmPT9Vcj1RA3B7bz8FfegjQ1ti+9CHoC9FtX4/auCHMQhjEcZkgFk/TvTTr/ClLn/8Jj/s8neL9zP4s7BkWF4AXSqoQwJ6lYAuHGRKEHRbLthMBGbPnv1baYC269oBmUQEtFcA4rNQgOXdeb8UOyrPlIa9VBr4XtLQw3ptcPEqj8DYfi2gMc4DQAIDVliAsuwfFkDH9W/ZdpT2633H9leg3ycO+heViB0VZ8i+crXTZ6DvRD3bjwr41Vs2t8MYJMDvtrzPlOinC/voLH/s8sdL/Djez8LSzkICunCQThDENQN8ewOgmthdd921QM6QdkaRHxA1EaAhAijKsvXmn4ud5ac7Bl8M66WSB3XMlxABDJJ+ANQGQEn7Bzx+EkCT39v2D/r79tJ+/WzHIPe+M9MvdfrC1lvmOH0jHS7+KIAfjy0YazDmVCW/ILN+urY/L9ZS2Idd/iwsHSAkoFcJ/CjWkiCoawboMsLYG+CWG5BABAoLC0c+9thjNUHyA1qbCOgQgSYDm599Umy9abb4atxpcTIwVK0kgKQvJ2+gX3yW6HgHBijtj7apADA+huF49PtytC0nn5k06P5J5w94vZnafn28Mf3jz3EUgH6fuPfnolLnmW+96SqnD2jQj9rFHyXw6zg/jDEYawbgd4v141m/Luer1/brRL8fxdyz/Nnlz8KSZSTAzyoBmiCoywhjb4Df3IBmIjB48OAZsASptrb2YFREIF1eAYifwmtYAQD+75nF4t3bfyU+q7pQNF2klhVCAuHIvi2hgjHKbTwuBABbAc0CiFYAD7l/YAKRQe0fq57RGPXM4NkNg0S+MueZfjb1QvmM/8d51vDM4dlHuXzPL+gHBX4YSzCmYGx5uPu9Yv141q/L+XYms/4gWf4M/iwsWRwSwAmCXt4A20oBY1gAFOqNP/PMM6/CzCoIEWgLr4AmAzpnYEPdavH6Q3926rh/PfJElTeA6gw4iYT9W7RVAdwGuHQGHhbgbTP+AW3Xfn3/9Sy/2bXfyykSBc8OniE8S3imOqafLtCPYraPgR+uFcYQqt3v5u63Zfh7zfpxoh+7/FlY2nFIwJQgqGsGUG8Azg3QKwVOiHknCSYRgSlTplwtjdkbQVYMtBURwGECuF7I/F63bp2cMS4R79x+jfi06mI5k5RkYHBZHGSG9zF7CMYGAHDWFMFezfCHK7f+4DLn2cAzgmcFzwyeHTxDeJbpcu+nA/jVWHkDxo4L8Hsl+el1/X0MsX4866dr+02Jfgz+LCzt3BtwqMUbQFcK+E0STCACl1566TXSGL4VNRFoLTIAs7GGhgZnSdhrTzwkts67WnwyY4jYP7R/3EMwRM48h0GlOCAE8rNR/eLbMf0TQwdjB7Rs8d/NYDcQbQeSz/z8ngJnyPNZlfx+7ICWrel8fq7HAXv595gB8XsH91ED/lCoxBeP4+8f0s95BvAs4JnAs4FnpGf5bQn6qQI/jBEYKwbg95vkZ8rwd5v1c6IfC0sH9QZ804c3AK8UgLXCuopgf5ewgJUIXHnllddJ4/lukNLCmUAETIQAKsGtc/IHloi37v6D+PDnFWLX6JPjCYWX9IqDlZNHoJLQjJ4CG4Ciz3wBNAV0qkEJRUCAD0ooxqrZvQZ7IE6gI1T8Hu4heFwk4MO9hXsM99qZ4ct7D8+gtQA/XcCvrvtdGBs+gd/k7u8fa6nmVxQzZ/i7zfo50Y+FpYOQAD/eALpSANYIQ4UwnSRY5hEWsOYHgM6ZM2cuzHZSyRHIFDIAcWQw3jhkAMllG1c+L17/61/EezddJf512Sixa+wp4sAFJS2eAgA1ALiR/Vo8BaMNHgNfBMEyw6aaRCiIBp7Bk+PR349BbRqtgF63FRTuwwg1swfSNLjUuVdwz/51+Sjx3s0/c+7lxlUrnHuLXfqg6Yrlpwv0aYwfxgCMBTo+LHF+k7tf1/DPV2P1uJg5w9/vrJ/Bn4WlA4UETN4AvVIAVxHU7xRwCwvgtwxaiUBFRcVVy5Yt2ygNexM2jlERgdYiAyZCoL0EAFwv1teJV5Y+Kt6690bxwbXTxGdTLxL7hkowvLAkPsO9pCzu2oYwgpNb0K9lNowJAtYx/VtAthmA0daoA9B2APmMHMPLI9EM8EpHa+3fEgLBs3lnRt8HAX18Vr9vaH/nXnxwbbVzb+Aewb1aa5jdtybg+wH9VGb7ah1/E/R56Ps+gR+/tc/N3a9r+ONqfqYMfzzrZ5c/Cwt7AzxXCuAqgvA+8M4uYQG6WuBUQgTO8SICp5122iRY41xbW7sHDGs6vAKtSQY0IaCkQC89hFg1JKm99MLz4tUnHhJvzr9dbL3p52L7nIkSEC8Wu0cNEgcuBJCEYjVlcdDUeQbwnoPhfVuAdRQhC6P6JQLxGE0gKJlAgG36fpRBmz/vFycpw9W1DFWejSHxZXfONctrhzZAW6BN0DZoI7QV2gxth3sA90IvyaNg35qAHzXoY+CH30Hfhj4Ofd0C/OcQ4D81lpzdb3L3d1ZjFFfzC5Lhz+DPwtJBvQFuKwV0FUH9TgG3sIBeLdDfBxE4140I5OXljbjvvvselzO/L4KUGM50MkBJgYkYwGwXXNwAiDAD/vu6tWLTC8vFa48/JLbcd4tTovaD62aJD+dUik9mjhBfTjpf7Bp7qtg3pL84cEGpEBeWthAGR2GmjVSTiEt6t4QihvRu+ewSPTtX+4JerGbrCtDhHHAuOCecG64BruXDn1c61wbXCNcK1wzXDm2AtkCboG16Rm8C+tYG+3SBPi3ZC30Z+jT0bQ/gP9cH8PePJWb3m9z9uoa/rubHGf4sLCwpewN0FUG3sABeLQBvFDPlB+hEQd9E4JBDDrnwlltu+bMEhW145UB7IgNuxACTA0wQMEkA9zisawdwhVk0AO2Lq2vE5uVLxSuLH5EAvFC89uh88Y+H7xZvPHinePOB28WWe28Wb/1lrnj7zuvFu7f/Wmyd90sngx7+fvvO65zvYB/YF34Dv4VjwLHgmHBsOAecC84J54ZrgGuh4I4BnoJ8WwF9a4G+zuiHvgt9GPpyQODHVfxonF+/tU9n97u5+3nWz8LCEok3wCssoFcL0PwAMFZ9fRIB19BATNUSWLJkyRoJMnvCeAX8koFMIARuxMCLKJgIQ5RqOpft+jLlPvp97qn0KTzbhz4KfdWwht+Pq98E/H3VWKJxfp3d7+Xu51k/CwtLJN4At7CAXi1A8wNwomAqRCCJDMC7zu+4444HpKF9D68eSDcZyCRCkApJSJdm8j0J8mzDgL7O5oc+CX0T+qgL6KcC/DjBj8b58Zp+k7ufZ/0sLCyRegNwWICuFqD5ATRR0I0I0ByBs21EALS8vPynTzzxxGo549qNvQKtQQYynRB0RA36/MKCvprt74Y+CH3RY7bvldV/qgfw0wQ/Guc3Zfeb3P0862dhYUlrWMCUH4ATBdNGBI488shL5s2bd4800O9Ig3wwlaWEYckAE4LMB/xUQd+whA/62DvQ56DvpRn4cYKfLc7P7n4WFpZWCwtQIoCLCH0/lpgoiFcMuBEBumrAVFDIkwycfvrpkyHbuqam5gNYVhYFGUiVEDApaFuwDwP4tN9AX4I+BX0L+pgP0DcV8KFZ/W7AjzP7cYIfjvMfagB+dvezsLC0OhEw5Qf4JQI0R0AvHxwUS6wsiEsMW70CoOedd171/PnzF0MmNsRoqQu3LQgBE4P0AH2UgK/7BvQZ6DvQh6AvufWzmDm+T0v26gI+ejkfjfEHAX6O87OwsGRcWIDmB+hEQS8ikIeIgF4+qOsInEiIgFt4wEoGLrroohkPPPDA0lWrVn0YNRmIihR0JGIQxb2K4pmZQB/6CPQV6DM+Qd/NzY+B/8RY4jr+MgT8eRbgpwl+HOdnYWFpN0QArxrAdQRwieGTDOGBwF4B0BEjRswCAw8vX4GSrFEkEKaTFGQbSUhHm6N8JoZEPugD70KfgL7h1Xd8zPZpfB+X7MXr+HFWPwM/CwtLuwgLpEIE8KoBWOOsCwpBtTNdYhjnCUTiFQAtKCgYNXfu3DuWLFmyXs7+voS17unwDqSbFLQnjfp+02epiil9KZ/53+HZQx8IAPp+Zvs4vq9L9pbGWgr4dI8lZvVHAfwM/iwsLFlPBDrHWgoKgbGEcqc4YRCHB7BXAOcKpEQGQCsrK2dDzFeCxTv19fWN1DuQDkLQEclBOu8hfV7wDOFZwjO9//77l8AztvUDH6CvY/t0tq/d/DixrxgBf1fVxxn4WVhY2j0R6GQhAjhZUNcRgCInUOVMlxjGCYNlyCsw0MMr4BYi8E0GoG779ddffxus84ZkMAkiTVD5rjUJQTaShNa+H/R5wDOCZwXPDJ4dPEOXGvx+QN/k4jfN9gei2T6O7+fHWkr2HhtrKeBzVMw9uY8CPyf4sbCwtHsigAsK6RLD/20ID5i8AjRXwCtEEJgMxFQVwjlz5vxu4cKFT0mgeRNKvppCBm1BCjqKmu4zPAN4FvBM4NnAM3KpxhcU9E0ufhrb95rt4/i+LtmLC/gw8LOwsDARUEYQFxTSJYZN4QHqFaC5Am4hAkoGUgoTaO3UqdNP4H3ud99998NPPfXUxtWrV38O68VhBmoCKyYGqQO9vndwb9Vrgz+Hew73Hp4BPAu/z83DvW8CfZOLn8b26Wzf5ObXJXtxAR8GfhYWlg5JBEx1BGhlQZongMMDbl4BuoLgBAsZcPMOnBeUEID27NlzzJVXXnndPffc8+iSJUvW1dTUvC9np3tVrXgjsHVkYuB2P9QrdGFmvxfuIdxLuKdwb+EeB3km5Fm6zfK9QB+7+HUmv9tsH7v5aXzfVLmPY/wsLCxMBAxEgOYJfE/NpH7o4hXASwl1iMCLDJhyBmyhgkCEQHsKYE35DTfccPvChQufkfKynMF+AnFqADmY1ULs3A0Ms5Uk2NoDbYa2wz2AewH3BO4N3CO4V3DPAs7s3QDfDfTP8HDvU9DXLn68hM802/+h6qPfiyXH9xn4WVhYmAhYiAAuMUzDA/oNhDRpEOcK4BCBXk5IycDxBjJAVxOkhRBohXfEQ4W52bNnX//HP/5x/sMPP7x82bJlL0lgfFeC4ZcNDQ0HVDU6XwQhagIR9nxwzXDt0AZoC7QJ2gZthLZCm6HtcA/gXqR6HwMAPs3eP8Xg3qegr5fvYRc/ju3TpL4jyGwfu/lNJXsZ+FlYWJgMxNzzBEzhAeoV0LkCphCBFxnAOQN6NQENFWDvgBshiIQUYD388MMvHjx48Iw5c+bMve222+6HOvSPPvro808++eRamClLkH5bAuxHdXV1O2AGDbFx7VEApa/spVn6bgSBFhzSx9HHhXPAudQ5d8A1wLXANcG1wTXCtcI1w7VDG6AtUdwTF7A3Ab5plq9d+4PUs6YxfTfQN7n4cWwfz/Ztbn6O77OwsLAE9Ap80+IV0GRAryDQIQK9nBCTARwmwMsK9WoCHCoYRLwDp7t4CGxegkhIgZcWFhaOvOCCC6qnTJly9aWXXvqbq6666oZf/epXN1533XW3/uEPf7jzlltuuRveV/+nP/3pr/fee++j999//+IFCxYsA4W/4TP4DvaBfefOnXsX/BaOAceCY8Kx4RxwrnS3x3D/TGBvmuGfTmb5g2LJrv3+scRle9i9j0FfL9/DLv6jEOh7zfbZzc/CwsISIRGw5QroFQTfdyEDNEwABh+SufBqAuod0LUGTOECTQi8vARenoK0E4Ms0PN8zOzdZvcmwNdufb1Gn87ycfZ+MQL9XDLTp6CvXfx0CZ9pts/Az8LCwhIREfDjFdAhgiBkACcQQkZ3kcE70NdACLCH4GQfXgKTp4ASAxM5aA8E4TwLyJuAnoL9mR5gT2f4GPD7Gmb5RepZ40S+IKCvXfxBZ/sM/CwsLCwRegX8hAi8yIBOIOwcM4cKsHfARAhwyODHFlJgIwaUHJgIghtJaG2y4HUN51oA/hzSZjeg9wL7H8cSXfomwDfN8rFrv3OsJZHPC/T9uPh5ts/CwsLShmTgGwHIAE0ghEzuow3egRwDIaAeAh0y6G/wEriRAk0MTGEEL4JgIgleZCGd6nYdZ1sA3uS+Pw3dFy+w17N7HcPvY5jhU8DPMczyj461rNXHiXx+QZ9d/CwsLCwZQgSCkoFDY4kJhG7eAS9CQEMGeoWBiRQMtBADL3KACQIlCZgonOVBGqJS07nOdAF3OpM3gbwX0A90AXudqU9d+l6A7zbLx4l8h4YEfQZ+FhYWliwhAziB0Ms74EUIdEJhnsFLQEMHAGB9LcQAkwMTQTjFhShQwnC6C3lIRU3HpOfFwH6KC8BjkPcC+r5kZq9d+XR2r2P43SyA7zXLx4l8DPosLCwsHYwM4NUE1Dugcwc0IcAeAh0ywDkE2kuASYH2FBQTb0EZ8RhQcoAJAiUJmihQsjCIkAY3PcVFbb/D58Cg/mNybSeg6x6I2mMC+V4I6LEbH8/sNdjr2T2O4WuXPp7ha8DXsXzTLP876Pkz6LOwsLB0IDLgxztgIgTaQ6BDBjqHAHsJNCnAngIdPnAjBj0JOaAEAZMETRQoWRhISAMmD6koPQ4+Bwb1/ui6+qLrxQCPQb6nB9BrNz6e2WOw17N7HcPXLn08w3cDfK9ZPoM+CwsLC5OBBO+AGyHAIQOdQ3CkgRRgT8GxLsQg10AOChFBwCQBEwVKFjRhwNrHoH1d1LQvPV4vA6hjYMfgrgG+0ADyuS5Af6xhZo/B/shYYgyfuvRNgM+gz8LCwsKSMiGweQj+g3gJjkCeApxPgInBMS7koAshCJQkYKJQQAhDESEOmEAEUfp7fOxCcu58dF0Y3DHAd3EB+WMI0OO4vZ7ZH0Fm9zbA/xYDPgsLCwtLGDLgRgj8egn8EIOjDOTARBAoSdBEQZMFTRi6EeKgyUMqmkOAvBsC9K7o/McZwN0E8BTkj/IJ9H5n916Az6DPwsLCwhIpITB5CSgp8EMMKDmgBEGTBEoUMFk4BpEGrP/toscSwKZKj4PPcTS5hh+h6/uBAeApyPsBejewp7N7BnwWFhYWllYhBGFIgYkYmMgBJgiUJGiigMmCJgyaNGD9QYpKj3MkAfTvo+s4wgDuGOBNIG8C+ijBngGfhYWFhaVVCYEXKfimD3KACQIlCZgoULKA9XCi3w2o9Pf0+BTUD0PXR8H9ENQuL5D/pk+wZ8BnYWFhYcloUuDmKfBLDjBBwCQBEwVKFkzEwU0pYLup2/G/YwD2fyPX/K0AIB9kZs9gz8LCwsKS9cTARg5MJMFEFihhSId+ywPUTeDuB+QZ6FlYWFhYmBy4EAQ3ouBFGNKpbtfhdt229rKwsLCwsLD4AEw/ZCHdGuQaWVhYWFhYWDKEOKSiLCwsLCwsLCwsLCwsLCwsLCwsLCwsLCwsLCwsLCwsLCwsLCwsLCwsLCwsLCwsLCwsLCwsLCwsLCwsLCwsLCwsLCwsLCwsLCwsLCwsLCwsLCwsLCwsLCwsLCwsLCwsLCwsLCwsBvn/GMr6Fs85DcMAAAAASUVORK5CYII=;" vertex="1" parent="1">
          <mxGeometry x="20" y="-20" width="140" height="140" as="geometry" />
        </mxCell>
        <mxCell id="pFgveg-31IJwDg-pSHKU-73" value="Processor" style="rounded=1;whiteSpace=wrap;html=1;sketch=1;" vertex="1" parent="1">
          <mxGeometry x="447" y="30" width="190" height="60" as="geometry" />
        </mxCell>
        <mxCell id="pFgveg-31IJwDg-pSHKU-78" value="Order Details Processor" style="rounded=1;whiteSpace=wrap;html=1;sketch=1;" vertex="1" parent="1">
          <mxGeometry x="527" y="290" width="130" height="60" as="geometry" />
        </mxCell>
        <mxCell id="pFgveg-31IJwDg-pSHKU-79" value="Order Details Processor" style="rounded=1;whiteSpace=wrap;html=1;sketch=1;" vertex="1" parent="1">
          <mxGeometry x="537" y="300" width="130" height="60" as="geometry" />
        </mxCell>
        <mxCell id="pFgveg-31IJwDg-pSHKU-80" value="Order Details Processor" style="rounded=1;whiteSpace=wrap;html=1;sketch=1;" vertex="1" parent="1">
          <mxGeometry x="547" y="310" width="130" height="60" as="geometry" />
        </mxCell>
        <mxCell id="pFgveg-31IJwDg-pSHKU-82" value="" style="shape=image;verticalLabelPosition=bottom;labelBackgroundColor=default;verticalAlign=top;aspect=fixed;imageAspect=0;image=data:image/png,iVBORw0KGgoAAAANSUhEUgAAAH4AAAB+CAMAAADV/VW6AAAAflBMVEX///+YzP1HiMebz/+ez/2Nx/1ChsY+gsKm0v2s1f1yn9Ht9v6d0f+HvfGTyv09g8WPxPb3+fxmmc4xfsNRkM1+tepgnNZzrOPk7PakwODw9fqPs9pYltJdlMyEq9bH2OtqpN15pdO4zebT4PAadb/C4P7N5f632v7c7f6Zud0AqYcXAAAGhElEQVRoge2baXeyOhCANWhwQRBZi7aKVsT//wfvZEGBBAxaknPPeedTVcqTzJZJGCaTf/J/k69VS7500v2dhxvi7XyN+NRDyK4JQl6qEX8MULipSYiCo0b83sMnqyYn7O014r+xHVnTh1gRxt/66ClYftoQsL4+4x/B85w63UHY02d8YvomXqvxQ4TrpmfGD3XRM9D9tmn7LWg/04Q/eyh0mngnRN5ZE55GfQuv0fhhM+qZ8W1dxk8DwfTE+CjQEPmXPQb6wWrjrQPw8X7U4E/vXuBhhO1YxMc2/AA/f42lg0uOKTuME0H3oP0kDukIUH4ZAZ7mAYQ7RvHGdYS50/k7bhTDBcjz8r/WQPYDcJh4NJWzqxFMI6ICL9j/afHzRWZux5s+djWCTUyKn+DvklC6I/DD9iWbj2B7sBEOVu9YIBUz9xmB3sPIUqQD34pCsAASozB7MSQfh/m5OYJ9gJF9cpXhdADuCYbsNavv7JyHuN8n7lBAB8Hu/oydVYAw3jivkU1xYAlGQf64zeW+CwIoyO999PUviS2SPn7zM1FUFnrIO0wHTZ0rYHoAA9DyPz3nvyRdkVv/rnvwOUZhcsA2jV4c3i/gdPZpOJsJGMDbXe4h9kjGsPEhgTol76ZD+Q56trZRHILqSPyC2ZM3ps4VkJAIACcA84VxtIWgxD0bAn+HMc3mkD42CYyAKCEZbPanOAmZNrCTDUtXVoxx53bsHCD7kc0dkkOx/Qmd8G0cR67zuMnWRl0JKYOBNjRtgR3e1jy/BWi8ccsEVCovCvdgpQ9pCuMBj5JWZVDE4HYNNQI+wvKyaAUuMjod+ODSK5FOg04HXhp8Pgwq/sjLVcWB4Avbwfcl7lzGElIUt46C/G/Aj+94RKwIktl3a/opSY2f5Rg1cRKSzgXfB+PD6jI63znBOiCYnuv/wxyrQIdVSNA8k4yurqPa34K5e7uOnbgPfDym/mEf3E0HofPv4s+5PL9xQehXritcJ6WTuXfCQVbA78g+7prL4vHV7VqW8EVaFtflYwQLdtVSpMev6FBugf5jKX5ZXXKrQLP6P66v/OsF+yziY9B8T6nF5KeD7xbVFYUUP5mU/XglOuFj5Lb/F/DlY56VXVv4Sen24Mnh089rOmR/+drzDNYu/ITqvwMPK42ncuift0quaUOnRCrf4/jbbMk1s+6ZPSmzFHSfhdiWLH3ulfxY+o9JPvEWRN+VM91u229tHL4++iMHRxLVM9MXdI9SNvEz+HPOblz04KdKh09Q9Rwk+CkF3+gg1iKex0XZhz+oPHP4Es8MibCbLhlFgmfaL+fdePLM4bXvQdxJPM+9kd/8GaMs3sInKpG3wp6k6plzrbPUx31PVH6f7a3Ik5W4LdlhW1LwutT06ZwRSwHPXe/Wh9/Y+EXGJ0WHNO5mPpvcnF60biuf2WbiE6t0uh5EnrzQqAkJezHl8tvf3Pn6MeEHfjrnLsG00ot/FfgdeGbaRfXHso73/WpOy168q5B35Hg26fWs8nC26LVzftG35HyCd+lvJN0wK7BFr73gsqWoT/kv8XLXY/FWkBqKKnpdVz7/xxtfCD9yPWngcYv7/sPMyyZ+Xd6exVYHXinwpGnnWWpUQgsujl8sZlat1vws7ciS7ly4qqjhZ01f+SzpypYcoaxhvlfLeip4pSVHsuDyaKuLX5+9Gl5twU0D3C43RNOzuw/EK5UbsmKLZdryWhTFtWC+Txa9YXi1YktSanLM0qXCxlIMxSuWmmKhzdcbXuOwlZ/63iC8aqEtbDM4MGNZrfLDobN31bYZ4iaLq5vXGLzgIbcfZnuyyXrJl2wxF09nI8Kh8HGg5yts8naSDfYya+6rS/oRfG9Gf8ja+Pc32NLjBbd1XsA+utOug4R3jxcyPYcrHYuu2aMlswdrZo8VzR6qmj5S1nugLmR/w48TDD9MMf0oyfSDNLrUanmMKF92DT9ENfwI2fQD9I72gbf5A9sH/rx5wh7WPCFpHYG1AGtrHZE0zuRgEFtT44ysbehOGnfeahsKmiyFtiFZ09RRX9OUfEisZUx1QfqkZUwuZ5MNcyD+Xqld0BqnXXCi1iy5OY3ULEmEt4ri7lZRPF6rKBGjjbJUjnvPWJswE5NN0kRC8eBTY4u4+G6E3gZ5w68HZJCB2i9HQK7R9XKE9NUQpO3VENMvxhwh9xh8LcjwS1GGXwkz/UKc4dcBDb8MafhVUMMvwv6TP5H/ACrWlyujUyGAAAAAAElFTkSuQmCC;" vertex="1" parent="1">
          <mxGeometry x="27" y="370" width="126" height="126" as="geometry" />
        </mxCell>
        <mxCell id="pFgveg-31IJwDg-pSHKU-83" style="edgeStyle=orthogonalEdgeStyle;rounded=0;orthogonalLoop=1;jettySize=auto;html=1;entryX=0;entryY=0.5;entryDx=0;entryDy=0;strokeColor=#330000;strokeWidth=1;startArrow=classic;startFill=0;exitX=1;exitY=0.5;exitDx=0;exitDy=0;" edge="1" parent="1" source="pFgveg-31IJwDg-pSHKU-82">
          <mxGeometry relative="1" as="geometry">
            <mxPoint x="163" y="270" as="sourcePoint" />
            <mxPoint x="527" y="320" as="targetPoint" />
            <Array as="points">
              <mxPoint x="330" y="433" />
              <mxPoint x="330" y="340" />
              <mxPoint x="527" y="340" />
            </Array>
          </mxGeometry>
        </mxCell>
      </root>
    </mxGraphModel>
  </diagram>
</mxfile>
